<svg width="60" height="60" viewBox="0 0 60 60" fill="none" xmlns="http://www.w3.org/2000/svg">
<rect width="60" height="60" rx="30" fill="#00928B"/>
<g clip-path="url(#clip0_1440_20050)">
<path d="M41.1335 34.7876C40.921 34.068 40.6631 33.4418 40.3603 32.9099C40.0577 32.3776 39.6242 31.8583 39.0591 31.3504C38.4947 30.8427 37.9869 30.4338 37.5367 30.123C37.0867 29.812 36.4686 29.4642 35.6827 29.0792C34.8975 28.6944 34.2754 28.408 33.8174 28.2196C33.3589 28.0315 32.6955 27.7737 31.8278 27.4463C31.0586 27.1518 30.4858 26.9267 30.1089 26.7712C29.7325 26.6157 29.2375 26.3948 28.6236 26.1082C28.0099 25.822 27.5515 25.5681 27.2486 25.3472C26.9458 25.1264 26.6226 24.8563 26.2788 24.5372C25.935 24.218 25.6935 23.8783 25.5543 23.5182C25.4154 23.158 25.3458 22.7651 25.3458 22.3395C25.3458 21.2266 25.8367 20.3178 26.8188 19.6141C27.801 18.9104 29.0698 18.5584 30.625 18.5584C31.3122 18.5584 32.0128 18.6524 32.7243 18.8409C33.4359 19.0293 34.0458 19.2416 34.5533 19.4791C35.0612 19.7166 35.5398 19.9786 35.9901 20.2649C36.4403 20.5515 36.7594 20.7682 36.9478 20.9155C37.1361 21.0629 37.2554 21.161 37.304 21.2102C37.5171 21.3739 37.7375 21.4311 37.9667 21.3822C38.2122 21.3658 38.4006 21.2347 38.5318 20.9894L40.5211 17.4045C40.7174 17.0772 40.6768 16.7661 40.3983 16.4713C40.2788 16.3531 40.1557 16.2384 40.0293 16.1276C39.8824 15.9965 39.5631 15.7592 39.0716 15.4153C38.5762 15.0691 38.0552 14.7613 37.5129 14.4946C36.9643 14.2247 36.252 13.9503 35.3761 13.6722C34.5008 13.3936 33.5961 13.2056 32.6628 13.1074V8.78572C32.6628 8.55669 32.5893 8.36835 32.4424 8.22094C32.2952 8.07388 32.1068 8 31.8773 8H28.5622C28.3495 8 28.1653 8.07766 28.0099 8.23324C27.8544 8.38882 27.7766 8.57286 27.7766 8.78572V13.2055C25.2065 13.6964 23.1194 14.7932 21.5152 16.4956C19.9112 18.1981 19.1089 20.1785 19.1089 22.4377C19.1089 23.1087 19.1787 23.7471 19.3178 24.3525C19.4568 24.9584 19.6288 25.5027 19.8335 25.9855C20.038 26.4687 20.3287 26.9433 20.7051 27.4099C21.0816 27.8764 21.4377 28.2775 21.7732 28.6129C22.1089 28.9482 22.5468 29.2962 23.0868 29.6562C23.6272 30.0166 24.0896 30.3073 24.4744 30.5282C24.8592 30.7483 25.3707 31.0029 26.0089 31.2887C26.6473 31.5753 27.1509 31.792 27.5192 31.9397C27.8876 32.0868 28.3908 32.2917 29.0295 32.553C29.9133 32.8968 30.5683 33.1629 30.9938 33.3512C31.4197 33.5396 31.9597 33.8014 32.6149 34.137C33.2694 34.4723 33.748 34.7793 34.0511 35.0577C34.3539 35.3361 34.628 35.6798 34.8737 36.0889C35.1194 36.498 35.2425 36.9318 35.2425 37.3904C35.2425 38.6836 34.7391 39.6819 33.7321 40.3853C32.7255 41.0894 31.5588 41.4413 30.2331 41.4413C29.6223 41.4408 29.0133 41.3751 28.4164 41.2453C26.2883 40.8192 24.2995 39.7961 22.4498 38.1756L22.4007 38.1265C22.2533 37.9469 22.0568 37.8731 21.8115 37.9061C21.5495 37.9388 21.3612 38.0371 21.2467 38.2011L18.7175 41.5156C18.4719 41.8429 18.4885 42.1784 18.7667 42.5222C18.8487 42.6205 18.9919 42.7681 19.1964 42.9642C19.4014 43.1611 19.7821 43.4675 20.3383 43.8857C20.8948 44.3034 21.5005 44.6957 22.1554 45.0645C22.8102 45.4327 23.6408 45.7967 24.6478 46.157C25.6547 46.5167 26.698 46.7703 27.7784 46.9175V51.2145C27.7784 51.4276 27.8563 51.6115 28.0117 51.7672C28.1672 51.9229 28.3513 52.0003 28.5641 52.0003H31.8791C32.1086 52.0003 32.297 51.9268 32.4441 51.7797C32.5913 51.6325 32.6646 51.4442 32.6646 51.2145V46.9176C35.2678 46.4921 37.3835 45.3748 39.0121 43.5659C40.6408 41.757 41.4554 39.6003 41.4554 37.096C41.4545 36.2777 41.3483 35.5083 41.1335 34.7876Z" fill="white"/>
</g>
<defs>
<clipPath id="clip0_1440_20050">
<rect width="44" height="44" fill="white" transform="translate(8 8)"/>
</clipPath>
</defs>
</svg>
