<svg width="697" height="257" viewBox="0 0 697 257" fill="none" xmlns="http://www.w3.org/2000/svg">
<path d="M74.666 197.645C59.2085 197.645 45.8959 194.343 34.7284 187.737C23.6289 181.064 15.049 171.701 8.98852 159.648C2.99617 147.527 0 133.33 0 117.055C0 100.985 2.99617 86.8209 8.98852 74.5639C15.049 62.3068 23.4927 52.7395 34.3198 45.8619C45.215 38.9843 57.9487 35.5455 72.521 35.5455C81.3733 35.5455 89.9533 37.0096 98.2609 39.9376C106.568 42.8657 114.025 47.4621 120.63 53.7268C127.235 59.9916 132.444 68.1289 136.258 78.1388C140.071 88.0807 141.978 100.168 141.978 114.399V125.226H17.262V102.347H112.05C112.05 94.3114 110.416 87.1955 107.147 80.9988C103.879 74.7341 99.2823 69.7972 93.358 66.1882C87.5019 62.5792 80.6243 60.7747 72.7253 60.7747C64.1453 60.7747 56.6549 62.8856 50.254 67.1075C43.9212 71.2613 39.0183 76.7088 35.5455 83.4502C32.1408 90.1235 30.4384 97.3756 30.4384 105.207V123.081C30.4384 133.568 32.277 142.488 35.9541 149.843C39.6993 157.197 44.9086 162.815 51.5818 166.696C58.2551 170.509 66.052 172.416 74.9724 172.416C80.7605 172.416 86.0378 171.599 90.8045 169.965C95.5711 168.262 99.6909 165.743 103.164 162.406C106.637 159.07 109.292 154.95 111.131 150.047L140.037 155.256C137.722 163.768 133.568 171.225 127.576 177.625C121.651 183.958 114.195 188.895 105.207 192.436C96.2861 195.909 86.1059 197.645 74.666 197.645Z" fill="#121212"/>
<path d="M215.756 256.581C203.295 256.581 192.57 254.947 183.581 251.679C174.661 248.41 167.375 244.086 161.723 238.706C156.071 233.327 151.849 227.437 149.057 221.036L175.308 210.209C177.146 213.205 179.598 216.371 182.662 219.708C185.794 223.113 190.016 226.007 195.328 228.39C200.707 230.773 207.619 231.965 216.063 231.965C227.639 231.965 237.206 229.139 244.765 223.487C252.323 217.904 256.102 208.983 256.102 196.726V165.879H254.162C252.323 169.216 249.667 172.927 246.195 177.013C242.79 181.098 238.091 184.639 232.099 187.635C226.107 190.632 218.31 192.13 208.708 192.13C196.315 192.13 185.148 189.236 175.206 183.448C165.332 177.591 157.501 168.977 151.713 157.606C145.993 146.166 143.133 132.104 143.133 115.421C143.133 98.7375 145.959 84.4376 151.611 72.521C157.331 60.6044 165.162 51.4797 175.104 45.1469C185.045 38.746 196.315 35.5455 208.913 35.5455C218.65 35.5455 226.515 37.1798 232.507 40.4483C238.5 43.6488 243.164 47.394 246.501 51.684C249.906 55.974 252.527 59.7532 254.366 63.0218H256.613V37.5884H286.541V197.952C286.541 211.435 283.408 222.5 277.144 231.148C270.879 239.796 262.401 246.197 251.71 250.351C241.087 254.504 229.103 256.581 215.756 256.581ZM215.45 166.798C224.234 166.798 231.656 164.755 237.717 160.67C243.845 156.516 248.476 150.592 251.608 142.897C254.809 135.134 256.409 125.839 256.409 115.012C256.409 104.457 254.843 95.1626 251.71 87.1274C248.578 79.0922 243.981 72.8274 237.921 68.3332C231.861 63.7708 224.37 61.4896 215.45 61.4896C206.257 61.4896 198.596 63.873 192.468 68.6396C186.339 73.3382 181.709 79.7391 178.576 87.8423C175.512 95.9456 173.98 105.002 173.98 115.012C173.98 125.295 175.546 134.317 178.678 142.08C181.811 149.843 186.441 155.903 192.57 160.261C198.766 164.619 206.393 166.798 215.45 166.798Z" fill="#121212"/>
<path d="M374.849 37.5884V62.1025H289.151V37.5884H374.849ZM312.134 0H342.674V148.413C342.674 154.337 343.559 158.797 345.33 161.793C347.1 164.721 349.381 166.73 352.173 167.82C355.033 168.841 358.132 169.352 361.468 169.352C363.92 169.352 366.065 169.182 367.903 168.841C369.742 168.501 371.172 168.228 372.193 168.024L377.709 193.253C375.938 193.934 373.419 194.615 370.15 195.296C366.882 196.045 362.796 196.454 357.893 196.522C349.858 196.658 342.368 195.228 335.422 192.232C328.476 189.236 322.858 184.605 318.568 178.34C314.278 172.076 312.134 164.211 312.134 154.746V0Z" fill="#121212"/>
<path d="M447.146 197.645C432.438 197.645 419.602 194.275 408.639 187.533C397.675 180.792 389.163 171.361 383.103 159.24C377.043 147.119 374.012 132.955 374.012 116.749C374.012 100.474 377.043 86.2421 383.103 74.0531C389.163 61.8642 397.675 52.399 408.639 45.6576C419.602 38.9162 432.438 35.5455 447.146 35.5455C461.855 35.5455 474.691 38.9162 485.654 45.6576C496.617 52.399 505.129 61.8642 511.189 74.0531C517.25 86.2421 520.28 100.474 520.28 116.749C520.28 132.955 517.25 147.119 511.189 159.24C505.129 171.361 496.617 180.792 485.654 187.533C474.691 194.275 461.855 197.645 447.146 197.645ZM447.248 172.008C456.782 172.008 464.681 169.488 470.945 164.449C477.21 159.41 481.84 152.703 484.837 144.327C487.901 135.951 489.433 126.725 489.433 116.646C489.433 106.637 487.901 97.4437 484.837 89.0681C481.84 80.6243 477.21 73.8489 470.945 68.7417C464.681 63.6346 456.782 61.0811 447.248 61.0811C437.647 61.0811 429.68 63.6346 423.347 68.7417C417.082 73.8489 412.418 80.6243 409.354 89.0681C406.357 97.4437 404.859 106.637 404.859 116.646C404.859 126.725 406.357 135.951 409.354 144.327C412.418 152.703 417.082 159.41 423.347 164.449C429.68 169.488 437.647 172.008 447.248 172.008Z" fill="#121212"/>
<path d="M646.049 75.8917L618.368 80.7945C617.211 77.2536 615.372 73.8829 612.853 70.6824C610.401 67.482 607.065 64.8603 602.843 62.8175C598.621 60.7747 593.343 59.7532 587.011 59.7532C578.362 59.7532 571.145 61.6939 565.356 65.5753C559.568 69.3886 556.674 74.3255 556.674 80.386C556.674 85.6293 558.615 89.8512 562.496 93.0516C566.378 96.2521 572.643 98.8737 581.291 100.917L606.213 106.637C620.649 109.973 631.408 115.114 638.49 122.06C645.572 129.006 649.113 138.028 649.113 149.128C649.113 158.525 646.389 166.9 640.942 174.255C635.562 181.541 628.038 187.261 618.368 191.415C608.767 195.568 597.633 197.645 584.968 197.645C567.399 197.645 553.065 193.9 541.966 186.41C530.866 178.851 524.057 168.126 521.537 154.235L551.057 149.741C552.895 157.435 556.674 163.257 562.394 167.207C568.114 171.088 575.571 173.029 584.763 173.029C594.773 173.029 602.775 170.952 608.767 166.798C614.759 162.576 617.755 157.435 617.755 151.375C617.755 146.472 615.917 142.352 612.24 139.016C608.631 135.679 603.081 133.159 595.591 131.457L569.034 125.635C554.393 122.298 543.566 116.987 536.552 109.701C529.607 102.415 526.134 93.1878 526.134 82.0202C526.134 72.7593 528.721 64.6561 533.897 57.7104C539.072 50.7647 546.222 45.3512 555.346 41.4698C564.471 37.5203 574.924 35.5455 586.704 35.5455C603.66 35.5455 617.006 39.2226 626.744 46.5769C636.482 53.863 642.916 63.6346 646.049 75.8917Z" fill="#121212"/>
<path d="M674.124 172.069C674.769 170.328 677.231 170.328 677.876 172.069L681.353 181.466C681.555 182.013 681.987 182.445 682.534 182.647L691.931 186.124C693.672 186.769 693.672 189.231 691.931 189.876L682.534 193.353C681.987 193.555 681.555 193.987 681.353 194.534L677.876 203.931C677.231 205.672 674.769 205.672 674.124 203.931L670.647 194.534C670.445 193.987 670.013 193.555 669.466 193.353L660.069 189.876C658.328 189.231 658.328 186.769 660.069 186.124L669.466 182.647C670.013 182.445 670.445 182.013 670.647 181.466L674.124 172.069Z" fill="#00928B"/>
</svg>
