<svg width="60" height="60" viewBox="0 0 60 60" fill="none" xmlns="http://www.w3.org/2000/svg">
<rect width="60" height="60" rx="30" fill="#00928B"/>
<path d="M40.3658 11.6667H27.0118C26.9384 11.6667 26.8666 11.6887 26.8058 11.7298C26.745 11.771 26.698 11.8295 26.6708 11.8977L19.2018 30.7206C19.1796 30.7762 19.1714 30.8365 19.1779 30.896C19.1844 30.9556 19.2054 31.0126 19.2391 31.0622C19.2727 31.1117 19.318 31.1523 19.3709 31.1803C19.4239 31.2084 19.4829 31.223 19.5428 31.2229H27.6021C27.6571 31.2229 27.7114 31.2353 27.761 31.2592C27.8105 31.283 27.8541 31.3177 27.8884 31.3607C27.9227 31.4036 27.9469 31.4538 27.9593 31.5073C27.9716 31.5609 27.9717 31.6166 27.9596 31.6702L24.5735 46.5863C24.4855 46.9749 24.9951 47.2059 25.228 46.8832L40.5785 25.6917C40.6185 25.637 40.6425 25.5723 40.6479 25.5047C40.6533 25.4371 40.6399 25.3694 40.6091 25.309C40.5784 25.2486 40.5315 25.1979 40.4736 25.1625C40.4158 25.1272 40.3493 25.1086 40.2815 25.1087H33.8703C33.806 25.1087 33.7428 25.0917 33.6871 25.0595C33.6314 25.0273 33.5852 24.981 33.553 24.9253C33.5209 24.8695 33.504 24.8063 33.504 24.742C33.504 24.6777 33.521 24.6145 33.5531 24.5587L40.683 12.2167C40.7151 12.161 40.7321 12.0978 40.7321 12.0335C40.7321 11.9692 40.7152 11.906 40.6831 11.8502C40.6509 11.7945 40.6047 11.7482 40.549 11.716C40.4933 11.6838 40.4301 11.6668 40.3658 11.6667Z" fill="white"/>
</svg>
