<svg width="14" height="14" viewBox="0 0 14 14" fill="none" xmlns="http://www.w3.org/2000/svg">
<g clip-path="url(#clip0_1694_29716)">
<path d="M13.3563 7.00049L13.9705 5.39848C14.0379 5.22174 13.9854 5.02138 13.8375 4.90151L12.5058 3.82183L12.2364 2.12707C12.2066 1.93984 12.0596 1.79372 11.8724 1.76397L10.1776 1.49449L9.09882 0.161958C8.97983 0.0140934 8.7751 -0.038403 8.60273 0.0289674L6.99984 0.64405L5.39783 0.0298423C5.22021 -0.038403 5.0216 0.0158433 4.90174 0.162833L3.82206 1.49537L2.1273 1.76485C2.03629 1.77951 1.95221 1.82248 1.88702 1.88767C1.82183 1.95286 1.77886 2.03693 1.7642 2.12795L1.49472 3.82271L0.162186 4.90239C0.0151959 5.02138 -0.0381755 5.22174 0.0291949 5.39848L0.643403 7.00049L0.0291949 8.60251C-0.0390504 8.77925 0.0151959 8.97961 0.162186 9.0986L1.49472 10.1774L1.7642 11.8722C1.79395 12.0594 1.94006 12.2064 2.1273 12.2361L3.82206 12.5056L4.90174 13.8373C4.9597 13.9094 5.03912 13.9611 5.12848 13.985C5.21783 14.0089 5.31248 14.0038 5.3987 13.9703L6.99984 13.3569L8.60186 13.9711C8.65187 13.9902 8.70494 14 8.75847 14C8.88709 14 9.01396 13.9431 9.09882 13.8373L10.1776 12.5056L11.8724 12.2361C11.9637 12.2216 12.0481 12.1786 12.1134 12.1132C12.1788 12.0478 12.2218 11.9635 12.2364 11.8722L12.5058 10.1774L13.8375 9.0986C13.9854 8.97873 14.0379 8.77925 13.9705 8.60251L13.3563 7.00049Z" fill="#17A238"/>
<path d="M5.68741 6.12531C4.96383 6.12531 4.375 5.53647 4.375 4.8129C4.375 4.08932 4.96383 3.50048 5.68741 3.50048C6.41099 3.50048 6.99982 4.08932 6.99982 4.8129C6.99982 5.53647 6.41099 6.12531 5.68741 6.12531ZM5.68741 4.37543C5.44593 4.37543 5.24994 4.57141 5.24994 4.8129C5.24994 5.05438 5.44593 5.25037 5.68741 5.25037C5.92889 5.25037 6.12488 5.05438 6.12488 4.8129C6.12488 4.57141 5.92889 4.37543 5.68741 4.37543ZM8.31223 10.5C7.58866 10.5 6.99982 9.91117 6.99982 9.1876C6.99982 8.46402 7.58866 7.87519 8.31223 7.87519C9.03581 7.87519 9.62464 8.46402 9.62464 9.1876C9.62464 9.91117 9.03581 10.5 8.31223 10.5ZM8.31223 8.75013C8.07162 8.75013 7.87476 8.94699 7.87476 9.1876C7.87476 9.4282 8.07162 9.62507 8.31223 9.62507C8.55284 9.62507 8.7497 9.4282 8.7497 9.1876C8.7497 8.94699 8.55284 8.75013 8.31223 8.75013ZM4.81247 10.5C4.7241 10.5 4.63573 10.4738 4.55874 10.4186C4.36188 10.2778 4.31638 10.0048 4.45724 9.80793L8.83195 3.68335C8.97281 3.48649 9.24579 3.44099 9.44265 3.58185C9.63951 3.72184 9.68414 3.9957 9.54415 4.19169L5.16945 10.3163C5.08283 10.4361 4.94896 10.5 4.81247 10.5Z" fill="white"/>
</g>
<defs>
<clipPath id="clip0_1694_29716">
<rect width="14" height="14" fill="white"/>
</clipPath>
</defs>
</svg>
