<svg width="24" height="24" viewBox="0 0 24 24" fill="none" xmlns="http://www.w3.org/2000/svg">
<rect width="24" height="24" rx="12" fill="#00A89D"/>
<path d="M11.3797 18.131L4.98438 11.2131H8.08511L10.5331 14.0294C10.5568 13.9636 11.5507 12.0714 12.9553 10.6263C15.643 7.86148 19.0151 5.8689 19.0151 5.8689C19.0009 5.88003 17.5701 7.00483 15.9226 9.06637C14.4022 10.9688 12.3813 14.0807 11.3868 18.1021L11.3797 18.131Z" fill="#EEFFFC"/>
<path d="M12.9554 10.6264C11.5508 12.0714 10.5569 13.9636 10.5332 14.0295L11.3798 18.1311L11.3869 18.1022C12.3812 14.0807 14.4023 10.9689 15.9226 9.06643C17.5702 7.00483 19.001 5.87994 19.0152 5.8689C19.0152 5.8689 15.6431 7.86148 12.9554 10.6264Z" fill="#C5FFF7"/>
</svg>
