<svg width="304" height="379" viewBox="0 0 304 379" fill="none" xmlns="http://www.w3.org/2000/svg">
<g filter="url(#filter0_d_1694_29763)">
<g clip-path="url(#clip0_1694_29763)">
<rect x="23" y="23" width="250" height="325" rx="24" fill="#EEFFFC"/>
<path d="M40.0114 57V45.3636H44.6023C45.4848 45.3636 46.2367 45.5322 46.858 45.8693C47.4792 46.2027 47.9527 46.6667 48.2784 47.2614C48.608 47.8523 48.7727 48.5341 48.7727 49.3068C48.7727 50.0795 48.6061 50.7614 48.2727 51.3523C47.9394 51.9432 47.4564 52.4034 46.8239 52.733C46.1951 53.0625 45.4337 53.2273 44.5398 53.2273H41.6136V51.2557H44.142C44.6155 51.2557 45.0057 51.1742 45.3125 51.0114C45.6231 50.8447 45.8542 50.6155 46.0057 50.3239C46.161 50.0284 46.2386 49.6894 46.2386 49.3068C46.2386 48.9205 46.161 48.5833 46.0057 48.2955C45.8542 48.0038 45.6231 47.7784 45.3125 47.6193C45.0019 47.4564 44.608 47.375 44.1307 47.375H42.4716V57H40.0114ZM50.3253 57V48.2727H52.6719V49.7955H52.7628C52.9219 49.2538 53.1889 48.8447 53.5639 48.5682C53.9389 48.2879 54.3707 48.1477 54.8594 48.1477C54.9806 48.1477 55.1113 48.1553 55.2514 48.1705C55.3916 48.1856 55.5147 48.2064 55.6207 48.233V50.3807C55.5071 50.3466 55.3499 50.3163 55.1491 50.2898C54.9484 50.2633 54.7647 50.25 54.598 50.25C54.242 50.25 53.9238 50.3277 53.6435 50.483C53.367 50.6345 53.1473 50.8466 52.9844 51.1193C52.8253 51.392 52.7457 51.7064 52.7457 52.0625V57H50.3253ZM60.4091 57.1705C59.5265 57.1705 58.7633 56.983 58.1193 56.608C57.4792 56.2292 56.9848 55.7027 56.6364 55.0284C56.2879 54.3504 56.1136 53.5644 56.1136 52.6705C56.1136 51.7689 56.2879 50.9811 56.6364 50.3068C56.9848 49.6288 57.4792 49.1023 58.1193 48.7273C58.7633 48.3485 59.5265 48.1591 60.4091 48.1591C61.2917 48.1591 62.053 48.3485 62.6932 48.7273C63.3371 49.1023 63.8333 49.6288 64.1818 50.3068C64.5303 50.9811 64.7045 51.7689 64.7045 52.6705C64.7045 53.5644 64.5303 54.3504 64.1818 55.0284C63.8333 55.7027 63.3371 56.2292 62.6932 56.608C62.053 56.983 61.2917 57.1705 60.4091 57.1705ZM60.4205 55.2955C60.822 55.2955 61.1572 55.1818 61.4261 54.9545C61.6951 54.7235 61.8977 54.4091 62.0341 54.0114C62.1742 53.6136 62.2443 53.161 62.2443 52.6534C62.2443 52.1458 62.1742 51.6932 62.0341 51.2955C61.8977 50.8977 61.6951 50.5833 61.4261 50.3523C61.1572 50.1212 60.822 50.0057 60.4205 50.0057C60.0152 50.0057 59.6742 50.1212 59.3977 50.3523C59.125 50.5833 58.9186 50.8977 58.7784 51.2955C58.642 51.6932 58.5739 52.1458 58.5739 52.6534C58.5739 53.161 58.642 53.6136 58.7784 54.0114C58.9186 54.4091 59.125 54.7235 59.3977 54.9545C59.6742 55.1818 60.0152 55.2955 60.4205 55.2955ZM70.9716 48.2727V50.0909H65.5852V48.2727H70.9716ZM66.8182 57V47.642C66.8182 47.0095 66.9413 46.4848 67.1875 46.0682C67.4375 45.6515 67.7784 45.339 68.2102 45.1307C68.642 44.9223 69.1326 44.8182 69.6818 44.8182C70.053 44.8182 70.392 44.8466 70.6989 44.9034C71.0095 44.9602 71.2405 45.0114 71.392 45.0568L70.9602 46.875C70.8655 46.8447 70.7481 46.8163 70.608 46.7898C70.4716 46.7633 70.3314 46.75 70.1875 46.75C69.8314 46.75 69.5833 46.8333 69.4432 47C69.303 47.1629 69.233 47.392 69.233 47.6875V57H66.8182ZM76.1151 57.1705C75.2173 57.1705 74.4446 56.9886 73.7969 56.625C73.1529 56.2576 72.6567 55.7386 72.3082 55.0682C71.9598 54.3939 71.7855 53.5966 71.7855 52.6761C71.7855 51.7784 71.9598 50.9905 72.3082 50.3125C72.6567 49.6345 73.1473 49.1061 73.7798 48.7273C74.4162 48.3485 75.1624 48.1591 76.0185 48.1591C76.5942 48.1591 77.1302 48.2519 77.6264 48.4375C78.1264 48.6193 78.562 48.8939 78.9332 49.2614C79.3082 49.6288 79.5999 50.0909 79.8082 50.6477C80.0166 51.2008 80.1207 51.8485 80.1207 52.5909V53.2557H72.7514V51.7557H77.8423C77.8423 51.4072 77.7666 51.0985 77.6151 50.8295C77.4635 50.5606 77.2533 50.3504 76.9844 50.1989C76.7192 50.0436 76.4105 49.9659 76.0582 49.9659C75.6908 49.9659 75.3651 50.0511 75.081 50.2216C74.8007 50.3883 74.581 50.6136 74.4219 50.8977C74.2628 51.178 74.1813 51.4905 74.1776 51.8352V53.2614C74.1776 53.6932 74.2571 54.0663 74.4162 54.3807C74.5791 54.6951 74.8082 54.9375 75.1037 55.108C75.3991 55.2784 75.7495 55.3636 76.1548 55.3636C76.4238 55.3636 76.67 55.3258 76.8935 55.25C77.117 55.1742 77.3082 55.0606 77.4673 54.9091C77.6264 54.7576 77.7476 54.572 77.831 54.3523L80.0696 54.5C79.956 55.0379 79.723 55.5076 79.3707 55.9091C79.0223 56.3068 78.5715 56.6174 78.0185 56.8409C77.4692 57.0606 76.8348 57.1705 76.1151 57.1705ZM88.9616 50.7614L86.7457 50.8977C86.7079 50.7083 86.6264 50.5379 86.5014 50.3864C86.3764 50.2311 86.2116 50.108 86.0071 50.017C85.8063 49.9223 85.5658 49.875 85.2855 49.875C84.9105 49.875 84.5942 49.9545 84.3366 50.1136C84.0791 50.2689 83.9503 50.4773 83.9503 50.7386C83.9503 50.947 84.0336 51.1231 84.2003 51.267C84.367 51.411 84.6529 51.5265 85.0582 51.6136L86.6378 51.9318C87.4863 52.1061 88.1188 52.3864 88.5355 52.7727C88.9522 53.1591 89.1605 53.6667 89.1605 54.2955C89.1605 54.8674 88.992 55.3693 88.6548 55.8011C88.3215 56.233 87.8632 56.5701 87.2798 56.8125C86.7003 57.0511 86.0317 57.1705 85.2741 57.1705C84.1188 57.1705 83.1984 56.9299 82.5128 56.4489C81.831 55.964 81.4313 55.3049 81.3139 54.4716L83.6946 54.3466C83.7666 54.6989 83.9408 54.9678 84.2173 55.1534C84.4938 55.3352 84.848 55.4261 85.2798 55.4261C85.7041 55.4261 86.045 55.3447 86.3026 55.1818C86.5639 55.0152 86.6965 54.8011 86.7003 54.5398C86.6965 54.3201 86.6037 54.1402 86.4219 54C86.2401 53.8561 85.9598 53.7462 85.581 53.6705L84.0696 53.3693C83.2173 53.1989 82.5829 52.9034 82.1662 52.483C81.7533 52.0625 81.5469 51.5265 81.5469 50.875C81.5469 50.3144 81.6984 49.8314 82.0014 49.4261C82.3082 49.0208 82.7382 48.7083 83.2912 48.4886C83.848 48.2689 84.4995 48.1591 85.2457 48.1591C86.348 48.1591 87.2154 48.392 87.848 48.858C88.4844 49.3239 88.8556 49.9583 88.9616 50.7614ZM97.946 50.7614L95.7301 50.8977C95.6922 50.7083 95.6108 50.5379 95.4858 50.3864C95.3608 50.2311 95.196 50.108 94.9915 50.017C94.7907 49.9223 94.5502 49.875 94.2699 49.875C93.8949 49.875 93.5786 49.9545 93.321 50.1136C93.0634 50.2689 92.9347 50.4773 92.9347 50.7386C92.9347 50.947 93.018 51.1231 93.1847 51.267C93.3513 51.411 93.6373 51.5265 94.0426 51.6136L95.6222 51.9318C96.4706 52.1061 97.1032 52.3864 97.5199 52.7727C97.9366 53.1591 98.1449 53.6667 98.1449 54.2955C98.1449 54.8674 97.9763 55.3693 97.6392 55.8011C97.3059 56.233 96.8475 56.5701 96.2642 56.8125C95.6847 57.0511 95.0161 57.1705 94.2585 57.1705C93.1032 57.1705 92.1828 56.9299 91.4972 56.4489C90.8153 55.964 90.4157 55.3049 90.2983 54.4716L92.679 54.3466C92.7509 54.6989 92.9252 54.9678 93.2017 55.1534C93.4782 55.3352 93.8324 55.4261 94.2642 55.4261C94.6884 55.4261 95.0294 55.3447 95.2869 55.1818C95.5483 55.0152 95.6809 54.8011 95.6847 54.5398C95.6809 54.3201 95.5881 54.1402 95.4062 54C95.2244 53.8561 94.9441 53.7462 94.5653 53.6705L93.054 53.3693C92.2017 53.1989 91.5672 52.9034 91.1506 52.483C90.7377 52.0625 90.5312 51.5265 90.5312 50.875C90.5312 50.3144 90.6828 49.8314 90.9858 49.4261C91.2926 49.0208 91.7225 48.7083 92.2756 48.4886C92.8324 48.2689 93.4839 48.1591 94.2301 48.1591C95.3324 48.1591 96.1998 48.392 96.8324 48.858C97.4688 49.3239 97.84 49.9583 97.946 50.7614ZM99.669 57V48.2727H102.089V57H99.669ZM100.885 47.1477C100.525 47.1477 100.216 47.0284 99.9588 46.7898C99.705 46.5473 99.5781 46.2576 99.5781 45.9205C99.5781 45.5871 99.705 45.3011 99.9588 45.0625C100.216 44.8201 100.525 44.6989 100.885 44.6989C101.245 44.6989 101.552 44.8201 101.805 45.0625C102.063 45.3011 102.192 45.5871 102.192 45.9205C102.192 46.2576 102.063 46.5473 101.805 46.7898C101.552 47.0284 101.245 47.1477 100.885 47.1477ZM107.972 57.1705C107.089 57.1705 106.326 56.983 105.682 56.608C105.042 56.2292 104.547 55.7027 104.199 55.0284C103.85 54.3504 103.676 53.5644 103.676 52.6705C103.676 51.7689 103.85 50.9811 104.199 50.3068C104.547 49.6288 105.042 49.1023 105.682 48.7273C106.326 48.3485 107.089 48.1591 107.972 48.1591C108.854 48.1591 109.616 48.3485 110.256 48.7273C110.9 49.1023 111.396 49.6288 111.744 50.3068C112.093 50.9811 112.267 51.7689 112.267 52.6705C112.267 53.5644 112.093 54.3504 111.744 55.0284C111.396 55.7027 110.9 56.2292 110.256 56.608C109.616 56.983 108.854 57.1705 107.972 57.1705ZM107.983 55.2955C108.384 55.2955 108.72 55.1818 108.989 54.9545C109.258 54.7235 109.46 54.4091 109.597 54.0114C109.737 53.6136 109.807 53.161 109.807 52.6534C109.807 52.1458 109.737 51.6932 109.597 51.2955C109.46 50.8977 109.258 50.5833 108.989 50.3523C108.72 50.1212 108.384 50.0057 107.983 50.0057C107.578 50.0057 107.237 50.1212 106.96 50.3523C106.688 50.5833 106.481 50.8977 106.341 51.2955C106.205 51.6932 106.136 52.1458 106.136 52.6534C106.136 53.161 106.205 53.6136 106.341 54.0114C106.481 54.4091 106.688 54.7235 106.96 54.9545C107.237 55.1818 107.578 55.2955 107.983 55.2955ZM116.261 51.9545V57H113.841V48.2727H116.148V49.8125H116.25C116.443 49.3049 116.767 48.9034 117.222 48.608C117.676 48.3087 118.227 48.1591 118.875 48.1591C119.481 48.1591 120.009 48.2917 120.46 48.5568C120.911 48.822 121.261 49.2008 121.511 49.6932C121.761 50.1818 121.886 50.7652 121.886 51.4432V57H119.466V51.875C119.47 51.3409 119.333 50.9242 119.057 50.625C118.78 50.322 118.4 50.1705 117.915 50.1705C117.589 50.1705 117.301 50.2405 117.051 50.3807C116.805 50.5208 116.612 50.7254 116.472 50.9943C116.335 51.2595 116.265 51.5795 116.261 51.9545ZM126.283 57.1648C125.726 57.1648 125.23 57.0682 124.794 56.875C124.358 56.678 124.014 56.3883 123.76 56.0057C123.51 55.6193 123.385 55.1383 123.385 54.5625C123.385 54.0777 123.474 53.6705 123.652 53.3409C123.83 53.0114 124.072 52.7462 124.379 52.5455C124.686 52.3447 125.035 52.1932 125.425 52.0909C125.819 51.9886 126.232 51.9167 126.663 51.875C127.171 51.822 127.58 51.7727 127.891 51.7273C128.201 51.678 128.427 51.6061 128.567 51.5114C128.707 51.4167 128.777 51.2765 128.777 51.0909V51.0568C128.777 50.697 128.663 50.4186 128.436 50.2216C128.213 50.0246 127.894 49.9261 127.482 49.9261C127.046 49.9261 126.699 50.0227 126.442 50.2159C126.184 50.4053 126.014 50.6439 125.93 50.9318L123.692 50.75C123.805 50.2197 124.029 49.7614 124.362 49.375C124.696 48.9848 125.125 48.6856 125.652 48.4773C126.182 48.2652 126.796 48.1591 127.493 48.1591C127.978 48.1591 128.442 48.2159 128.885 48.3295C129.332 48.4432 129.728 48.6193 130.072 48.858C130.421 49.0966 130.696 49.4034 130.896 49.7784C131.097 50.1496 131.197 50.5947 131.197 51.1136V57H128.902V55.7898H128.834C128.694 56.0625 128.506 56.303 128.271 56.5114C128.036 56.7159 127.754 56.8769 127.425 56.9943C127.095 57.108 126.714 57.1648 126.283 57.1648ZM126.976 55.4943C127.332 55.4943 127.646 55.4242 127.919 55.2841C128.192 55.1402 128.406 54.947 128.561 54.7045C128.716 54.4621 128.794 54.1875 128.794 53.8807V52.9545C128.718 53.0038 128.614 53.0492 128.482 53.0909C128.353 53.1288 128.207 53.1648 128.044 53.1989C127.881 53.2292 127.718 53.2576 127.555 53.2841C127.393 53.3068 127.245 53.3277 127.112 53.3466C126.828 53.3883 126.58 53.4545 126.368 53.5455C126.156 53.6364 125.991 53.7595 125.874 53.9148C125.756 54.0663 125.697 54.2557 125.697 54.483C125.697 54.8125 125.817 55.0644 126.055 55.2386C126.298 55.4091 126.605 55.4943 126.976 55.4943ZM135.496 45.3636V57H133.075V45.3636H135.496Z" fill="#0A5753"/>
<g clip-path="url(#clip1_1694_29763)">
<rect x="188" y="43" width="69" height="24" rx="12" fill="#002425"/>
<path d="M200.861 59V50.2727H204.134C204.804 50.2727 205.366 50.3977 205.821 50.6477C206.278 50.8977 206.624 51.2415 206.857 51.679C207.092 52.1136 207.21 52.608 207.21 53.1619C207.21 53.7216 207.092 54.2187 206.857 54.6534C206.621 55.0881 206.273 55.4304 205.812 55.6804C205.352 55.9276 204.786 56.0511 204.112 56.0511H201.943V54.7514H203.899C204.291 54.7514 204.612 54.6832 204.862 54.5469C205.112 54.4105 205.297 54.223 205.416 53.9844C205.538 53.7457 205.599 53.4716 205.599 53.1619C205.599 52.8523 205.538 52.5795 205.416 52.3438C205.297 52.108 205.111 51.9247 204.858 51.794C204.608 51.6605 204.286 51.5938 203.891 51.5938H202.442V59H200.861ZM211.277 59.1278C210.637 59.1278 210.083 58.9872 209.615 58.706C209.146 58.4247 208.782 58.0312 208.524 57.5256C208.268 57.0199 208.14 56.429 208.14 55.7528C208.14 55.0767 208.268 54.4844 208.524 53.9759C208.782 53.4673 209.146 53.0724 209.615 52.7912C210.083 52.5099 210.637 52.3693 211.277 52.3693C211.916 52.3693 212.47 52.5099 212.939 52.7912C213.407 53.0724 213.77 53.4673 214.025 53.9759C214.284 54.4844 214.413 55.0767 214.413 55.7528C214.413 56.429 214.284 57.0199 214.025 57.5256C213.77 58.0312 213.407 58.4247 212.939 58.706C212.47 58.9872 211.916 59.1278 211.277 59.1278ZM211.285 57.892C211.632 57.892 211.922 57.7969 212.154 57.6065C212.387 57.4134 212.561 57.1548 212.674 56.831C212.791 56.5071 212.849 56.1463 212.849 55.7486C212.849 55.348 212.791 54.9858 212.674 54.6619C212.561 54.3352 212.387 54.0753 212.154 53.8821C211.922 53.6889 211.632 53.5923 211.285 53.5923C210.93 53.5923 210.635 53.6889 210.399 53.8821C210.166 54.0753 209.991 54.3352 209.875 54.6619C209.761 54.9858 209.704 55.348 209.704 55.7486C209.704 56.1463 209.761 56.5071 209.875 56.831C209.991 57.1548 210.166 57.4134 210.399 57.6065C210.635 57.7969 210.93 57.892 211.285 57.892ZM215.722 61.4545V52.4545H217.239V53.5369H217.329C217.408 53.3778 217.521 53.2088 217.665 53.0298C217.81 52.848 218.006 52.6932 218.254 52.5653C218.501 52.4347 218.816 52.3693 219.2 52.3693C219.705 52.3693 220.161 52.4986 220.567 52.7571C220.977 53.0128 221.3 53.392 221.539 53.8949C221.781 54.3949 221.901 55.0085 221.901 55.7358C221.901 56.4545 221.783 57.0653 221.548 57.5682C221.312 58.071 220.991 58.4545 220.585 58.7188C220.178 58.983 219.718 59.1151 219.204 59.1151C218.829 59.1151 218.518 59.0526 218.271 58.9276C218.023 58.8026 217.825 58.652 217.674 58.4759C217.526 58.2969 217.411 58.1278 217.329 57.9688H217.265V61.4545H215.722ZM217.235 55.7273C217.235 56.1506 217.295 56.5213 217.414 56.8395C217.536 57.1577 217.711 57.4062 217.938 57.5852C218.168 57.7614 218.447 57.8494 218.773 57.8494C219.114 57.8494 219.4 57.7585 219.63 57.5767C219.86 57.392 220.033 57.1406 220.15 56.8224C220.269 56.5014 220.329 56.1364 220.329 55.7273C220.329 55.321 220.271 54.9602 220.154 54.6449C220.038 54.3295 219.864 54.0824 219.634 53.9034C219.404 53.7244 219.117 53.6349 218.773 53.6349C218.444 53.6349 218.164 53.7216 217.934 53.8949C217.704 54.0682 217.529 54.3111 217.41 54.6236C217.293 54.9361 217.235 55.304 217.235 55.7273ZM227.394 56.2472V52.4545H228.937V59H227.441V57.8366H227.373C227.225 58.2031 226.982 58.5028 226.644 58.7358C226.309 58.9687 225.896 59.0852 225.404 59.0852C224.975 59.0852 224.596 58.9901 224.266 58.7997C223.94 58.6065 223.684 58.3267 223.499 57.9602C223.315 57.5909 223.222 57.1449 223.222 56.6222V52.4545H224.765V56.3835C224.765 56.7983 224.879 57.1278 225.106 57.3722C225.333 57.6165 225.631 57.7386 226.001 57.7386C226.228 57.7386 226.448 57.6832 226.661 57.5724C226.874 57.4616 227.049 57.2969 227.185 57.0781C227.325 56.8565 227.394 56.5795 227.394 56.2472ZM232.066 50.2727V59H230.523V50.2727H232.066ZM235.536 59.1321C235.121 59.1321 234.747 59.0582 234.415 58.9105C234.085 58.7599 233.824 58.5384 233.631 58.2457C233.44 57.9531 233.345 57.5923 233.345 57.1634C233.345 56.794 233.413 56.4886 233.55 56.2472C233.686 56.0057 233.872 55.8125 234.108 55.6676C234.344 55.5227 234.609 55.4134 234.905 55.3395C235.203 55.2628 235.511 55.2074 235.83 55.1733C236.213 55.1335 236.524 55.098 236.763 55.0668C237.001 55.0327 237.175 54.9815 237.283 54.9134C237.393 54.8423 237.449 54.733 237.449 54.5852V54.5597C237.449 54.2386 237.354 53.9901 237.163 53.8139C236.973 53.6378 236.699 53.5497 236.341 53.5497C235.963 53.5497 235.663 53.6321 235.442 53.7969C235.223 53.9616 235.075 54.1562 234.999 54.3807L233.558 54.1761C233.672 53.7784 233.859 53.446 234.121 53.179C234.382 52.9091 234.702 52.7074 235.08 52.5739C235.457 52.4375 235.875 52.3693 236.332 52.3693C236.648 52.3693 236.962 52.4062 237.274 52.4801C237.587 52.554 237.872 52.6761 238.131 52.8466C238.389 53.0142 238.597 53.2429 238.753 53.5327C238.912 53.8224 238.991 54.1847 238.991 54.6193V59H237.509V58.1009H237.457C237.364 58.2827 237.232 58.4531 237.061 58.6122C236.893 58.7685 236.682 58.8949 236.426 58.9915C236.173 59.0852 235.876 59.1321 235.536 59.1321ZM235.936 57.9986C236.246 57.9986 236.514 57.9375 236.741 57.8153C236.969 57.6903 237.143 57.5256 237.266 57.321C237.391 57.1165 237.453 56.8935 237.453 56.652V55.8807C237.405 55.9205 237.322 55.9574 237.206 55.9915C237.092 56.0256 236.964 56.0554 236.822 56.081C236.68 56.1065 236.54 56.1293 236.401 56.1491C236.261 56.169 236.141 56.1861 236.038 56.2003C235.808 56.2315 235.602 56.2827 235.42 56.3537C235.239 56.4247 235.095 56.5241 234.99 56.652C234.885 56.777 234.832 56.9389 234.832 57.1378C234.832 57.4219 234.936 57.6364 235.143 57.7812C235.351 57.9261 235.615 57.9986 235.936 57.9986ZM240.543 59V52.4545H242.038V53.5455H242.107C242.226 53.1676 242.43 52.8764 242.72 52.6719C243.013 52.4645 243.347 52.3608 243.722 52.3608C243.807 52.3608 243.902 52.3651 244.007 52.3736C244.115 52.3793 244.205 52.3892 244.276 52.4034V53.8224C244.21 53.7997 244.107 53.7798 243.964 53.7628C243.825 53.7429 243.69 53.733 243.56 53.733C243.278 53.733 243.026 53.794 242.801 53.9162C242.58 54.0355 242.405 54.2017 242.277 54.4148C242.149 54.6278 242.085 54.8736 242.085 55.152V59H240.543Z" fill="white"/>
</g>
<path d="M53.472 93.296C53.472 96.224 51.312 98.168 47.4 98.336V100.4H45.792V98.288C42.048 97.976 39.576 95.96 39.576 92.576H43.416C43.464 94.232 44.52 94.928 45.792 95.144V91.256L45.312 91.112C42.312 90.224 40.08 89.072 40.08 86.168C40.08 83.264 42.288 81.416 45.792 81.2V79.52H47.4V81.2C51.024 81.512 53.088 83.576 53.232 86.552H49.392C49.224 85.376 48.576 84.656 47.4 84.392V87.968C50.616 88.904 53.472 89.888 53.472 93.296ZM43.944 85.856C43.944 86.696 44.496 87.056 45.792 87.464V84.32C44.712 84.44 43.944 84.896 43.944 85.856ZM47.4 91.712V95.216C48.936 95.144 49.608 94.544 49.608 93.656C49.608 92.624 48.672 92.12 47.4 91.712ZM67.5561 98H54.7881C54.7881 94.496 56.6601 93.008 60.2601 90.32C62.0601 88.976 63.3801 87.872 63.3801 86.36C63.3801 85.088 62.7561 84.32 61.4601 84.32C59.9001 84.32 58.9641 85.184 58.9641 87.464H55.0281C55.0281 83.576 57.0921 81.032 61.5801 81.032C65.1561 81.032 67.5561 82.904 67.5561 86.072C67.5561 89.312 64.8681 91.328 62.5881 92.984C61.7961 93.56 61.0761 94.112 60.5241 94.664V94.712H67.5561V98ZM69.5381 102.008V100.328C70.5461 100.16 71.2661 99.536 71.2661 98H69.5381V94.352H73.1861V98C73.1861 100.16 71.8901 101.672 69.5381 102.008ZM81.1509 98.384C77.9349 98.384 75.5109 96.464 74.9829 93.8H79.1109C79.2309 94.376 79.7109 95.336 81.2229 95.336C83.2869 95.336 84.1749 93.776 84.1749 91.616V91.352L84.0789 91.28C83.2149 92.096 82.0389 92.72 80.2149 92.72C76.7829 92.72 74.5029 90.272 74.5029 87.104C74.5029 83.432 77.0229 81.032 81.0069 81.032C86.4789 81.032 88.2549 85.16 88.2549 89.48C88.2549 95.48 85.3989 98.384 81.1509 98.384ZM81.2469 89.672C83.0469 89.672 84.0789 88.472 84.0789 86.888C84.0789 85.28 83.0469 84.08 81.2469 84.08C79.4709 84.08 78.4389 85.28 78.4389 86.888C78.4389 88.472 79.4709 89.672 81.2469 89.672ZM96.5728 98.384C93.3568 98.384 90.9328 96.464 90.4048 93.8H94.5328C94.6528 94.376 95.1328 95.336 96.6448 95.336C98.7088 95.336 99.5968 93.776 99.5968 91.616V91.352L99.5008 91.28C98.6368 92.096 97.4608 92.72 95.6368 92.72C92.2048 92.72 89.9248 90.272 89.9248 87.104C89.9248 83.432 92.4448 81.032 96.4288 81.032C101.901 81.032 103.677 85.16 103.677 89.48C103.677 95.48 100.821 98.384 96.5728 98.384ZM96.6688 89.672C98.4688 89.672 99.5008 88.472 99.5008 86.888C99.5008 85.28 98.4688 84.08 96.6688 84.08C94.8928 84.08 93.8608 85.28 93.8608 86.888C93.8608 88.472 94.8928 89.672 96.6688 89.672ZM111.995 98.384C108.779 98.384 106.355 96.464 105.827 93.8H109.955C110.075 94.376 110.555 95.336 112.067 95.336C114.131 95.336 115.019 93.776 115.019 91.616V91.352L114.923 91.28C114.059 92.096 112.883 92.72 111.059 92.72C107.627 92.72 105.347 90.272 105.347 87.104C105.347 83.432 107.867 81.032 111.851 81.032C117.323 81.032 119.099 85.16 119.099 89.48C119.099 95.48 116.243 98.384 111.995 98.384ZM112.091 89.672C113.891 89.672 114.923 88.472 114.923 86.888C114.923 85.28 113.891 84.08 112.091 84.08C110.315 84.08 109.283 85.28 109.283 86.888C109.283 88.472 110.315 89.672 112.091 89.672Z" fill="#00928B"/>
<path d="M176.022 84.3182V94.5H174.481V85.8594H174.421L171.985 87.4503V85.9787L174.526 84.3182H176.022ZM180.142 93.108L180.068 93.6499C180.018 94.0476 179.933 94.4619 179.814 94.8928C179.698 95.3269 179.577 95.7296 179.451 96.1009C179.329 96.4721 179.227 96.767 179.148 96.9858H178.094C178.137 96.7803 178.197 96.5019 178.273 96.1506C178.349 95.8026 178.424 95.4131 178.497 94.9822C178.57 94.5514 178.624 94.1122 178.661 93.6648L178.71 93.108H180.142ZM185.397 94.669C184.612 94.6657 183.941 94.4586 183.384 94.0476C182.827 93.6366 182.401 93.0384 182.106 92.2528C181.811 91.4673 181.664 90.5211 181.664 89.4141C181.664 88.3104 181.811 87.3674 182.106 86.5852C182.404 85.803 182.832 85.2064 183.389 84.7955C183.949 84.3845 184.618 84.179 185.397 84.179C186.176 84.179 186.844 84.3861 187.401 84.8004C187.958 85.2114 188.383 85.808 188.678 86.5902C188.977 87.3691 189.126 88.3104 189.126 89.4141C189.126 90.5244 188.978 91.4723 188.683 92.2578C188.388 93.04 187.963 93.6383 187.406 94.0526C186.849 94.4635 186.179 94.669 185.397 94.669ZM185.397 93.3416C186.087 93.3416 186.625 93.0052 187.013 92.3324C187.404 91.6596 187.6 90.6868 187.6 89.4141C187.6 88.5689 187.51 87.8546 187.331 87.2713C187.155 86.6847 186.902 86.2405 186.57 85.9389C186.242 85.634 185.851 85.4815 185.397 85.4815C184.711 85.4815 184.173 85.8196 183.781 86.4957C183.39 87.1719 183.193 88.1446 183.19 89.4141C183.19 90.2625 183.278 90.9801 183.453 91.5668C183.632 92.1501 183.886 92.5926 184.214 92.8942C184.542 93.1925 184.936 93.3416 185.397 93.3416ZM194.434 94.669C193.649 94.6657 192.978 94.4586 192.421 94.0476C191.864 93.6366 191.438 93.0384 191.143 92.2528C190.848 91.4673 190.701 90.5211 190.701 89.4141C190.701 88.3104 190.848 87.3674 191.143 86.5852C191.441 85.803 191.869 85.2064 192.426 84.7955C192.986 84.3845 193.655 84.179 194.434 84.179C195.213 84.179 195.881 84.3861 196.438 84.8004C196.995 85.2114 197.421 85.808 197.716 86.5902C198.014 87.3691 198.163 88.3104 198.163 89.4141C198.163 90.5244 198.016 91.4723 197.721 92.2578C197.426 93.04 197 93.6383 196.443 94.0526C195.886 94.4635 195.217 94.669 194.434 94.669ZM194.434 93.3416C195.124 93.3416 195.662 93.0052 196.05 92.3324C196.441 91.6596 196.637 90.6868 196.637 89.4141C196.637 88.5689 196.547 87.8546 196.368 87.2713C196.193 86.6847 195.939 86.2405 195.608 85.9389C195.279 85.634 194.888 85.4815 194.434 85.4815C193.748 85.4815 193.21 85.8196 192.819 86.4957C192.427 87.1719 192.23 88.1446 192.227 89.4141C192.227 90.2625 192.315 90.9801 192.49 91.5668C192.669 92.1501 192.923 92.5926 193.251 92.8942C193.579 93.1925 193.974 93.3416 194.434 93.3416ZM203.471 94.669C202.686 94.6657 202.015 94.4586 201.458 94.0476C200.901 93.6366 200.475 93.0384 200.18 92.2528C199.885 91.4673 199.738 90.5211 199.738 89.4141C199.738 88.3104 199.885 87.3674 200.18 86.5852C200.479 85.803 200.906 85.2064 201.463 84.7955C202.023 84.3845 202.693 84.179 203.471 84.179C204.25 84.179 204.918 84.3861 205.475 84.8004C206.032 85.2114 206.458 85.808 206.753 86.5902C207.051 87.3691 207.2 88.3104 207.2 89.4141C207.2 90.5244 207.053 91.4723 206.758 92.2578C206.463 93.04 206.037 93.6383 205.48 94.0526C204.923 94.4635 204.254 94.669 203.471 94.669ZM203.471 93.3416C204.161 93.3416 204.699 93.0052 205.087 92.3324C205.478 91.6596 205.674 90.6868 205.674 89.4141C205.674 88.5689 205.584 87.8546 205.405 87.2713C205.23 86.6847 204.976 86.2405 204.645 85.9389C204.317 85.634 203.925 85.4815 203.471 85.4815C202.785 85.4815 202.247 85.8196 201.856 86.4957C201.465 87.1719 201.267 88.1446 201.264 89.4141C201.264 90.2625 201.352 90.9801 201.528 91.5668C201.706 92.1501 201.96 92.5926 202.288 92.8942C202.616 93.1925 203.011 93.3416 203.471 93.3416ZM216.253 86.8636V88.0568H212.082V86.8636H216.253ZM213.201 85.0341H214.687V92.2578C214.687 92.5462 214.73 92.7633 214.817 92.9091C214.903 93.0516 215.014 93.1494 215.15 93.2024C215.289 93.2521 215.44 93.277 215.602 93.277C215.721 93.277 215.826 93.2687 215.915 93.2521C216.005 93.2356 216.074 93.2223 216.124 93.2124L216.393 94.4403C216.306 94.4735 216.184 94.5066 216.025 94.5398C215.866 94.5762 215.667 94.5961 215.428 94.5994C215.037 94.6061 214.672 94.5365 214.334 94.3906C213.996 94.2448 213.723 94.0194 213.514 93.7145C213.305 93.4096 213.201 93.0268 213.201 92.5661V85.0341ZM221.032 94.6541C220.316 94.6541 219.692 94.4901 219.158 94.1619C218.624 93.8338 218.21 93.3748 217.915 92.7848C217.62 92.1948 217.473 91.5054 217.473 90.7166C217.473 89.9245 217.62 89.2318 217.915 88.6385C218.21 88.0452 218.624 87.5845 219.158 87.2564C219.692 86.9283 220.316 86.7642 221.032 86.7642C221.748 86.7642 222.373 86.9283 222.907 87.2564C223.44 87.5845 223.855 88.0452 224.15 88.6385C224.444 89.2318 224.592 89.9245 224.592 90.7166C224.592 91.5054 224.444 92.1948 224.15 92.7848C223.855 93.3748 223.44 93.8338 222.907 94.1619C222.373 94.4901 221.748 94.6541 221.032 94.6541ZM221.037 93.4062C221.501 93.4062 221.886 93.2836 222.191 93.0384C222.496 92.7931 222.721 92.4666 222.867 92.0589C223.016 91.6513 223.091 91.2022 223.091 90.7116C223.091 90.2244 223.016 89.777 222.867 89.3693C222.721 88.9583 222.496 88.6286 222.191 88.38C221.886 88.1314 221.501 88.0071 221.037 88.0071C220.57 88.0071 220.182 88.1314 219.874 88.38C219.569 88.6286 219.342 88.9583 219.193 89.3693C219.047 89.777 218.974 90.2244 218.974 90.7116C218.974 91.2022 219.047 91.6513 219.193 92.0589C219.342 92.4666 219.569 92.7931 219.874 93.0384C220.182 93.2836 220.57 93.4062 221.037 93.4062ZM227.618 91.9098L227.608 90.0952H227.867L230.91 86.8636H232.689L229.219 90.5426H228.986L227.618 91.9098ZM226.251 94.5V84.3182H227.738V94.5H226.251ZM231.074 94.5L228.339 90.8707L229.363 89.8317L232.898 94.5H231.074ZM237.021 94.6541C236.269 94.6541 235.621 94.4934 235.077 94.1719C234.537 93.8471 234.119 93.3913 233.824 92.8047C233.533 92.2147 233.387 91.5237 233.387 90.7315C233.387 89.9493 233.533 89.2599 233.824 88.6634C234.119 88.0668 234.53 87.6011 235.057 87.2663C235.587 86.9316 236.207 86.7642 236.917 86.7642C237.347 86.7642 237.765 86.8355 238.169 86.978C238.574 87.1205 238.937 87.3442 239.258 87.6491C239.58 87.9541 239.833 88.3501 240.019 88.8374C240.204 89.3213 240.297 89.9096 240.297 90.6023V91.1293H234.227V90.0156H238.841C238.841 89.6245 238.761 89.2782 238.602 88.9766C238.443 88.6716 238.219 88.4313 237.931 88.2557C237.646 88.08 237.311 87.9922 236.926 87.9922C236.509 87.9922 236.144 88.0949 235.833 88.3004C235.525 88.5026 235.286 88.7678 235.117 89.0959C234.951 89.4207 234.868 89.7737 234.868 90.1548V91.0249C234.868 91.5353 234.958 91.9695 235.137 92.3274C235.319 92.6854 235.573 92.9588 235.897 93.1477C236.222 93.3333 236.602 93.4261 237.036 93.4261C237.318 93.4261 237.574 93.3864 237.806 93.3068C238.038 93.224 238.239 93.1013 238.408 92.9389C238.577 92.7765 238.706 92.576 238.796 92.3374L240.203 92.5909C240.09 93.0052 239.888 93.3681 239.596 93.6797C239.308 93.9879 238.945 94.2282 238.507 94.4006C238.073 94.5696 237.578 94.6541 237.021 94.6541ZM243.433 89.9659V94.5H241.947V86.8636H243.373V88.1065H243.468C243.644 87.7022 243.919 87.3774 244.293 87.1321C244.671 86.8868 245.147 86.7642 245.72 86.7642C246.24 86.7642 246.696 86.8736 247.087 87.0923C247.478 87.3078 247.782 87.6293 247.997 88.0568C248.212 88.4844 248.32 89.013 248.32 89.6428V94.5H246.834V89.8217C246.834 89.2682 246.689 88.8357 246.401 88.5241C246.113 88.2093 245.717 88.0518 245.213 88.0518C244.868 88.0518 244.562 88.1264 244.293 88.2756C244.028 88.4247 243.818 88.6435 243.662 88.9318C243.509 89.2169 243.433 89.5616 243.433 89.9659ZM256.036 88.728L254.689 88.9666C254.632 88.7943 254.543 88.6302 254.42 88.4744C254.301 88.3187 254.139 88.1911 253.933 88.0916C253.728 87.9922 253.471 87.9425 253.162 87.9425C252.742 87.9425 252.39 88.0369 252.108 88.2259C251.827 88.4115 251.686 88.6518 251.686 88.9467C251.686 89.2019 251.78 89.4074 251.969 89.5632C252.158 89.719 252.463 89.8466 252.884 89.946L254.097 90.2244C254.8 90.3868 255.323 90.6371 255.668 90.9751C256.013 91.3132 256.185 91.7524 256.185 92.2926C256.185 92.75 256.053 93.1577 255.787 93.5156C255.526 93.8703 255.159 94.1487 254.689 94.3509C254.221 94.553 253.68 94.6541 253.063 94.6541C252.208 94.6541 251.51 94.4718 250.97 94.1072C250.43 93.7393 250.098 93.2173 249.976 92.5412L251.412 92.3224C251.502 92.697 251.686 92.9804 251.964 93.1726C252.243 93.3615 252.606 93.456 253.053 93.456C253.54 93.456 253.93 93.3549 254.221 93.1527C254.513 92.9472 254.659 92.697 254.659 92.402C254.659 92.1634 254.569 91.9628 254.39 91.8004C254.215 91.638 253.945 91.5154 253.58 91.4325L252.287 91.1491C251.575 90.9867 251.048 90.7282 250.706 90.3736C250.368 90.0189 250.199 89.5698 250.199 89.0263C250.199 88.5755 250.325 88.1811 250.577 87.843C250.829 87.505 251.177 87.2415 251.621 87.0526C252.065 86.8603 252.574 86.7642 253.148 86.7642C253.973 86.7642 254.622 86.9432 255.096 87.3011C255.57 87.6558 255.884 88.1314 256.036 88.728Z" fill="#4D5662"/>
<line x1="23" y1="127.5" x2="273" y2="127.5" stroke="#DBE5EA"/>
<path d="M44.762 169.636V153.273H45.8103V169.636H44.762ZM47.7854 158.508C47.7258 157.95 47.4743 157.515 47.0312 157.204C46.5922 156.893 46.0212 156.737 45.3181 156.737C44.8238 156.737 44.3998 156.812 44.0461 156.961C43.6924 157.11 43.4218 157.312 43.2343 157.568C43.0468 157.824 42.9509 158.116 42.9466 158.444C42.9466 158.717 43.0084 158.953 43.132 159.153C43.2599 159.354 43.4324 159.524 43.6498 159.665C43.8671 159.801 44.1079 159.916 44.3721 160.01C44.6363 160.104 44.9026 160.183 45.1711 160.246L46.3983 160.553C46.8927 160.668 47.3678 160.824 47.8238 161.02C48.284 161.216 48.6952 161.463 49.0574 161.761C49.4239 162.06 49.7137 162.42 49.9268 162.842C50.1398 163.263 50.2464 163.758 50.2464 164.325C50.2464 165.092 50.0503 165.767 49.6583 166.351C49.2662 166.93 48.6995 167.384 47.958 167.712C47.2208 168.036 46.328 168.198 45.2797 168.198C44.2613 168.198 43.377 168.04 42.627 167.725C41.8813 167.41 41.2975 166.95 40.8756 166.344C40.458 165.739 40.2322 165.002 40.1981 164.133H42.5312C42.5653 164.589 42.7059 164.968 42.953 165.271C43.2002 165.573 43.5219 165.799 43.9182 165.948C44.3188 166.097 44.7662 166.172 45.2606 166.172C45.7762 166.172 46.2279 166.095 46.6157 165.942C47.0077 165.784 47.3145 165.567 47.5361 165.29C47.7577 165.009 47.8707 164.68 47.8749 164.305C47.8707 163.964 47.7705 163.683 47.5745 163.462C47.3785 163.236 47.1036 163.048 46.7499 162.899C46.4005 162.746 45.9914 162.609 45.5226 162.49L44.0333 162.107C42.9552 161.83 42.1029 161.41 41.4765 160.847C40.8543 160.281 40.5432 159.528 40.5432 158.591C40.5432 157.82 40.752 157.144 41.1697 156.565C41.5915 155.985 42.1647 155.536 42.8891 155.216C43.6135 154.892 44.4339 154.73 45.3501 154.73C46.279 154.73 47.093 154.892 47.7918 155.216C48.4949 155.536 49.0468 155.981 49.4474 156.552C49.8479 157.119 50.0546 157.771 50.0674 158.508H47.7854ZM52.2327 168V166.287L56.7774 161.832C57.2121 161.393 57.5743 161.003 57.8641 160.662C58.1539 160.321 58.3712 159.991 58.5161 159.671C58.661 159.352 58.7334 159.011 58.7334 158.648C58.7334 158.235 58.6396 157.881 58.4521 157.587C58.2646 157.289 58.0068 157.059 57.6787 156.897C57.3506 156.735 56.9777 156.654 56.5601 156.654C56.1297 156.654 55.7526 156.744 55.4287 156.923C55.1048 157.097 54.8534 157.347 54.6744 157.67C54.4997 157.994 54.4124 158.38 54.4124 158.827H52.156C52.156 157.996 52.3456 157.274 52.7249 156.661C53.1041 156.047 53.6262 155.572 54.2909 155.235C54.96 154.898 55.727 154.73 56.5921 154.73C57.4699 154.73 58.2412 154.894 58.906 155.222C59.5708 155.55 60.0864 156 60.4529 156.571C60.8236 157.142 61.009 157.794 61.009 158.527C61.009 159.017 60.9152 159.499 60.7277 159.972C60.5402 160.445 60.21 160.969 59.7369 161.544C59.2682 162.119 58.6098 162.816 57.7618 163.634L55.5054 165.929V166.018H61.2071V168H52.2327ZM64.8634 168.141C64.4756 168.141 64.1432 168.004 63.8662 167.732C63.5892 167.459 63.4529 167.126 63.4571 166.734C63.4529 166.351 63.5892 166.023 63.8662 165.75C64.1432 165.477 64.4756 165.341 64.8634 165.341C65.2384 165.341 65.5644 165.477 65.8414 165.75C66.1226 166.023 66.2654 166.351 66.2696 166.734C66.2654 166.994 66.1972 167.231 66.0651 167.444C65.9372 167.657 65.7668 167.827 65.5537 167.955C65.3449 168.079 65.1148 168.141 64.8634 168.141ZM72.9845 154.73C73.6109 154.734 74.2203 154.845 74.8126 155.062C75.4092 155.276 75.9461 155.625 76.4234 156.111C76.9007 156.592 77.2799 157.238 77.5612 158.048C77.8424 158.857 77.983 159.859 77.983 161.052C77.9873 162.177 77.868 163.183 77.6251 164.069C77.3865 164.951 77.0434 165.697 76.596 166.306C76.1485 166.915 75.6095 167.38 74.9788 167.7C74.3481 168.019 73.6386 168.179 72.8502 168.179C72.0235 168.179 71.2906 168.017 70.6514 167.693C70.0164 167.369 69.5029 166.926 69.1109 166.364C68.7188 165.801 68.4781 165.158 68.3886 164.433H70.7217C70.841 164.953 71.0839 165.366 71.4504 165.673C71.8211 165.976 72.2877 166.127 72.8502 166.127C73.7579 166.127 74.4568 165.733 74.9468 164.945C75.4369 164.156 75.6819 163.061 75.6819 161.659H75.5924C75.3836 162.034 75.113 162.358 74.7806 162.631C74.4482 162.899 74.0711 163.106 73.6492 163.251C73.2316 163.396 72.7884 163.468 72.3197 163.468C71.5526 163.468 70.8623 163.285 70.2487 162.918C69.6393 162.552 69.1556 162.049 68.7977 161.41C68.444 160.771 68.265 160.04 68.2607 159.217C68.2607 158.365 68.4568 157.6 68.8488 156.923C69.2451 156.241 69.797 155.704 70.5044 155.312C71.2117 154.915 72.0384 154.722 72.9845 154.73ZM72.9909 156.648C72.5306 156.648 72.1151 156.761 71.7444 156.987C71.3779 157.208 71.0882 157.511 70.8751 157.894C70.6663 158.273 70.5619 158.697 70.5619 159.166C70.5661 159.631 70.6705 160.053 70.8751 160.432C71.0839 160.811 71.3673 161.112 71.7252 161.333C72.0874 161.555 72.5008 161.665 72.9653 161.665C73.3105 161.665 73.6322 161.599 73.9305 161.467C74.2288 161.335 74.4887 161.152 74.7103 160.918C74.9362 160.679 75.1109 160.408 75.2345 160.106C75.3623 159.803 75.4241 159.484 75.4198 159.147C75.4198 158.7 75.3133 158.286 75.1002 157.907C74.8914 157.528 74.6038 157.223 74.2373 156.993C73.8751 156.763 73.4596 156.648 72.9909 156.648ZM84.6563 154.73C85.2828 154.734 85.8921 154.845 86.4845 155.062C87.0811 155.276 87.618 155.625 88.0953 156.111C88.5725 156.592 88.9518 157.238 89.233 158.048C89.5143 158.857 89.6549 159.859 89.6549 161.052C89.6592 162.177 89.5399 163.183 89.297 164.069C89.0583 164.951 88.7153 165.697 88.2678 166.306C87.8204 166.915 87.2813 167.38 86.6507 167.7C86.02 168.019 85.3105 168.179 84.5221 168.179C83.6954 168.179 82.9624 168.017 82.3232 167.693C81.6883 167.369 81.1748 166.926 80.7828 166.364C80.3907 165.801 80.1499 165.158 80.0605 164.433H82.3936C82.5129 164.953 82.7558 165.366 83.1222 165.673C83.493 165.976 83.9596 166.127 84.5221 166.127C85.4298 166.127 86.1286 165.733 86.6187 164.945C87.1088 164.156 87.3538 163.061 87.3538 161.659H87.2643C87.0555 162.034 86.7849 162.358 86.4525 162.631C86.1201 162.899 85.743 163.106 85.3211 163.251C84.9035 163.396 84.4603 163.468 83.9916 163.468C83.2245 163.468 82.5342 163.285 81.9205 162.918C81.3112 162.552 80.8275 162.049 80.4695 161.41C80.1159 160.771 79.9369 160.04 79.9326 159.217C79.9326 158.365 80.1286 157.6 80.5207 156.923C80.917 156.241 81.4688 155.704 82.1762 155.312C82.8836 154.915 83.7103 154.722 84.6563 154.73ZM84.6627 156.648C84.2025 156.648 83.787 156.761 83.4163 156.987C83.0498 157.208 82.76 157.511 82.547 157.894C82.3382 158.273 82.2338 158.697 82.2338 159.166C82.238 159.631 82.3424 160.053 82.547 160.432C82.7558 160.811 83.0392 161.112 83.3971 161.333C83.7593 161.555 84.1727 161.665 84.6372 161.665C84.9823 161.665 85.3041 161.599 85.6024 161.467C85.9007 161.335 86.1606 161.152 86.3822 160.918C86.608 160.679 86.7828 160.408 86.9063 160.106C87.0342 159.803 87.096 159.484 87.0917 159.147C87.0917 158.7 86.9852 158.286 86.7721 157.907C86.5633 157.528 86.2757 157.223 85.9092 156.993C85.547 156.763 85.1315 156.648 84.6627 156.648Z" fill="#00928B"/>
<path d="M208.616 159.141V157.818H216.496V159.141H213.32V168H211.788V159.141H208.616ZM220.228 168.154C219.512 168.154 218.887 167.99 218.353 167.662C217.82 167.334 217.405 166.875 217.11 166.285C216.815 165.695 216.668 165.005 216.668 164.217C216.668 163.424 216.815 162.732 217.11 162.138C217.405 161.545 217.82 161.085 218.353 160.756C218.887 160.428 219.512 160.264 220.228 160.264C220.944 160.264 221.568 160.428 222.102 160.756C222.636 161.085 223.05 161.545 223.345 162.138C223.64 162.732 223.787 163.424 223.787 164.217C223.787 165.005 223.64 165.695 223.345 166.285C223.05 166.875 222.636 167.334 222.102 167.662C221.568 167.99 220.944 168.154 220.228 168.154ZM220.233 166.906C220.697 166.906 221.081 166.784 221.386 166.538C221.691 166.293 221.916 165.967 222.062 165.559C222.211 165.151 222.286 164.702 222.286 164.212C222.286 163.724 222.211 163.277 222.062 162.869C221.916 162.458 221.691 162.129 221.386 161.88C221.081 161.631 220.697 161.507 220.233 161.507C219.765 161.507 219.377 161.631 219.069 161.88C218.764 162.129 218.537 162.458 218.388 162.869C218.242 163.277 218.169 163.724 218.169 164.212C218.169 164.702 218.242 165.151 218.388 165.559C218.537 165.967 218.764 166.293 219.069 166.538C219.377 166.784 219.765 166.906 220.233 166.906ZM226.814 165.41L226.804 163.595H227.062L230.105 160.364H231.885L228.415 164.043H228.181L226.814 165.41ZM225.447 168V157.818H226.933V168H225.447ZM230.269 168L227.535 164.371L228.559 163.332L232.094 168H230.269ZM236.216 168.154C235.464 168.154 234.816 167.993 234.272 167.672C233.732 167.347 233.315 166.891 233.02 166.305C232.728 165.715 232.582 165.024 232.582 164.232C232.582 163.449 232.728 162.76 233.02 162.163C233.315 161.567 233.725 161.101 234.252 160.766C234.783 160.432 235.403 160.264 236.112 160.264C236.543 160.264 236.96 160.335 237.365 160.478C237.769 160.621 238.132 160.844 238.453 161.149C238.775 161.454 239.029 161.85 239.214 162.337C239.4 162.821 239.493 163.41 239.493 164.102V164.629H233.422V163.516H238.036C238.036 163.125 237.956 162.778 237.797 162.477C237.638 162.172 237.414 161.931 237.126 161.756C236.841 161.58 236.506 161.492 236.122 161.492C235.704 161.492 235.34 161.595 235.028 161.8C234.72 162.003 234.481 162.268 234.312 162.596C234.146 162.921 234.064 163.274 234.064 163.655V164.525C234.064 165.035 234.153 165.469 234.332 165.827C234.514 166.185 234.768 166.459 235.093 166.648C235.417 166.833 235.797 166.926 236.231 166.926C236.513 166.926 236.77 166.886 237.002 166.807C237.234 166.724 237.434 166.601 237.603 166.439C237.772 166.277 237.902 166.076 237.991 165.837L239.398 166.091C239.285 166.505 239.083 166.868 238.792 167.18C238.503 167.488 238.14 167.728 237.703 167.901C237.269 168.07 236.773 168.154 236.216 168.154ZM242.628 163.466V168H241.142V160.364H242.569V161.607H242.663C242.839 161.202 243.114 160.877 243.488 160.632C243.866 160.387 244.342 160.264 244.915 160.264C245.436 160.264 245.891 160.374 246.282 160.592C246.674 160.808 246.977 161.129 247.192 161.557C247.408 161.984 247.515 162.513 247.515 163.143V168H246.029V163.322C246.029 162.768 245.885 162.336 245.596 162.024C245.308 161.709 244.912 161.552 244.408 161.552C244.064 161.552 243.757 161.626 243.488 161.776C243.223 161.925 243.013 162.143 242.857 162.432C242.705 162.717 242.628 163.062 242.628 163.466ZM255.231 162.228L253.884 162.467C253.828 162.294 253.738 162.13 253.616 161.974C253.496 161.819 253.334 161.691 253.128 161.592C252.923 161.492 252.666 161.442 252.358 161.442C251.937 161.442 251.586 161.537 251.304 161.726C251.022 161.911 250.881 162.152 250.881 162.447C250.881 162.702 250.976 162.907 251.165 163.063C251.354 163.219 251.658 163.347 252.079 163.446L253.292 163.724C253.995 163.887 254.519 164.137 254.863 164.475C255.208 164.813 255.381 165.252 255.381 165.793C255.381 166.25 255.248 166.658 254.983 167.016C254.721 167.37 254.355 167.649 253.884 167.851C253.417 168.053 252.875 168.154 252.258 168.154C251.403 168.154 250.706 167.972 250.165 167.607C249.625 167.239 249.294 166.717 249.171 166.041L250.608 165.822C250.697 166.197 250.881 166.48 251.16 166.673C251.438 166.862 251.801 166.956 252.248 166.956C252.736 166.956 253.125 166.855 253.417 166.653C253.708 166.447 253.854 166.197 253.854 165.902C253.854 165.663 253.765 165.463 253.586 165.3C253.41 165.138 253.14 165.015 252.775 164.933L251.483 164.649C250.77 164.487 250.243 164.228 249.902 163.874C249.564 163.519 249.395 163.07 249.395 162.526C249.395 162.076 249.521 161.681 249.773 161.343C250.024 161.005 250.372 160.741 250.817 160.553C251.261 160.36 251.769 160.264 252.343 160.264C253.168 160.264 253.818 160.443 254.292 160.801C254.766 161.156 255.079 161.631 255.231 162.228Z" fill="#5B6878"/>
<rect x="39.5" y="186.5" width="151" height="25" rx="12.5" fill="#F0FDF2"/>
<rect x="39.5" y="186.5" width="151" height="25" rx="12.5" stroke="#BBF7C8"/>
<g clip-path="url(#clip2_1694_29763)">
<path d="M60.3563 199L60.9705 197.398C61.0379 197.222 60.9854 197.021 60.8375 196.902L59.5058 195.822L59.2364 194.127C59.2066 193.94 59.0596 193.794 58.8724 193.764L57.1776 193.494L56.0988 192.162C55.9798 192.014 55.7751 191.962 55.6027 192.029L53.9998 192.644L52.3978 192.03C52.2202 191.962 52.0216 192.016 51.9017 192.163L50.8221 193.495L49.1273 193.765C49.0363 193.78 48.9522 193.822 48.887 193.888C48.8218 193.953 48.7789 194.037 48.7642 194.128L48.4947 195.823L47.1622 196.902C47.0152 197.021 46.9618 197.222 47.0292 197.398L47.6434 199L47.0292 200.603C46.9609 200.779 47.0152 200.98 47.1622 201.099L48.4947 202.177L48.7642 203.872C48.7939 204.059 48.9401 204.206 49.1273 204.236L50.8221 204.506L51.9017 205.837C51.9597 205.909 52.0391 205.961 52.1285 205.985C52.2178 206.009 52.3125 206.004 52.3987 205.97L53.9998 205.357L55.6019 205.971C55.6519 205.99 55.7049 206 55.7585 206C55.8871 206 56.014 205.943 56.0988 205.837L57.1776 204.506L58.8724 204.236C58.9637 204.222 59.0481 204.179 59.1134 204.113C59.1788 204.048 59.2218 203.963 59.2364 203.872L59.5058 202.177L60.8375 201.099C60.9854 200.979 61.0379 200.779 60.9705 200.603L60.3563 199Z" fill="#17A238"/>
<path d="M52.6874 198.125C51.9638 198.125 51.375 197.536 51.375 196.813C51.375 196.089 51.9638 195.5 52.6874 195.5C53.411 195.5 53.9998 196.089 53.9998 196.813C53.9998 197.536 53.411 198.125 52.6874 198.125ZM52.6874 196.375C52.4459 196.375 52.2499 196.571 52.2499 196.813C52.2499 197.054 52.4459 197.25 52.6874 197.25C52.9289 197.25 53.1249 197.054 53.1249 196.813C53.1249 196.571 52.9289 196.375 52.6874 196.375ZM55.3122 202.5C54.5887 202.5 53.9998 201.911 53.9998 201.188C53.9998 200.464 54.5887 199.875 55.3122 199.875C56.0358 199.875 56.6246 200.464 56.6246 201.188C56.6246 201.911 56.0358 202.5 55.3122 202.5ZM55.3122 200.75C55.0716 200.75 54.8748 200.947 54.8748 201.188C54.8748 201.428 55.0716 201.625 55.3122 201.625C55.5528 201.625 55.7497 201.428 55.7497 201.188C55.7497 200.947 55.5528 200.75 55.3122 200.75ZM51.8125 202.5C51.7241 202.5 51.6357 202.474 51.5587 202.419C51.3619 202.278 51.3164 202.005 51.4572 201.808L55.8319 195.683C55.9728 195.486 56.2458 195.441 56.4427 195.582C56.6395 195.722 56.6841 195.996 56.5441 196.192L52.1694 202.316C52.0828 202.436 51.949 202.5 51.8125 202.5Z" fill="white"/>
</g>
<path d="M68.9716 194.273V203H67.9148V195.381H67.8636L65.733 196.795V195.722L67.9148 194.273H68.9716ZM71.277 201.21V200.341L75.1122 194.273H75.7429V195.619H75.3168L72.419 200.205V200.273H77.5838V201.21H71.277ZM75.3849 203V200.946V200.541V194.273H76.3906V203H75.3849ZM83.6296 201.364V200.903C83.6296 200.585 83.695 200.294 83.8256 200.03C83.9592 199.763 84.1523 199.55 84.4052 199.391C84.6609 199.229 84.9705 199.148 85.3342 199.148C85.7035 199.148 86.0131 199.229 86.2631 199.391C86.5131 199.55 86.7021 199.763 86.8299 200.03C86.9577 200.294 87.0217 200.585 87.0217 200.903V201.364C87.0217 201.682 86.9563 201.974 86.8256 202.241C86.6978 202.506 86.5075 202.719 86.2546 202.881C86.0046 203.04 85.6978 203.119 85.3342 203.119C84.9648 203.119 84.6538 203.04 84.4009 202.881C84.1481 202.719 83.9563 202.506 83.8256 202.241C83.695 201.974 83.6296 201.682 83.6296 201.364ZM84.4989 200.903V201.364C84.4989 201.628 84.5614 201.865 84.6864 202.075C84.8114 202.283 85.0273 202.386 85.3342 202.386C85.6325 202.386 85.8427 202.283 85.9648 202.075C86.0898 201.865 86.1523 201.628 86.1523 201.364V200.903C86.1523 200.639 86.0927 200.403 85.9734 200.196C85.854 199.986 85.641 199.881 85.3342 199.881C85.0359 199.881 84.8214 199.986 84.6907 200.196C84.5629 200.403 84.4989 200.639 84.4989 200.903ZM79.283 196.369V195.909C79.283 195.591 79.3484 195.3 79.479 195.036C79.6126 194.768 79.8058 194.555 80.0586 194.396C80.3143 194.234 80.6239 194.153 80.9876 194.153C81.3569 194.153 81.6665 194.234 81.9165 194.396C82.1665 194.555 82.3555 194.768 82.4833 195.036C82.6112 195.3 82.6751 195.591 82.6751 195.909V196.369C82.6751 196.687 82.6097 196.98 82.479 197.247C82.3512 197.511 82.1609 197.724 81.908 197.886C81.658 198.045 81.3512 198.125 80.9876 198.125C80.6183 198.125 80.3072 198.045 80.0543 197.886C79.8015 197.724 79.6097 197.511 79.479 197.247C79.3484 196.98 79.283 196.687 79.283 196.369ZM80.1523 195.909V196.369C80.1523 196.634 80.2148 196.871 80.3398 197.081C80.4648 197.288 80.6808 197.392 80.9876 197.392C81.2859 197.392 81.4961 197.288 81.6183 197.081C81.7433 196.871 81.8058 196.634 81.8058 196.369V195.909C81.8058 195.645 81.7461 195.409 81.6268 195.202C81.5075 194.991 81.2944 194.886 80.9876 194.886C80.6893 194.886 80.4748 194.991 80.3441 195.202C80.2163 195.409 80.1523 195.645 80.1523 195.909ZM79.6069 203L85.6069 194.273H86.5785L80.5785 203H79.6069ZM94.9819 203.136C94.391 203.136 93.8725 202.996 93.4265 202.714C92.9833 202.433 92.6367 202.04 92.3867 201.534C92.1396 201.028 92.016 200.437 92.016 199.761C92.016 199.08 92.1396 198.484 92.3867 197.976C92.6367 197.467 92.9833 197.072 93.4265 196.791C93.8725 196.51 94.391 196.369 94.9819 196.369C95.5728 196.369 96.0898 196.51 96.533 196.791C96.979 197.072 97.3256 197.467 97.5728 197.976C97.8228 198.484 97.9478 199.08 97.9478 199.761C97.9478 200.437 97.8228 201.028 97.5728 201.534C97.3256 202.04 96.979 202.433 96.533 202.714C96.0898 202.996 95.5728 203.136 94.9819 203.136ZM94.9819 202.233C95.4308 202.233 95.8001 202.118 96.0898 201.888C96.3796 201.658 96.5941 201.355 96.7333 200.98C96.8725 200.605 96.9421 200.199 96.9421 199.761C96.9421 199.324 96.8725 198.916 96.7333 198.538C96.5941 198.161 96.3796 197.855 96.0898 197.622C95.8001 197.389 95.4308 197.273 94.9819 197.273C94.533 197.273 94.1637 197.389 93.8739 197.622C93.5842 197.855 93.3697 198.161 93.2305 198.538C93.0913 198.916 93.0217 199.324 93.0217 199.761C93.0217 200.199 93.0913 200.605 93.2305 200.98C93.3697 201.355 93.5842 201.658 93.8739 201.888C94.1637 202.118 94.533 202.233 94.9819 202.233ZM102.398 196.455V197.307H98.8693V196.455H102.398ZM99.9261 203V195.551C99.9261 195.176 100.014 194.864 100.19 194.614C100.366 194.364 100.595 194.176 100.876 194.051C101.158 193.926 101.455 193.864 101.767 193.864C102.014 193.864 102.216 193.884 102.372 193.923C102.528 193.963 102.645 194 102.722 194.034L102.432 194.903C102.381 194.886 102.31 194.865 102.219 194.839C102.131 194.814 102.014 194.801 101.869 194.801C101.537 194.801 101.297 194.885 101.149 195.053C101.004 195.22 100.932 195.466 100.932 195.79V203H99.9261ZM106.722 196.455V197.307H103.194V196.455H106.722ZM104.25 203V195.551C104.25 195.176 104.338 194.864 104.515 194.614C104.691 194.364 104.919 194.176 105.201 194.051C105.482 193.926 105.779 193.864 106.091 193.864C106.338 193.864 106.54 193.884 106.696 193.923C106.853 193.963 106.969 194 107.046 194.034L106.756 194.903C106.705 194.886 106.634 194.865 106.543 194.839C106.455 194.814 106.338 194.801 106.194 194.801C105.861 194.801 105.621 194.885 105.473 195.053C105.328 195.22 105.256 195.466 105.256 195.79V203H104.25Z" fill="#167F2F"/>
<circle cx="115" cy="199" r="3" fill="#167F2F"/>
<path d="M127.83 196.455C127.778 196.023 127.571 195.688 127.207 195.449C126.844 195.21 126.398 195.091 125.869 195.091C125.483 195.091 125.145 195.153 124.855 195.278C124.568 195.403 124.344 195.575 124.182 195.794C124.023 196.013 123.943 196.261 123.943 196.54C123.943 196.773 123.999 196.973 124.109 197.141C124.223 197.305 124.368 197.443 124.544 197.554C124.72 197.662 124.905 197.751 125.098 197.822C125.291 197.891 125.469 197.946 125.631 197.989L126.517 198.227C126.744 198.287 126.997 198.369 127.276 198.474C127.557 198.58 127.825 198.723 128.081 198.905C128.339 199.084 128.553 199.314 128.72 199.595C128.888 199.876 128.972 200.222 128.972 200.631C128.972 201.102 128.848 201.528 128.601 201.909C128.357 202.29 127.999 202.592 127.527 202.817C127.058 203.041 126.489 203.153 125.818 203.153C125.193 203.153 124.652 203.053 124.195 202.851C123.74 202.649 123.382 202.368 123.121 202.007C122.862 201.646 122.716 201.227 122.682 200.75H123.773C123.801 201.08 123.912 201.352 124.105 201.568C124.301 201.781 124.548 201.94 124.847 202.045C125.148 202.148 125.472 202.199 125.818 202.199C126.222 202.199 126.584 202.134 126.905 202.003C127.226 201.869 127.48 201.685 127.668 201.449C127.855 201.21 127.949 200.932 127.949 200.614C127.949 200.324 127.868 200.088 127.706 199.906C127.544 199.724 127.331 199.577 127.067 199.463C126.803 199.349 126.517 199.25 126.21 199.165L125.136 198.858C124.455 198.662 123.915 198.382 123.517 198.018C123.119 197.655 122.92 197.179 122.92 196.591C122.92 196.102 123.053 195.676 123.317 195.312C123.584 194.946 123.942 194.662 124.391 194.46C124.842 194.256 125.347 194.153 125.903 194.153C126.466 194.153 126.966 194.254 127.403 194.456C127.841 194.655 128.188 194.928 128.443 195.274C128.702 195.621 128.838 196.014 128.852 196.455H127.83ZM132.499 203.153C132.084 203.153 131.708 203.075 131.37 202.919C131.032 202.76 130.763 202.531 130.564 202.233C130.365 201.932 130.266 201.568 130.266 201.142C130.266 200.767 130.34 200.463 130.488 200.23C130.635 199.994 130.833 199.81 131.08 199.676C131.327 199.543 131.6 199.443 131.898 199.378C132.199 199.31 132.502 199.256 132.806 199.216C133.203 199.165 133.526 199.126 133.773 199.101C134.023 199.072 134.205 199.026 134.319 198.96C134.435 198.895 134.493 198.781 134.493 198.619V198.585C134.493 198.165 134.378 197.838 134.148 197.605C133.921 197.372 133.576 197.256 133.113 197.256C132.632 197.256 132.256 197.361 131.983 197.571C131.711 197.781 131.519 198.006 131.408 198.244L130.453 197.903C130.624 197.506 130.851 197.196 131.135 196.974C131.422 196.75 131.735 196.594 132.073 196.506C132.414 196.415 132.749 196.369 133.078 196.369C133.289 196.369 133.53 196.395 133.803 196.446C134.078 196.494 134.344 196.595 134.6 196.749C134.858 196.902 135.073 197.134 135.243 197.443C135.414 197.753 135.499 198.168 135.499 198.688V203H134.493V202.114H134.442C134.374 202.256 134.26 202.408 134.101 202.57C133.942 202.732 133.73 202.869 133.466 202.983C133.202 203.097 132.88 203.153 132.499 203.153ZM132.652 202.25C133.05 202.25 133.385 202.172 133.658 202.016C133.934 201.859 134.141 201.658 134.28 201.411C134.422 201.163 134.493 200.903 134.493 200.631V199.71C134.451 199.761 134.357 199.808 134.212 199.851C134.07 199.891 133.905 199.926 133.718 199.957C133.533 199.986 133.353 200.011 133.176 200.034C133.003 200.054 132.863 200.071 132.755 200.085C132.493 200.119 132.249 200.175 132.022 200.251C131.797 200.325 131.615 200.437 131.476 200.588C131.34 200.736 131.272 200.937 131.272 201.193C131.272 201.543 131.401 201.807 131.659 201.986C131.921 202.162 132.252 202.25 132.652 202.25ZM142.452 196.455L140.032 203H139.009L136.589 196.455H137.68L139.487 201.67H139.555L141.362 196.455H142.452ZM146.29 203.136C145.659 203.136 145.115 202.997 144.658 202.719C144.203 202.438 143.852 202.045 143.605 201.543C143.361 201.037 143.239 200.449 143.239 199.778C143.239 199.108 143.361 198.517 143.605 198.006C143.852 197.491 144.196 197.091 144.636 196.804C145.08 196.514 145.597 196.369 146.188 196.369C146.528 196.369 146.865 196.426 147.197 196.54C147.53 196.653 147.832 196.838 148.105 197.094C148.378 197.347 148.595 197.682 148.757 198.099C148.919 198.517 149 199.031 149 199.642V200.068H143.955V199.199H147.977C147.977 198.83 147.903 198.5 147.756 198.21C147.611 197.92 147.403 197.692 147.134 197.524C146.866 197.357 146.551 197.273 146.188 197.273C145.787 197.273 145.44 197.372 145.148 197.571C144.858 197.767 144.635 198.023 144.479 198.338C144.322 198.653 144.244 198.991 144.244 199.352V199.932C144.244 200.426 144.33 200.845 144.5 201.189C144.673 201.53 144.913 201.79 145.22 201.969C145.527 202.145 145.884 202.233 146.29 202.233C146.554 202.233 146.793 202.196 147.006 202.122C147.222 202.045 147.408 201.932 147.564 201.781C147.72 201.628 147.841 201.437 147.926 201.21L148.898 201.483C148.795 201.812 148.624 202.102 148.382 202.352C148.141 202.599 147.842 202.793 147.487 202.932C147.132 203.068 146.733 203.136 146.29 203.136ZM156.462 204.091V193.182H157.161V204.091H156.462ZM158.814 196.455C158.763 196.023 158.555 195.688 158.192 195.449C157.828 195.21 157.382 195.091 156.854 195.091C156.467 195.091 156.129 195.153 155.839 195.278C155.553 195.403 155.328 195.575 155.166 195.794C155.007 196.013 154.928 196.261 154.928 196.54C154.928 196.773 154.983 196.973 155.094 197.141C155.207 197.305 155.352 197.443 155.528 197.554C155.705 197.662 155.889 197.751 156.082 197.822C156.276 197.891 156.453 197.946 156.615 197.989L157.501 198.227C157.729 198.287 157.982 198.369 158.26 198.474C158.541 198.58 158.81 198.723 159.065 198.905C159.324 199.084 159.537 199.314 159.705 199.595C159.872 199.876 159.956 200.222 159.956 200.631C159.956 201.102 159.832 201.528 159.585 201.909C159.341 202.29 158.983 202.592 158.511 202.817C158.043 203.041 157.473 203.153 156.803 203.153C156.178 203.153 155.636 203.053 155.179 202.851C154.724 202.649 154.366 202.368 154.105 202.007C153.847 201.646 153.7 201.227 153.666 200.75H154.757C154.786 201.08 154.896 201.352 155.089 201.568C155.286 201.781 155.533 201.94 155.831 202.045C156.132 202.148 156.456 202.199 156.803 202.199C157.206 202.199 157.568 202.134 157.889 202.003C158.21 201.869 158.464 201.685 158.652 201.449C158.839 201.21 158.933 200.932 158.933 200.614C158.933 200.324 158.852 200.088 158.69 199.906C158.528 199.724 158.315 199.577 158.051 199.463C157.787 199.349 157.501 199.25 157.195 199.165L156.121 198.858C155.439 198.662 154.899 198.382 154.501 198.018C154.104 197.655 153.905 197.179 153.905 196.591C153.905 196.102 154.037 195.676 154.301 195.312C154.568 194.946 154.926 194.662 155.375 194.46C155.827 194.256 156.331 194.153 156.888 194.153C157.45 194.153 157.95 194.254 158.388 194.456C158.825 194.655 159.172 194.928 159.428 195.274C159.686 195.621 159.822 196.014 159.837 196.455H158.814ZM164.267 203.119C163.767 203.119 163.317 203.02 162.917 202.821C162.516 202.622 162.195 202.349 161.953 202.003C161.712 201.656 161.58 201.261 161.557 200.818H162.58C162.62 201.213 162.799 201.54 163.117 201.798C163.438 202.054 163.821 202.182 164.267 202.182C164.625 202.182 164.944 202.098 165.222 201.93C165.503 201.763 165.723 201.533 165.882 201.24C166.044 200.945 166.125 200.611 166.125 200.239C166.125 199.858 166.042 199.518 165.874 199.22C165.709 198.919 165.482 198.682 165.192 198.509C164.902 198.335 164.571 198.247 164.199 198.244C163.932 198.241 163.658 198.283 163.377 198.368C163.096 198.45 162.864 198.557 162.682 198.688L161.694 198.568L162.222 194.273H166.756V195.21H163.108L162.801 197.784H162.853C163.032 197.642 163.256 197.524 163.526 197.43C163.796 197.337 164.077 197.29 164.37 197.29C164.904 197.29 165.38 197.418 165.797 197.673C166.218 197.926 166.547 198.273 166.786 198.713C167.027 199.153 167.148 199.656 167.148 200.222C167.148 200.778 167.023 201.276 166.773 201.713C166.526 202.148 166.185 202.491 165.75 202.744C165.316 202.994 164.821 203.119 164.267 203.119ZM171.688 203.119C171.045 203.119 170.499 202.945 170.047 202.595C169.595 202.243 169.25 201.733 169.011 201.065C168.773 200.395 168.653 199.585 168.653 198.636C168.653 197.693 168.773 196.888 169.011 196.22C169.253 195.55 169.599 195.038 170.051 194.686C170.506 194.331 171.051 194.153 171.688 194.153C172.324 194.153 172.868 194.331 173.32 194.686C173.774 195.038 174.121 195.55 174.359 196.22C174.601 196.888 174.722 197.693 174.722 198.636C174.722 199.585 174.602 200.395 174.364 201.065C174.125 201.733 173.78 202.243 173.328 202.595C172.876 202.945 172.33 203.119 171.688 203.119ZM171.688 202.182C172.324 202.182 172.818 201.875 173.17 201.261C173.523 200.648 173.699 199.773 173.699 198.636C173.699 197.881 173.618 197.237 173.456 196.706C173.297 196.175 173.067 195.77 172.766 195.491C172.467 195.213 172.108 195.074 171.688 195.074C171.057 195.074 170.564 195.385 170.209 196.007C169.854 196.626 169.676 197.503 169.676 198.636C169.676 199.392 169.756 200.034 169.915 200.562C170.074 201.091 170.303 201.493 170.601 201.768C170.902 202.044 171.264 202.182 171.688 202.182ZM179.188 203.119C178.545 203.119 177.999 202.945 177.547 202.595C177.095 202.243 176.75 201.733 176.511 201.065C176.273 200.395 176.153 199.585 176.153 198.636C176.153 197.693 176.273 196.888 176.511 196.22C176.753 195.55 177.099 195.038 177.551 194.686C178.006 194.331 178.551 194.153 179.188 194.153C179.824 194.153 180.368 194.331 180.82 194.686C181.274 195.038 181.621 195.55 181.859 196.22C182.101 196.888 182.222 197.693 182.222 198.636C182.222 199.585 182.102 200.395 181.864 201.065C181.625 201.733 181.28 202.243 180.828 202.595C180.376 202.945 179.83 203.119 179.188 203.119ZM179.188 202.182C179.824 202.182 180.318 201.875 180.67 201.261C181.023 200.648 181.199 199.773 181.199 198.636C181.199 197.881 181.118 197.237 180.956 196.706C180.797 196.175 180.567 195.77 180.266 195.491C179.967 195.213 179.608 195.074 179.188 195.074C178.557 195.074 178.064 195.385 177.709 196.007C177.354 196.626 177.176 197.503 177.176 198.636C177.176 199.392 177.256 200.034 177.415 200.562C177.574 201.091 177.803 201.493 178.101 201.768C178.402 202.044 178.764 202.182 179.188 202.182Z" fill="#167F2F"/>
<line x1="23" y1="235.5" x2="273" y2="235.5" stroke="#DBE5EA"/>
<path d="M45.2727 265.455L42.8523 272H41.8295L39.4091 265.455H40.5L42.3068 270.67H42.375L44.1818 265.455H45.2727ZM51.2365 266.92L50.3331 267.176C50.2763 267.026 50.1925 266.879 50.0817 266.737C49.9737 266.592 49.826 266.473 49.6385 266.379C49.451 266.286 49.2109 266.239 48.9183 266.239C48.5178 266.239 48.1839 266.331 47.9169 266.516C47.6527 266.697 47.5206 266.929 47.5206 267.21C47.5206 267.46 47.6115 267.658 47.7933 267.803C47.9751 267.947 48.2592 268.068 48.6456 268.165L49.6172 268.403C50.2024 268.545 50.6385 268.763 50.9254 269.055C51.2124 269.345 51.3558 269.719 51.3558 270.176C51.3558 270.551 51.2479 270.886 51.032 271.182C50.8189 271.477 50.5206 271.71 50.1371 271.881C49.7536 272.051 49.3075 272.136 48.799 272.136C48.1314 272.136 47.5788 271.991 47.1413 271.702C46.7038 271.412 46.4268 270.989 46.3104 270.432L47.2649 270.193C47.3558 270.545 47.5277 270.81 47.7805 270.986C48.0362 271.162 48.37 271.25 48.782 271.25C49.2507 271.25 49.6229 271.151 49.8984 270.952C50.1768 270.75 50.3161 270.509 50.3161 270.227C50.3161 270 50.2365 269.81 50.0774 269.656C49.9183 269.5 49.674 269.384 49.3445 269.307L48.2536 269.051C47.6541 268.909 47.2138 268.689 46.9325 268.391C46.6541 268.089 46.5149 267.713 46.5149 267.261C46.5149 266.892 46.6186 266.565 46.826 266.281C47.0362 265.997 47.3217 265.774 47.6825 265.612C48.0462 265.45 48.4581 265.369 48.9183 265.369C49.5661 265.369 50.0746 265.511 50.4439 265.795C50.8161 266.08 51.0803 266.455 51.2365 266.92ZM58.8015 273.091V262.182H59.5004V273.091H58.8015ZM61.1538 265.455C61.1026 265.023 60.8952 264.688 60.5316 264.449C60.168 264.21 59.7219 264.091 59.1935 264.091C58.8072 264.091 58.4691 264.153 58.1793 264.278C57.8924 264.403 57.668 264.575 57.506 264.794C57.3469 265.013 57.2674 265.261 57.2674 265.54C57.2674 265.773 57.3228 265.973 57.4336 266.141C57.5472 266.305 57.6921 266.443 57.8683 266.554C58.0444 266.662 58.229 266.751 58.4222 266.822C58.6154 266.891 58.793 266.946 58.9549 266.989L59.8413 267.227C60.0685 267.287 60.3214 267.369 60.5998 267.474C60.881 267.58 61.1495 267.723 61.4052 267.905C61.6637 268.084 61.8768 268.314 62.0444 268.595C62.212 268.876 62.2958 269.222 62.2958 269.631C62.2958 270.102 62.1722 270.528 61.9251 270.909C61.6808 271.29 61.3228 271.592 60.8512 271.817C60.3825 272.041 59.8129 272.153 59.1424 272.153C58.5174 272.153 57.9762 272.053 57.5188 271.851C57.0643 271.649 56.7063 271.368 56.445 271.007C56.1864 270.646 56.0401 270.227 56.006 269.75H57.0969C57.1254 270.08 57.2362 270.352 57.4293 270.568C57.6254 270.781 57.8725 270.94 58.1708 271.045C58.4719 271.148 58.7958 271.199 59.1424 271.199C59.5458 271.199 59.908 271.134 60.229 271.003C60.5501 270.869 60.8043 270.685 60.9918 270.449C61.1793 270.21 61.2731 269.932 61.2731 269.614C61.2731 269.324 61.1921 269.088 61.0302 268.906C60.8683 268.724 60.6552 268.577 60.391 268.463C60.1268 268.349 59.8413 268.25 59.5344 268.165L58.4606 267.858C57.7788 267.662 57.239 267.382 56.8413 267.018C56.4435 266.655 56.2447 266.179 56.2447 265.591C56.2447 265.102 56.3768 264.676 56.641 264.312C56.908 263.946 57.266 263.662 57.7148 263.46C58.1665 263.256 58.6708 263.153 59.2276 263.153C59.7901 263.153 60.2901 263.254 60.7276 263.456C61.1651 263.655 61.5117 263.928 61.7674 264.274C62.0259 264.621 62.1623 265.014 62.1765 265.455H61.1538ZM66.8288 272.119C66.2663 272.119 65.7649 272.023 65.3246 271.83C64.8871 271.636 64.5391 271.368 64.2805 271.024C64.0249 270.678 63.8857 270.276 63.8629 269.818H64.9368C64.9595 270.099 65.0561 270.342 65.2266 270.547C65.397 270.749 65.62 270.905 65.8956 271.016C66.1712 271.126 66.4766 271.182 66.8118 271.182C67.1868 271.182 67.5192 271.116 67.8089 270.986C68.0987 270.855 68.326 270.673 68.4908 270.44C68.6555 270.207 68.7379 269.938 68.7379 269.631C68.7379 269.31 68.6584 269.027 68.4993 268.783C68.3402 268.536 68.1072 268.342 67.8004 268.203C67.4936 268.064 67.1186 267.994 66.6754 267.994H65.9766V267.057H66.6754C67.022 267.057 67.326 266.994 67.5874 266.869C67.8516 266.744 68.0575 266.568 68.2053 266.341C68.3558 266.114 68.4311 265.847 68.4311 265.54C68.4311 265.244 68.3658 264.987 68.2351 264.768C68.1044 264.55 67.9197 264.379 67.6811 264.257C67.4453 264.135 67.1669 264.074 66.8459 264.074C66.5447 264.074 66.2607 264.129 65.9936 264.24C65.7294 264.348 65.5135 264.506 65.3459 264.713C65.1783 264.918 65.0874 265.165 65.0732 265.455H64.0504C64.0675 264.997 64.2053 264.597 64.4638 264.253C64.7223 263.906 65.0604 263.636 65.478 263.443C65.8984 263.25 66.3601 263.153 66.8629 263.153C67.4027 263.153 67.8658 263.263 68.2521 263.482C68.6385 263.697 68.9354 263.983 69.1428 264.338C69.3501 264.693 69.4538 265.077 69.4538 265.489C69.4538 265.98 69.3246 266.399 69.0661 266.746C68.8104 267.092 68.4624 267.332 68.022 267.466V267.534C68.5732 267.625 69.0036 267.859 69.3132 268.237C69.6229 268.612 69.7777 269.077 69.7777 269.631C69.7777 270.105 69.6484 270.531 69.3899 270.909C69.1342 271.284 68.7848 271.58 68.3416 271.795C67.8984 272.011 67.3942 272.119 66.8288 272.119ZM72.7681 270.807L72.6999 271.267C72.6516 271.591 72.5778 271.938 72.4783 272.307C72.3817 272.676 72.2809 273.024 72.1758 273.351C72.0707 273.678 71.984 273.938 71.9158 274.131H71.1488C71.1857 273.949 71.234 273.709 71.2937 273.411C71.3533 273.112 71.413 272.778 71.4727 272.409C71.5352 272.043 71.5863 271.668 71.6261 271.284L71.6772 270.807H72.7681ZM74.4098 270.21V269.341L78.245 263.273H78.8757V264.619H78.4496L75.5518 269.205V269.273H80.7166V270.21H74.4098ZM78.5178 272V269.946V269.541V263.273H79.5234V272H78.5178ZM85.092 263.153C85.4499 263.156 85.8079 263.224 86.1658 263.358C86.5238 263.491 86.8505 263.713 87.146 264.023C87.4414 264.33 87.6786 264.749 87.8576 265.28C88.0366 265.811 88.1261 266.477 88.1261 267.278C88.1261 268.054 88.0522 268.743 87.9045 269.345C87.7596 269.945 87.5494 270.45 87.2738 270.862C87.0011 271.274 86.6687 271.587 86.2766 271.8C85.8874 272.013 85.4471 272.119 84.9556 272.119C84.467 272.119 84.0309 272.023 83.6474 271.83C83.2667 271.634 82.9542 271.362 82.7099 271.016C82.4684 270.666 82.3136 270.261 82.2454 269.801H83.2852C83.3789 270.202 83.565 270.533 83.8434 270.794C84.1246 271.053 84.4954 271.182 84.9556 271.182C85.6289 271.182 86.1602 270.888 86.5494 270.3C86.9414 269.712 87.1374 268.881 87.1374 267.807H87.0692C86.9102 268.045 86.7212 268.251 86.5025 268.425C86.2837 268.598 86.0408 268.732 85.7738 268.825C85.5067 268.919 85.2227 268.966 84.9215 268.966C84.4215 268.966 83.9627 268.842 83.5451 268.595C83.1303 268.345 82.7979 268.003 82.5479 267.568C82.3008 267.131 82.1772 266.631 82.1772 266.068C82.1772 265.534 82.2965 265.045 82.5352 264.602C82.7766 264.156 83.1147 263.801 83.5494 263.537C83.9869 263.273 84.5011 263.145 85.092 263.153ZM85.092 264.091C84.734 264.091 84.4116 264.18 84.1246 264.359C83.8406 264.536 83.6147 264.774 83.4471 265.075C83.2823 265.374 83.1999 265.705 83.1999 266.068C83.1999 266.432 83.2795 266.763 83.4386 267.061C83.6005 267.357 83.8207 267.592 84.0991 267.768C84.3803 267.942 84.6999 268.028 85.0579 268.028C85.3278 268.028 85.5792 267.976 85.8121 267.871C86.0451 267.763 86.2482 267.616 86.4215 267.432C86.5977 267.244 86.7354 267.033 86.8349 266.797C86.9343 266.558 86.984 266.31 86.984 266.051C86.984 265.71 86.9016 265.391 86.7369 265.092C86.5749 264.794 86.3505 264.553 86.0636 264.368C85.7795 264.183 85.4556 264.091 85.092 264.091ZM92.6484 272.119C92.0064 272.119 91.4595 271.945 91.0078 271.595C90.5561 271.243 90.2109 270.733 89.9723 270.065C89.7337 269.395 89.6143 268.585 89.6143 267.636C89.6143 266.693 89.7337 265.888 89.9723 265.22C90.2138 264.55 90.5604 264.038 91.0121 263.686C91.4666 263.331 92.0121 263.153 92.6484 263.153C93.2848 263.153 93.8288 263.331 94.2805 263.686C94.7351 264.038 95.0817 264.55 95.3203 265.22C95.5618 265.888 95.6825 266.693 95.6825 267.636C95.6825 268.585 95.5632 269.395 95.3246 270.065C95.0859 270.733 94.7408 271.243 94.2891 271.595C93.8374 271.945 93.2905 272.119 92.6484 272.119ZM92.6484 271.182C93.2848 271.182 93.7791 270.875 94.1314 270.261C94.4837 269.648 94.6598 268.773 94.6598 267.636C94.6598 266.881 94.5788 266.237 94.4169 265.706C94.2578 265.175 94.0277 264.77 93.7266 264.491C93.4283 264.213 93.0689 264.074 92.6484 264.074C92.0178 264.074 91.5249 264.385 91.1697 265.007C90.8146 265.626 90.6371 266.503 90.6371 267.636C90.6371 268.392 90.7166 269.034 90.8757 269.562C91.0348 270.091 91.2635 270.493 91.5618 270.768C91.8629 271.044 92.2251 271.182 92.6484 271.182ZM102.62 272.153C102.205 272.153 101.829 272.075 101.491 271.919C101.153 271.76 100.884 271.531 100.685 271.233C100.487 270.932 100.387 270.568 100.387 270.142C100.387 269.767 100.461 269.463 100.609 269.23C100.756 268.994 100.954 268.81 101.201 268.676C101.448 268.543 101.721 268.443 102.019 268.378C102.32 268.31 102.623 268.256 102.927 268.216C103.325 268.165 103.647 268.126 103.894 268.101C104.144 268.072 104.326 268.026 104.44 267.96C104.556 267.895 104.614 267.781 104.614 267.619V267.585C104.614 267.165 104.499 266.838 104.269 266.605C104.042 266.372 103.697 266.256 103.234 266.256C102.754 266.256 102.377 266.361 102.104 266.571C101.832 266.781 101.64 267.006 101.529 267.244L100.575 266.903C100.745 266.506 100.972 266.196 101.256 265.974C101.543 265.75 101.856 265.594 102.194 265.506C102.535 265.415 102.87 265.369 103.2 265.369C103.41 265.369 103.651 265.395 103.924 265.446C104.2 265.494 104.465 265.595 104.721 265.749C104.979 265.902 105.194 266.134 105.364 266.443C105.535 266.753 105.62 267.168 105.62 267.688V272H104.614V271.114H104.563C104.495 271.256 104.381 271.408 104.222 271.57C104.063 271.732 103.852 271.869 103.587 271.983C103.323 272.097 103.001 272.153 102.62 272.153ZM102.773 271.25C103.171 271.25 103.506 271.172 103.779 271.016C104.055 270.859 104.262 270.658 104.401 270.411C104.543 270.163 104.614 269.903 104.614 269.631V268.71C104.572 268.761 104.478 268.808 104.333 268.851C104.191 268.891 104.026 268.926 103.839 268.957C103.654 268.986 103.474 269.011 103.298 269.034C103.124 269.054 102.984 269.071 102.876 269.085C102.614 269.119 102.37 269.175 102.143 269.251C101.918 269.325 101.737 269.437 101.597 269.588C101.461 269.736 101.393 269.937 101.393 270.193C101.393 270.543 101.522 270.807 101.781 270.986C102.042 271.162 102.373 271.25 102.773 271.25ZM110.302 265.455V266.307H106.91V265.455H110.302ZM107.899 263.886H108.904V270.125C108.904 270.409 108.946 270.622 109.028 270.764C109.113 270.903 109.221 270.997 109.352 271.045C109.485 271.091 109.626 271.114 109.774 271.114C109.885 271.114 109.975 271.108 110.047 271.097C110.118 271.082 110.174 271.071 110.217 271.062L110.422 271.966C110.353 271.991 110.258 272.017 110.136 272.043C110.014 272.071 109.859 272.085 109.672 272.085C109.387 272.085 109.109 272.024 108.836 271.902C108.566 271.78 108.342 271.594 108.163 271.344C107.987 271.094 107.899 270.778 107.899 270.398V263.886ZM115.326 272V263.273H116.332V266.494H116.417C116.491 266.381 116.593 266.236 116.724 266.06C116.858 265.881 117.048 265.722 117.295 265.582C117.545 265.44 117.883 265.369 118.309 265.369C118.86 265.369 119.346 265.507 119.767 265.783C120.187 266.058 120.515 266.449 120.751 266.955C120.987 267.46 121.105 268.057 121.105 268.744C121.105 269.438 120.987 270.038 120.751 270.547C120.515 271.053 120.189 271.445 119.771 271.723C119.353 271.999 118.872 272.136 118.326 272.136C117.906 272.136 117.569 272.067 117.316 271.928C117.064 271.786 116.869 271.625 116.733 271.446C116.596 271.264 116.491 271.114 116.417 270.994H116.298V272H115.326ZM116.315 268.727C116.315 269.222 116.387 269.658 116.532 270.036C116.677 270.411 116.889 270.705 117.167 270.918C117.446 271.128 117.787 271.233 118.19 271.233C118.61 271.233 118.961 271.122 119.243 270.901C119.527 270.676 119.74 270.375 119.882 269.997C120.027 269.616 120.099 269.193 120.099 268.727C120.099 268.267 120.028 267.852 119.886 267.483C119.747 267.111 119.535 266.817 119.251 266.601C118.97 266.382 118.616 266.273 118.19 266.273C117.781 266.273 117.437 266.376 117.159 266.584C116.88 266.788 116.67 267.075 116.528 267.445C116.386 267.811 116.315 268.239 116.315 268.727ZM124.569 272.153C124.154 272.153 123.778 272.075 123.44 271.919C123.102 271.76 122.833 271.531 122.635 271.233C122.436 270.932 122.336 270.568 122.336 270.142C122.336 269.767 122.41 269.463 122.558 269.23C122.706 268.994 122.903 268.81 123.15 268.676C123.397 268.543 123.67 268.443 123.968 268.378C124.27 268.31 124.572 268.256 124.876 268.216C125.274 268.165 125.596 268.126 125.843 268.101C126.093 268.072 126.275 268.026 126.389 267.96C126.505 267.895 126.564 267.781 126.564 267.619V267.585C126.564 267.165 126.449 266.838 126.218 266.605C125.991 266.372 125.646 266.256 125.183 266.256C124.703 266.256 124.326 266.361 124.054 266.571C123.781 266.781 123.589 267.006 123.478 267.244L122.524 266.903C122.694 266.506 122.922 266.196 123.206 265.974C123.493 265.75 123.805 265.594 124.143 265.506C124.484 265.415 124.819 265.369 125.149 265.369C125.359 265.369 125.6 265.395 125.873 265.446C126.149 265.494 126.414 265.595 126.67 265.749C126.929 265.902 127.143 266.134 127.314 266.443C127.484 266.753 127.569 267.168 127.569 267.688V272H126.564V271.114H126.512C126.444 271.256 126.331 271.408 126.172 271.57C126.012 271.732 125.801 271.869 125.537 271.983C125.272 272.097 124.95 272.153 124.569 272.153ZM124.723 271.25C125.12 271.25 125.456 271.172 125.728 271.016C126.004 270.859 126.211 270.658 126.35 270.411C126.493 270.163 126.564 269.903 126.564 269.631V268.71C126.521 268.761 126.427 268.808 126.282 268.851C126.14 268.891 125.975 268.926 125.788 268.957C125.603 268.986 125.423 269.011 125.247 269.034C125.074 269.054 124.933 269.071 124.825 269.085C124.564 269.119 124.319 269.175 124.092 269.251C123.868 269.325 123.686 269.437 123.547 269.588C123.41 269.736 123.342 269.937 123.342 270.193C123.342 270.543 123.471 270.807 123.73 270.986C123.991 271.162 124.322 271.25 124.723 271.25ZM134.041 266.92L133.138 267.176C133.081 267.026 132.997 266.879 132.886 266.737C132.778 266.592 132.631 266.473 132.443 266.379C132.256 266.286 132.016 266.239 131.723 266.239C131.322 266.239 130.989 266.331 130.722 266.516C130.457 266.697 130.325 266.929 130.325 267.21C130.325 267.46 130.416 267.658 130.598 267.803C130.78 267.947 131.064 268.068 131.45 268.165L132.422 268.403C133.007 268.545 133.443 268.763 133.73 269.055C134.017 269.345 134.161 269.719 134.161 270.176C134.161 270.551 134.053 270.886 133.837 271.182C133.624 271.477 133.325 271.71 132.942 271.881C132.558 272.051 132.112 272.136 131.604 272.136C130.936 272.136 130.384 271.991 129.946 271.702C129.509 271.412 129.232 270.989 129.115 270.432L130.07 270.193C130.161 270.545 130.332 270.81 130.585 270.986C130.841 271.162 131.175 271.25 131.587 271.25C132.055 271.25 132.428 271.151 132.703 270.952C132.982 270.75 133.121 270.509 133.121 270.227C133.121 270 133.041 269.81 132.882 269.656C132.723 269.5 132.479 269.384 132.149 269.307L131.058 269.051C130.459 268.909 130.018 268.689 129.737 268.391C129.459 268.089 129.32 267.713 129.32 267.261C129.32 266.892 129.423 266.565 129.631 266.281C129.841 265.997 130.126 265.774 130.487 265.612C130.851 265.45 131.263 265.369 131.723 265.369C132.371 265.369 132.879 265.511 133.249 265.795C133.621 266.08 133.885 266.455 134.041 266.92ZM138.419 272.136C137.788 272.136 137.244 271.997 136.787 271.719C136.332 271.438 135.981 271.045 135.734 270.543C135.49 270.037 135.368 269.449 135.368 268.778C135.368 268.108 135.49 267.517 135.734 267.006C135.981 266.491 136.325 266.091 136.765 265.804C137.208 265.514 137.725 265.369 138.316 265.369C138.657 265.369 138.994 265.426 139.326 265.54C139.659 265.653 139.961 265.838 140.234 266.094C140.507 266.347 140.724 266.682 140.886 267.099C141.048 267.517 141.129 268.031 141.129 268.642V269.068H136.083V268.199H140.106C140.106 267.83 140.032 267.5 139.885 267.21C139.74 266.92 139.532 266.692 139.262 266.524C138.995 266.357 138.68 266.273 138.316 266.273C137.916 266.273 137.569 266.372 137.277 266.571C136.987 266.767 136.764 267.023 136.608 267.338C136.451 267.653 136.373 267.991 136.373 268.352V268.932C136.373 269.426 136.458 269.845 136.629 270.189C136.802 270.53 137.042 270.79 137.349 270.969C137.656 271.145 138.012 271.233 138.419 271.233C138.683 271.233 138.922 271.196 139.135 271.122C139.35 271.045 139.537 270.932 139.693 270.781C139.849 270.628 139.97 270.437 140.055 270.21L141.027 270.483C140.924 270.812 140.752 271.102 140.511 271.352C140.27 271.599 139.971 271.793 139.616 271.932C139.261 272.068 138.862 272.136 138.419 272.136ZM146.034 274.455V265.455H147.005V266.494H147.125C147.199 266.381 147.301 266.236 147.431 266.06C147.565 265.881 147.755 265.722 148.002 265.582C148.252 265.44 148.591 265.369 149.017 265.369C149.568 265.369 150.054 265.507 150.474 265.783C150.895 266.058 151.223 266.449 151.458 266.955C151.694 267.46 151.812 268.057 151.812 268.744C151.812 269.438 151.694 270.038 151.458 270.547C151.223 271.053 150.896 271.445 150.478 271.723C150.061 271.999 149.579 272.136 149.034 272.136C148.613 272.136 148.277 272.067 148.024 271.928C147.771 271.786 147.576 271.625 147.44 271.446C147.304 271.264 147.199 271.114 147.125 270.994H147.039V274.455H146.034ZM147.022 268.727C147.022 269.222 147.095 269.658 147.24 270.036C147.385 270.411 147.596 270.705 147.875 270.918C148.153 271.128 148.494 271.233 148.897 271.233C149.318 271.233 149.669 271.122 149.95 270.901C150.234 270.676 150.447 270.375 150.589 269.997C150.734 269.616 150.806 269.193 150.806 268.727C150.806 268.267 150.735 267.852 150.593 267.483C150.454 267.111 150.243 266.817 149.958 266.601C149.677 266.382 149.324 266.273 148.897 266.273C148.488 266.273 148.145 266.376 147.866 266.584C147.588 266.788 147.377 267.075 147.235 267.445C147.093 267.811 147.022 268.239 147.022 268.727ZM153.346 272V265.455H154.318V266.443H154.386C154.505 266.119 154.721 265.857 155.034 265.655C155.346 265.453 155.699 265.352 156.091 265.352C156.164 265.352 156.257 265.354 156.368 265.357C156.478 265.359 156.562 265.364 156.619 265.369V266.392C156.585 266.384 156.507 266.371 156.385 266.354C156.265 266.334 156.139 266.324 156.005 266.324C155.687 266.324 155.403 266.391 155.153 266.524C154.906 266.655 154.71 266.837 154.565 267.07C154.423 267.3 154.352 267.562 154.352 267.858V272H153.346ZM157.811 272V265.455H158.817V272H157.811ZM158.322 264.364C158.126 264.364 157.957 264.297 157.815 264.163C157.676 264.03 157.607 263.869 157.607 263.682C157.607 263.494 157.676 263.334 157.815 263.2C157.957 263.067 158.126 263 158.322 263C158.518 263 158.686 263.067 158.825 263.2C158.967 263.334 159.038 263.494 159.038 263.682C159.038 263.869 158.967 264.03 158.825 264.163C158.686 264.297 158.518 264.364 158.322 264.364ZM163.318 272.136C162.704 272.136 162.176 271.991 161.733 271.702C161.289 271.412 160.949 271.013 160.71 270.504C160.471 269.996 160.352 269.415 160.352 268.761C160.352 268.097 160.474 267.51 160.718 267.001C160.966 266.49 161.309 266.091 161.75 265.804C162.193 265.514 162.71 265.369 163.301 265.369C163.761 265.369 164.176 265.455 164.545 265.625C164.914 265.795 165.217 266.034 165.453 266.341C165.689 266.648 165.835 267.006 165.892 267.415H164.886C164.809 267.116 164.639 266.852 164.375 266.622C164.113 266.389 163.761 266.273 163.318 266.273C162.926 266.273 162.582 266.375 162.287 266.58C161.994 266.781 161.765 267.067 161.6 267.436C161.439 267.803 161.358 268.233 161.358 268.727C161.358 269.233 161.437 269.673 161.596 270.048C161.758 270.423 161.985 270.714 162.278 270.922C162.574 271.129 162.92 271.233 163.318 271.233C163.579 271.233 163.816 271.188 164.029 271.097C164.243 271.006 164.423 270.875 164.571 270.705C164.718 270.534 164.824 270.33 164.886 270.091H165.892C165.835 270.477 165.694 270.825 165.47 271.135C165.248 271.442 164.954 271.686 164.588 271.868C164.224 272.047 163.801 272.136 163.318 272.136ZM170.106 272.136C169.475 272.136 168.931 271.997 168.474 271.719C168.02 271.438 167.669 271.045 167.422 270.543C167.177 270.037 167.055 269.449 167.055 268.778C167.055 268.108 167.177 267.517 167.422 267.006C167.669 266.491 168.012 266.091 168.453 265.804C168.896 265.514 169.413 265.369 170.004 265.369C170.345 265.369 170.681 265.426 171.014 265.54C171.346 265.653 171.649 265.838 171.922 266.094C172.194 266.347 172.412 266.682 172.574 267.099C172.735 267.517 172.816 268.031 172.816 268.642V269.068H167.771V268.199H171.794C171.794 267.83 171.72 267.5 171.572 267.21C171.427 266.92 171.22 266.692 170.95 266.524C170.683 266.357 170.368 266.273 170.004 266.273C169.603 266.273 169.257 266.372 168.964 266.571C168.674 266.767 168.451 267.023 168.295 267.338C168.139 267.653 168.061 267.991 168.061 268.352V268.932C168.061 269.426 168.146 269.845 168.316 270.189C168.49 270.53 168.73 270.79 169.037 270.969C169.343 271.145 169.7 271.233 170.106 271.233C170.37 271.233 170.609 271.196 170.822 271.122C171.038 271.045 171.224 270.932 171.38 270.781C171.537 270.628 171.657 270.437 171.743 270.21L172.714 270.483C172.612 270.812 172.44 271.102 172.199 271.352C171.957 271.599 171.659 271.793 171.304 271.932C170.949 272.068 170.549 272.136 170.106 272.136Z" fill="#066966"/>
<g filter="url(#filter1_d_1694_29763)">
<rect x="39" y="288" width="218" height="40" rx="20" fill="#00A89D"/>
<rect x="39.5" y="288.5" width="217" height="39" rx="19.5" stroke="#15ECD7"/>
<path d="M79.0043 313V302.818H82.8224C83.6046 302.818 84.2609 302.964 84.7912 303.256C85.3248 303.547 85.7275 303.948 85.9993 304.459C86.2744 304.966 86.4119 305.543 86.4119 306.189C86.4119 306.842 86.2744 307.422 85.9993 307.929C85.7242 308.436 85.3182 308.835 84.7812 309.127C84.2443 309.415 83.5831 309.56 82.7976 309.56H80.267V308.043H82.549C83.0064 308.043 83.3809 307.964 83.6726 307.805C83.9643 307.646 84.1797 307.427 84.3189 307.148C84.4614 306.87 84.5327 306.55 84.5327 306.189C84.5327 305.828 84.4614 305.509 84.3189 305.234C84.1797 304.959 83.9626 304.746 83.6676 304.593C83.3759 304.437 82.9998 304.359 82.5391 304.359H80.8487V313H79.0043ZM92.8017 309.788V305.364H94.6014V313H92.8564V311.643H92.7768C92.6045 312.07 92.3211 312.42 91.9267 312.692C91.5356 312.964 91.0533 313.099 90.4799 313.099C89.9795 313.099 89.537 312.988 89.1525 312.766C88.7714 312.541 88.4731 312.214 88.2576 311.787C88.0422 311.356 87.9345 310.836 87.9345 310.226V305.364H89.7342V309.947C89.7342 310.431 89.8668 310.816 90.1319 311.101C90.3971 311.386 90.7451 311.528 91.176 311.528C91.4411 311.528 91.698 311.464 91.9466 311.335C92.1951 311.205 92.399 311.013 92.5581 310.758C92.7205 310.499 92.8017 310.176 92.8017 309.788ZM96.4521 313V305.364H98.1971V306.636H98.2766C98.4158 306.196 98.6545 305.856 98.9925 305.617C99.3339 305.375 99.7234 305.254 100.161 305.254C100.26 305.254 100.371 305.259 100.494 305.269C100.62 305.276 100.724 305.287 100.807 305.304V306.96C100.731 306.933 100.61 306.91 100.444 306.89C100.282 306.867 100.124 306.855 99.9719 306.855C99.6438 306.855 99.3488 306.926 99.087 307.069C98.8285 307.208 98.6246 307.402 98.4755 307.651C98.3263 307.899 98.2518 308.186 98.2518 308.511V313H96.4521ZM105.019 313.149C104.257 313.149 103.602 312.982 103.056 312.647C102.512 312.312 102.093 311.85 101.798 311.26C101.506 310.667 101.36 309.984 101.36 309.212C101.36 308.436 101.509 307.752 101.808 307.158C102.106 306.562 102.527 306.098 103.07 305.766C103.617 305.432 104.264 305.264 105.009 305.264C105.629 305.264 106.178 305.379 106.655 305.607C107.136 305.833 107.518 306.152 107.803 306.567C108.088 306.978 108.251 307.458 108.291 308.009H106.57C106.501 307.641 106.335 307.334 106.073 307.089C105.815 306.84 105.468 306.716 105.034 306.716C104.666 306.716 104.343 306.815 104.065 307.014C103.786 307.21 103.569 307.491 103.414 307.859C103.261 308.227 103.185 308.668 103.185 309.182C103.185 309.702 103.261 310.15 103.414 310.524C103.566 310.895 103.78 311.182 104.055 311.384C104.333 311.583 104.66 311.683 105.034 311.683C105.299 311.683 105.536 311.633 105.745 311.533C105.957 311.431 106.135 311.283 106.277 311.091C106.42 310.899 106.517 310.665 106.57 310.39H108.291C108.248 310.93 108.088 311.409 107.813 311.827C107.538 312.241 107.164 312.566 106.69 312.801C106.216 313.033 105.659 313.149 105.019 313.149ZM111.568 308.526V313H109.768V302.818H111.528V306.661H111.618C111.797 306.23 112.074 305.891 112.448 305.642C112.826 305.39 113.307 305.264 113.89 305.264C114.42 305.264 114.883 305.375 115.277 305.597C115.671 305.819 115.976 306.144 116.192 306.572C116.411 306.999 116.52 307.521 116.52 308.138V313H114.72V308.416C114.72 307.902 114.588 307.503 114.322 307.218C114.061 306.93 113.693 306.786 113.219 306.786C112.901 306.786 112.616 306.855 112.364 306.994C112.115 307.13 111.92 307.327 111.777 307.586C111.638 307.844 111.568 308.158 111.568 308.526ZM120.552 313.154C120.068 313.154 119.632 313.068 119.244 312.896C118.86 312.72 118.555 312.461 118.33 312.12C118.107 311.779 117.996 311.358 117.996 310.857C117.996 310.426 118.076 310.07 118.235 309.788C118.394 309.507 118.611 309.281 118.886 309.112C119.161 308.943 119.471 308.816 119.816 308.729C120.164 308.64 120.524 308.575 120.895 308.536C121.342 308.489 121.705 308.448 121.984 308.411C122.262 308.371 122.464 308.312 122.59 308.232C122.719 308.149 122.784 308.022 122.784 307.849V307.82C122.784 307.445 122.673 307.155 122.451 306.95C122.229 306.744 121.909 306.641 121.491 306.641C121.051 306.641 120.701 306.737 120.442 306.93C120.187 307.122 120.015 307.349 119.925 307.611L118.245 307.372C118.378 306.908 118.596 306.52 118.901 306.209C119.206 305.894 119.579 305.659 120.02 305.503C120.461 305.344 120.948 305.264 121.482 305.264C121.849 305.264 122.216 305.307 122.58 305.393C122.945 305.48 123.278 305.622 123.58 305.821C123.881 306.017 124.123 306.283 124.305 306.621C124.491 306.96 124.584 307.382 124.584 307.889V313H122.854V311.951H122.794C122.685 312.163 122.531 312.362 122.332 312.548C122.136 312.73 121.889 312.877 121.591 312.99C121.296 313.099 120.95 313.154 120.552 313.154ZM121.019 311.832C121.38 311.832 121.694 311.76 121.959 311.618C122.224 311.472 122.428 311.28 122.57 311.041C122.716 310.803 122.789 310.542 122.789 310.261V309.361C122.733 309.407 122.637 309.45 122.501 309.49C122.368 309.53 122.219 309.565 122.053 309.594C121.888 309.624 121.723 309.651 121.561 309.674C121.399 309.697 121.258 309.717 121.138 309.734C120.87 309.77 120.63 309.83 120.418 309.913C120.205 309.996 120.038 310.112 119.915 310.261C119.793 310.406 119.732 310.595 119.732 310.827C119.732 311.159 119.853 311.409 120.094 311.578C120.336 311.747 120.645 311.832 121.019 311.832ZM132.429 307.382L130.788 307.561C130.742 307.395 130.661 307.24 130.545 307.094C130.432 306.948 130.28 306.83 130.087 306.741C129.895 306.651 129.66 306.607 129.381 306.607C129.007 306.607 128.692 306.688 128.437 306.85C128.185 307.013 128.061 307.223 128.064 307.482C128.061 307.704 128.142 307.884 128.308 308.023C128.477 308.163 128.755 308.277 129.143 308.366L130.445 308.645C131.168 308.801 131.705 309.048 132.056 309.386C132.411 309.724 132.59 310.166 132.593 310.713C132.59 311.194 132.449 311.618 132.17 311.986C131.895 312.35 131.513 312.635 131.022 312.841C130.531 313.046 129.968 313.149 129.332 313.149C128.397 313.149 127.645 312.954 127.075 312.562C126.504 312.168 126.165 311.62 126.055 310.917L127.81 310.748C127.89 311.093 128.059 311.353 128.317 311.528C128.576 311.704 128.912 311.792 129.327 311.792C129.754 311.792 130.097 311.704 130.356 311.528C130.618 311.353 130.749 311.136 130.749 310.877C130.749 310.658 130.664 310.478 130.495 310.335C130.329 310.193 130.071 310.083 129.719 310.007L128.417 309.734C127.684 309.581 127.143 309.324 126.791 308.963C126.44 308.598 126.266 308.138 126.269 307.581C126.266 307.11 126.393 306.703 126.652 306.358C126.914 306.01 127.277 305.741 127.741 305.553C128.208 305.36 128.747 305.264 129.357 305.264C130.251 305.264 130.956 305.455 131.469 305.836C131.987 306.217 132.306 306.732 132.429 307.382ZM137.458 313.149C136.692 313.149 136.031 312.99 135.474 312.672C134.921 312.35 134.495 311.896 134.196 311.31C133.898 310.72 133.749 310.025 133.749 309.227C133.749 308.441 133.898 307.752 134.196 307.158C134.498 306.562 134.919 306.098 135.459 305.766C135.999 305.432 136.634 305.264 137.363 305.264C137.834 305.264 138.278 305.34 138.696 305.493C139.117 305.642 139.488 305.874 139.809 306.189C140.134 306.504 140.389 306.905 140.575 307.392C140.761 307.876 140.853 308.453 140.853 309.122V309.674H134.594V308.461H139.128C139.125 308.116 139.05 307.81 138.904 307.541C138.759 307.269 138.555 307.056 138.293 306.9C138.034 306.744 137.733 306.666 137.388 306.666C137.02 306.666 136.697 306.756 136.419 306.935C136.14 307.11 135.923 307.342 135.767 307.631C135.615 307.916 135.537 308.229 135.534 308.57V309.629C135.534 310.073 135.615 310.455 135.777 310.773C135.94 311.088 136.167 311.33 136.458 311.499C136.75 311.664 137.092 311.747 137.483 311.747C137.744 311.747 137.981 311.711 138.194 311.638C138.406 311.562 138.59 311.451 138.745 311.305C138.901 311.159 139.019 310.978 139.098 310.763L140.779 310.952C140.673 311.396 140.471 311.784 140.172 312.115C139.877 312.443 139.499 312.698 139.039 312.881C138.578 313.06 138.051 313.149 137.458 313.149ZM145.481 304.364V302.818H153.604V304.364H150.457V313H148.628V304.364H145.481ZM157.314 313.149C156.569 313.149 155.922 312.985 155.375 312.657C154.828 312.329 154.404 311.87 154.103 311.28C153.804 310.69 153.655 310 153.655 309.212C153.655 308.423 153.804 307.732 154.103 307.138C154.404 306.545 154.828 306.085 155.375 305.756C155.922 305.428 156.569 305.264 157.314 305.264C158.06 305.264 158.706 305.428 159.253 305.756C159.8 306.085 160.223 306.545 160.521 307.138C160.823 307.732 160.973 308.423 160.973 309.212C160.973 310 160.823 310.69 160.521 311.28C160.223 311.87 159.8 312.329 159.253 312.657C158.706 312.985 158.06 313.149 157.314 313.149ZM157.324 311.707C157.729 311.707 158.067 311.596 158.338 311.374C158.61 311.149 158.812 310.847 158.945 310.469C159.081 310.092 159.149 309.671 159.149 309.207C159.149 308.739 159.081 308.317 158.945 307.939C158.812 307.558 158.61 307.254 158.338 307.029C158.067 306.804 157.729 306.691 157.324 306.691C156.91 306.691 156.565 306.804 156.29 307.029C156.018 307.254 155.815 307.558 155.679 307.939C155.546 308.317 155.48 308.739 155.48 309.207C155.48 309.671 155.546 310.092 155.679 310.469C155.815 310.847 156.018 311.149 156.29 311.374C156.565 311.596 156.91 311.707 157.324 311.707ZM164.142 310.604L164.137 308.431H164.425L167.169 305.364H169.272L165.896 309.122H165.524L164.142 310.604ZM162.501 313V302.818H164.301V313H162.501ZM167.294 313L164.808 309.525L166.021 308.257L169.446 313H167.294ZM173.538 313.149C172.772 313.149 172.111 312.99 171.554 312.672C171.001 312.35 170.575 311.896 170.276 311.31C169.978 310.72 169.829 310.025 169.829 309.227C169.829 308.441 169.978 307.752 170.276 307.158C170.578 306.562 170.999 306.098 171.539 305.766C172.079 305.432 172.714 305.264 173.443 305.264C173.914 305.264 174.358 305.34 174.776 305.493C175.197 305.642 175.568 305.874 175.889 306.189C176.214 306.504 176.469 306.905 176.655 307.392C176.841 307.876 176.933 308.453 176.933 309.122V309.674H170.674V308.461H175.208C175.205 308.116 175.13 307.81 174.985 307.541C174.839 307.269 174.635 307.056 174.373 306.9C174.115 306.744 173.813 306.666 173.468 306.666C173.1 306.666 172.777 306.756 172.499 306.935C172.22 307.11 172.003 307.342 171.847 307.631C171.695 307.916 171.617 308.229 171.614 308.57V309.629C171.614 310.073 171.695 310.455 171.857 310.773C172.02 311.088 172.247 311.33 172.539 311.499C172.83 311.664 173.172 311.747 173.563 311.747C173.825 311.747 174.061 311.711 174.274 311.638C174.486 311.562 174.67 311.451 174.825 311.305C174.981 311.159 175.099 310.978 175.178 310.763L176.859 310.952C176.753 311.396 176.551 311.784 176.252 312.115C175.957 312.443 175.579 312.698 175.119 312.881C174.658 313.06 174.131 313.149 173.538 313.149ZM180.256 308.526V313H178.456V305.364H180.176V306.661H180.266C180.441 306.234 180.721 305.894 181.106 305.642C181.494 305.39 181.973 305.264 182.543 305.264C183.07 305.264 183.529 305.377 183.92 305.602C184.314 305.828 184.619 306.154 184.835 306.582C185.053 307.009 185.161 307.528 185.158 308.138V313H183.358V308.416C183.358 307.906 183.225 307.506 182.96 307.218C182.698 306.93 182.335 306.786 181.871 306.786C181.557 306.786 181.277 306.855 181.031 306.994C180.789 307.13 180.599 307.327 180.46 307.586C180.324 307.844 180.256 308.158 180.256 308.526ZM193.023 307.382L191.382 307.561C191.336 307.395 191.254 307.24 191.138 307.094C191.026 306.948 190.873 306.83 190.681 306.741C190.489 306.651 190.254 306.607 189.975 306.607C189.601 306.607 189.286 306.688 189.031 306.85C188.779 307.013 188.654 307.223 188.658 307.482C188.654 307.704 188.736 307.884 188.901 308.023C189.07 308.163 189.349 308.277 189.737 308.366L191.039 308.645C191.762 308.801 192.299 309.048 192.65 309.386C193.004 309.724 193.183 310.166 193.187 310.713C193.183 311.194 193.043 311.618 192.764 311.986C192.489 312.35 192.106 312.635 191.616 312.841C191.125 313.046 190.562 313.149 189.925 313.149C188.991 313.149 188.238 312.954 187.668 312.562C187.098 312.168 186.759 311.62 186.649 310.917L188.404 310.748C188.484 311.093 188.653 311.353 188.911 311.528C189.17 311.704 189.506 311.792 189.92 311.792C190.348 311.792 190.691 311.704 190.95 311.528C191.211 311.353 191.342 311.136 191.342 310.877C191.342 310.658 191.258 310.478 191.089 310.335C190.923 310.193 190.665 310.083 190.313 310.007L189.011 309.734C188.278 309.581 187.736 309.324 187.385 308.963C187.034 308.598 186.86 308.138 186.863 307.581C186.86 307.11 186.987 306.703 187.246 306.358C187.508 306.01 187.871 305.741 188.335 305.553C188.802 305.36 189.34 305.264 189.95 305.264C190.845 305.264 191.549 305.455 192.063 305.836C192.58 306.217 192.9 306.732 193.023 307.382Z" fill="white"/>
<path d="M211.62 303.953L215.667 308L211.62 312.046" stroke="white" stroke-width="1.5" stroke-miterlimit="10" stroke-linecap="round" stroke-linejoin="round"/>
<path d="M204.333 308H215.553" stroke="white" stroke-width="1.5" stroke-miterlimit="10" stroke-linecap="round" stroke-linejoin="round"/>
</g>
</g>
<rect x="21.5" y="21.5" width="253" height="328" rx="25.5" stroke="url(#paint0_linear_1694_29763)" stroke-width="3"/>
</g>
<defs>
<filter id="filter0_d_1694_29763" x="0" y="0" width="304" height="379" filterUnits="userSpaceOnUse" color-interpolation-filters="sRGB">
<feFlood flood-opacity="0" result="BackgroundImageFix"/>
<feColorMatrix in="SourceAlpha" type="matrix" values="0 0 0 0 0 0 0 0 0 0 0 0 0 0 0 0 0 0 127 0" result="hardAlpha"/>
<feOffset dx="4" dy="4"/>
<feGaussianBlur stdDeviation="12"/>
<feComposite in2="hardAlpha" operator="out"/>
<feColorMatrix type="matrix" values="0 0 0 0 0 0 0 0 0 0 0 0 0 0 0 0 0 0 0.05 0"/>
<feBlend mode="normal" in2="BackgroundImageFix" result="effect1_dropShadow_1694_29763"/>
<feBlend mode="normal" in="SourceGraphic" in2="effect1_dropShadow_1694_29763" result="shape"/>
</filter>
<filter id="filter1_d_1694_29763" x="21" y="270" width="266" height="88" filterUnits="userSpaceOnUse" color-interpolation-filters="sRGB">
<feFlood flood-opacity="0" result="BackgroundImageFix"/>
<feColorMatrix in="SourceAlpha" type="matrix" values="0 0 0 0 0 0 0 0 0 0 0 0 0 0 0 0 0 0 127 0" result="hardAlpha"/>
<feOffset dx="6" dy="6"/>
<feGaussianBlur stdDeviation="12"/>
<feComposite in2="hardAlpha" operator="out"/>
<feColorMatrix type="matrix" values="0 0 0 0 0 0 0 0 0 0.815686 0 0 0 0 0.74902 0 0 0 0.08 0"/>
<feBlend mode="normal" in2="BackgroundImageFix" result="effect1_dropShadow_1694_29763"/>
<feBlend mode="normal" in="SourceGraphic" in2="effect1_dropShadow_1694_29763" result="shape"/>
</filter>
<linearGradient id="paint0_linear_1694_29763" x1="148" y1="23" x2="148" y2="348" gradientUnits="userSpaceOnUse">
<stop stop-color="#0A5753"/>
<stop offset="1" stop-color="#EBF1F4"/>
</linearGradient>
<clipPath id="clip0_1694_29763">
<rect x="23" y="23" width="250" height="325" rx="24" fill="white"/>
</clipPath>
<clipPath id="clip1_1694_29763">
<rect x="188" y="43" width="69" height="24" rx="12" fill="white"/>
</clipPath>
<clipPath id="clip2_1694_29763">
<rect width="14" height="14" fill="white" transform="translate(47 192)"/>
</clipPath>
</defs>
</svg>
