<svg width="298" height="377" viewBox="0 0 298 377" fill="none" xmlns="http://www.w3.org/2000/svg">
<g filter="url(#filter0_d_1694_29699)">
<g clip-path="url(#clip0_1694_29699)">
<rect x="20" y="20" width="250" height="329" rx="24" fill="white"/>
<path d="M36.5682 44.392V42.3636H46.125V44.392H42.5625V54H40.1307V44.392H36.5682ZM46.7472 54V45.2727H49.0938V46.7955H49.1847C49.3438 46.2538 49.6108 45.8447 49.9858 45.5682C50.3608 45.2879 50.7926 45.1477 51.2812 45.1477C51.4025 45.1477 51.5331 45.1553 51.6733 45.1705C51.8134 45.1856 51.9366 45.2064 52.0426 45.233V47.3807C51.929 47.3466 51.7718 47.3163 51.571 47.2898C51.3703 47.2633 51.1866 47.25 51.0199 47.25C50.6638 47.25 50.3456 47.3277 50.0653 47.483C49.7888 47.6345 49.5691 47.8466 49.4062 48.1193C49.2472 48.392 49.1676 48.7064 49.1676 49.0625V54H46.7472ZM55.5327 54.1648C54.9759 54.1648 54.4796 54.0682 54.044 53.875C53.6084 53.678 53.2637 53.3883 53.0099 53.0057C52.7599 52.6193 52.6349 52.1383 52.6349 51.5625C52.6349 51.0777 52.724 50.6705 52.902 50.3409C53.08 50.0114 53.3224 49.7462 53.6293 49.5455C53.9361 49.3447 54.2846 49.1932 54.6747 49.0909C55.0687 48.9886 55.4815 48.9167 55.9134 48.875C56.4209 48.822 56.83 48.7727 57.1406 48.7273C57.4512 48.678 57.6766 48.6061 57.8168 48.5114C57.9569 48.4167 58.027 48.2765 58.027 48.0909V48.0568C58.027 47.697 57.9134 47.4186 57.6861 47.2216C57.4626 47.0246 57.1444 46.9261 56.7315 46.9261C56.2959 46.9261 55.9493 47.0227 55.6918 47.2159C55.4342 47.4053 55.2637 47.6439 55.1804 47.9318L52.9418 47.75C53.0554 47.2197 53.2789 46.7614 53.6122 46.375C53.9455 45.9848 54.3755 45.6856 54.902 45.4773C55.4323 45.2652 56.0459 45.1591 56.7429 45.1591C57.2277 45.1591 57.6918 45.2159 58.1349 45.3295C58.5819 45.4432 58.9777 45.6193 59.3224 45.858C59.6709 46.0966 59.9455 46.4034 60.1463 46.7784C60.3471 47.1496 60.4474 47.5947 60.4474 48.1136V54H58.152V52.7898H58.0838C57.9437 53.0625 57.7562 53.303 57.5213 53.5114C57.2865 53.7159 57.0043 53.8769 56.6747 53.9943C56.3452 54.108 55.9645 54.1648 55.5327 54.1648ZM56.2259 52.4943C56.5819 52.4943 56.8963 52.4242 57.169 52.2841C57.4418 52.1402 57.6558 51.947 57.8111 51.7045C57.9664 51.4621 58.044 51.1875 58.044 50.8807V49.9545C57.9683 50.0038 57.8641 50.0492 57.7315 50.0909C57.6027 50.1288 57.4569 50.1648 57.294 50.1989C57.1312 50.2292 56.9683 50.2576 56.8054 50.2841C56.6425 50.3068 56.4948 50.3277 56.3622 50.3466C56.0781 50.3883 55.83 50.4545 55.6179 50.5455C55.4058 50.6364 55.241 50.7595 55.1236 50.9148C55.0062 51.0663 54.9474 51.2557 54.9474 51.483C54.9474 51.8125 55.0668 52.0644 55.3054 52.2386C55.5478 52.4091 55.8546 52.4943 56.2259 52.4943ZM62.3253 54V45.2727H64.7457V54H62.3253ZM63.5412 44.1477C63.1813 44.1477 62.8726 44.0284 62.6151 43.7898C62.3613 43.5473 62.2344 43.2576 62.2344 42.9205C62.2344 42.5871 62.3613 42.3011 62.6151 42.0625C62.8726 41.8201 63.1813 41.6989 63.5412 41.6989C63.901 41.6989 64.2079 41.8201 64.4616 42.0625C64.7192 42.3011 64.848 42.5871 64.848 42.9205C64.848 43.2576 64.7192 43.5473 64.4616 43.7898C64.2079 44.0284 63.901 44.1477 63.5412 44.1477ZM69.1051 42.3636V54H66.6847V42.3636H69.1051Z" fill="#0A5753"/>
<rect x="180.5" y="40.5" width="73" height="27" rx="13.5" fill="#F0FDF2"/>
<rect x="180.5" y="40.5" width="73" height="27" rx="13.5" stroke="#BBF7C8"/>
<circle cx="191" cy="54" r="3" fill="#21BA45"/>
<path d="M204.83 51.4545C204.778 51.0227 204.571 50.6875 204.207 50.4489C203.844 50.2102 203.398 50.0909 202.869 50.0909C202.483 50.0909 202.145 50.1534 201.855 50.2784C201.568 50.4034 201.344 50.5753 201.182 50.794C201.023 51.0128 200.943 51.2614 200.943 51.5398C200.943 51.7727 200.999 51.973 201.109 52.1406C201.223 52.3054 201.368 52.4432 201.544 52.554C201.72 52.6619 201.905 52.7514 202.098 52.8224C202.291 52.8906 202.469 52.946 202.631 52.9886L203.517 53.2273C203.744 53.2869 203.997 53.3693 204.276 53.4744C204.557 53.5795 204.825 53.723 205.081 53.9048C205.339 54.0838 205.553 54.3139 205.72 54.5952C205.888 54.8764 205.972 55.2216 205.972 55.6307C205.972 56.1023 205.848 56.5284 205.601 56.9091C205.357 57.2898 204.999 57.5923 204.527 57.8168C204.058 58.0412 203.489 58.1534 202.818 58.1534C202.193 58.1534 201.652 58.0526 201.195 57.8509C200.74 57.6491 200.382 57.3679 200.121 57.0071C199.862 56.6463 199.716 56.2273 199.682 55.75H200.773C200.801 56.0795 200.912 56.3523 201.105 56.5682C201.301 56.7812 201.548 56.9403 201.847 57.0455C202.148 57.1477 202.472 57.1989 202.818 57.1989C203.222 57.1989 203.584 57.1335 203.905 57.0028C204.226 56.8693 204.48 56.6847 204.668 56.4489C204.855 56.2102 204.949 55.9318 204.949 55.6136C204.949 55.3239 204.868 55.0881 204.706 54.9062C204.544 54.7244 204.331 54.5767 204.067 54.4631C203.803 54.3494 203.517 54.25 203.21 54.1648L202.136 53.858C201.455 53.6619 200.915 53.3821 200.517 53.0185C200.119 52.6548 199.92 52.179 199.92 51.5909C199.92 51.1023 200.053 50.6761 200.317 50.3125C200.584 49.946 200.942 49.6619 201.391 49.4602C201.842 49.2557 202.347 49.1534 202.903 49.1534C203.466 49.1534 203.966 49.2543 204.403 49.456C204.841 49.6548 205.188 49.9276 205.443 50.2741C205.702 50.6207 205.838 51.0142 205.852 51.4545H204.83ZM209.499 58.1534C209.084 58.1534 208.708 58.0753 208.37 57.919C208.032 57.7599 207.763 57.5312 207.564 57.233C207.365 56.9318 207.266 56.5682 207.266 56.142C207.266 55.767 207.34 55.4631 207.488 55.2301C207.635 54.9943 207.833 54.8097 208.08 54.6761C208.327 54.5426 208.6 54.4432 208.898 54.3778C209.199 54.3097 209.502 54.2557 209.806 54.2159C210.203 54.1648 210.526 54.1264 210.773 54.1009C211.023 54.0724 211.205 54.0256 211.319 53.9602C211.435 53.8949 211.493 53.7812 211.493 53.6193V53.5852C211.493 53.1648 211.378 52.8381 211.148 52.6051C210.921 52.3722 210.576 52.2557 210.113 52.2557C209.632 52.2557 209.256 52.3608 208.983 52.571C208.711 52.7812 208.519 53.0057 208.408 53.2443L207.453 52.9034C207.624 52.5057 207.851 52.196 208.135 51.9744C208.422 51.75 208.735 51.5937 209.073 51.5057C209.414 51.4148 209.749 51.3693 210.078 51.3693C210.289 51.3693 210.53 51.3949 210.803 51.446C211.078 51.4943 211.344 51.5952 211.6 51.7486C211.858 51.902 212.073 52.1335 212.243 52.4432C212.414 52.7528 212.499 53.1676 212.499 53.6875V58H211.493V57.1136H211.442C211.374 57.2557 211.26 57.4077 211.101 57.5696C210.942 57.7315 210.73 57.8693 210.466 57.983C210.202 58.0966 209.88 58.1534 209.499 58.1534ZM209.652 57.25C210.05 57.25 210.385 57.1719 210.658 57.0156C210.934 56.8594 211.141 56.6577 211.28 56.4105C211.422 56.1634 211.493 55.9034 211.493 55.6307V54.7102C211.451 54.7614 211.357 54.8082 211.212 54.8509C211.07 54.8906 210.905 54.9261 210.718 54.9574C210.533 54.9858 210.353 55.0114 210.176 55.0341C210.003 55.054 209.863 55.071 209.755 55.0852C209.493 55.1193 209.249 55.1747 209.022 55.2514C208.797 55.3253 208.615 55.4375 208.476 55.5881C208.34 55.7358 208.272 55.9375 208.272 56.1932C208.272 56.5426 208.401 56.8068 208.659 56.9858C208.921 57.1619 209.252 57.25 209.652 57.25ZM219.452 51.4545L217.032 58H216.009L213.589 51.4545H214.68L216.487 56.6705H216.555L218.362 51.4545H219.452ZM223.29 58.1364C222.659 58.1364 222.115 57.9972 221.658 57.7188C221.203 57.4375 220.852 57.0455 220.605 56.5426C220.361 56.0369 220.239 55.4489 220.239 54.7784C220.239 54.108 220.361 53.517 220.605 53.0057C220.852 52.4915 221.196 52.0909 221.636 51.804C222.08 51.5142 222.597 51.3693 223.188 51.3693C223.528 51.3693 223.865 51.4261 224.197 51.5398C224.53 51.6534 224.832 51.8381 225.105 52.0938C225.378 52.3466 225.595 52.6818 225.757 53.0994C225.919 53.517 226 54.0312 226 54.642V55.0682H220.955V54.1989H224.977C224.977 53.8295 224.903 53.5 224.756 53.2102C224.611 52.9205 224.403 52.6918 224.134 52.5241C223.866 52.3565 223.551 52.2727 223.188 52.2727C222.787 52.2727 222.44 52.3722 222.148 52.571C221.858 52.767 221.635 53.0227 221.479 53.3381C221.322 53.6534 221.244 53.9915 221.244 54.3523V54.9318C221.244 55.4261 221.33 55.8452 221.5 56.1889C221.673 56.5298 221.913 56.7898 222.22 56.9688C222.527 57.1449 222.884 57.233 223.29 57.233C223.554 57.233 223.793 57.196 224.006 57.1222C224.222 57.0455 224.408 56.9318 224.564 56.7812C224.72 56.6278 224.841 56.4375 224.926 56.2102L225.898 56.483C225.795 56.8125 225.624 57.1023 225.382 57.3523C225.141 57.5994 224.842 57.7926 224.487 57.9318C224.132 58.0682 223.733 58.1364 223.29 58.1364ZM233.462 59.0909V48.1818H234.161V59.0909H233.462ZM235.814 51.4545C235.763 51.0227 235.555 50.6875 235.192 50.4489C234.828 50.2102 234.382 50.0909 233.854 50.0909C233.467 50.0909 233.129 50.1534 232.839 50.2784C232.553 50.4034 232.328 50.5753 232.166 50.794C232.007 51.0128 231.928 51.2614 231.928 51.5398C231.928 51.7727 231.983 51.973 232.094 52.1406C232.207 52.3054 232.352 52.4432 232.528 52.554C232.705 52.6619 232.889 52.7514 233.082 52.8224C233.276 52.8906 233.453 52.946 233.615 52.9886L234.501 53.2273C234.729 53.2869 234.982 53.3693 235.26 53.4744C235.541 53.5795 235.81 53.723 236.065 53.9048C236.324 54.0838 236.537 54.3139 236.705 54.5952C236.872 54.8764 236.956 55.2216 236.956 55.6307C236.956 56.1023 236.832 56.5284 236.585 56.9091C236.341 57.2898 235.983 57.5923 235.511 57.8168C235.043 58.0412 234.473 58.1534 233.803 58.1534C233.178 58.1534 232.636 58.0526 232.179 57.8509C231.724 57.6491 231.366 57.3679 231.105 57.0071C230.847 56.6463 230.7 56.2273 230.666 55.75H231.757C231.786 56.0795 231.896 56.3523 232.089 56.5682C232.286 56.7812 232.533 56.9403 232.831 57.0455C233.132 57.1477 233.456 57.1989 233.803 57.1989C234.206 57.1989 234.568 57.1335 234.889 57.0028C235.21 56.8693 235.464 56.6847 235.652 56.4489C235.839 56.2102 235.933 55.9318 235.933 55.6136C235.933 55.3239 235.852 55.0881 235.69 54.9062C235.528 54.7244 235.315 54.5767 235.051 54.4631C234.787 54.3494 234.501 54.25 234.195 54.1648L233.121 53.858C232.439 53.6619 231.899 53.3821 231.501 53.0185C231.104 52.6548 230.905 52.179 230.905 51.5909C230.905 51.1023 231.037 50.6761 231.301 50.3125C231.568 49.946 231.926 49.6619 232.375 49.4602C232.827 49.2557 233.331 49.1534 233.888 49.1534C234.45 49.1534 234.95 49.2543 235.388 49.456C235.825 49.6548 236.172 49.9276 236.428 50.2741C236.686 50.6207 236.822 51.0142 236.837 51.4545H235.814ZM241.438 58.1193C241.08 58.1136 240.722 58.0455 240.364 57.9148C240.006 57.7841 239.679 57.5639 239.384 57.2543C239.088 56.9418 238.851 56.5199 238.672 55.9886C238.493 55.4545 238.404 54.7841 238.404 53.9773C238.404 53.2045 238.476 52.5199 238.621 51.9233C238.766 51.3239 238.976 50.8196 239.252 50.4105C239.527 49.9986 239.86 49.6861 240.249 49.473C240.641 49.2599 241.083 49.1534 241.574 49.1534C242.063 49.1534 242.498 49.2514 242.878 49.4474C243.262 49.6406 243.574 49.9105 243.816 50.2571C244.057 50.6037 244.213 51.0028 244.284 51.4545H243.245C243.148 51.0625 242.961 50.7372 242.682 50.4787C242.404 50.2202 242.034 50.0909 241.574 50.0909C240.898 50.0909 240.365 50.3849 239.976 50.973C239.59 51.5611 239.395 52.3864 239.392 53.4489H239.461C239.62 53.2074 239.809 53.0014 240.027 52.831C240.249 52.6577 240.493 52.5241 240.76 52.4304C241.027 52.3366 241.31 52.2898 241.608 52.2898C242.108 52.2898 242.566 52.4148 242.98 52.6648C243.395 52.9119 243.728 53.2543 243.978 53.6918C244.228 54.1264 244.353 54.625 244.353 55.1875C244.353 55.7273 244.232 56.2216 243.99 56.6705C243.749 57.1165 243.409 57.4716 242.972 57.7358C242.537 57.9972 242.026 58.125 241.438 58.1193ZM241.438 57.1818C241.796 57.1818 242.117 57.0923 242.401 56.9134C242.688 56.7344 242.914 56.4943 243.078 56.1932C243.246 55.892 243.33 55.5568 243.33 55.1875C243.33 54.8267 243.249 54.4986 243.087 54.2031C242.928 53.9048 242.708 53.6676 242.426 53.4915C242.148 53.3153 241.83 53.2273 241.472 53.2273C241.202 53.2273 240.951 53.2812 240.718 53.3892C240.485 53.4943 240.28 53.6392 240.104 53.8239C239.931 54.0085 239.794 54.2202 239.695 54.4588C239.596 54.6946 239.546 54.9432 239.546 55.2045C239.546 55.5511 239.627 55.875 239.789 56.1761C239.953 56.4773 240.178 56.7202 240.462 56.9048C240.749 57.0895 241.074 57.1818 241.438 57.1818Z" fill="#21BA45"/>
<path d="M50.472 94.296C50.472 97.224 48.312 99.168 44.4 99.336V101.4H42.792V99.288C39.048 98.976 36.576 96.96 36.576 93.576H40.416C40.464 95.232 41.52 95.928 42.792 96.144V92.256L42.312 92.112C39.312 91.224 37.08 90.072 37.08 87.168C37.08 84.264 39.288 82.416 42.792 82.2V80.52H44.4V82.2C48.024 82.512 50.088 84.576 50.232 87.552H46.392C46.224 86.376 45.576 85.656 44.4 85.392V88.968C47.616 89.904 50.472 90.888 50.472 94.296ZM40.944 86.856C40.944 87.696 41.496 88.056 42.792 88.464V85.32C41.712 85.44 40.944 85.896 40.944 86.856ZM44.4 92.712V96.216C45.936 96.144 46.608 95.544 46.608 94.656C46.608 93.624 45.672 93.12 44.4 92.712ZM55.0041 99V87.864C54.3561 88.368 52.9641 88.56 51.5001 88.56V85.368C53.8281 85.368 55.7241 84.456 55.7241 82.416H59.0841V99H55.0041ZM68.7454 99.384C63.2734 99.384 61.4974 95.256 61.4974 90.936C61.4974 84.936 64.3534 82.032 68.6014 82.032C71.8174 82.032 74.2414 83.952 74.7694 86.616H70.6414C70.5214 86.04 70.0414 85.08 68.5294 85.08C66.4654 85.08 65.5774 86.64 65.5774 88.8V89.064L65.6734 89.136C66.5374 88.32 67.7134 87.696 69.5374 87.696C72.9694 87.696 75.2494 90.144 75.2494 93.312C75.2494 96.984 72.7294 99.384 68.7454 99.384ZM68.5054 96.336C70.2814 96.336 71.3134 95.136 71.3134 93.528C71.3134 91.944 70.2814 90.744 68.5054 90.744C66.7054 90.744 65.6734 91.944 65.6734 93.528C65.6734 95.136 66.7054 96.336 68.5054 96.336ZM83.4713 99.384C80.2553 99.384 77.8313 97.464 77.3033 94.8H81.4313C81.5513 95.376 82.0312 96.336 83.5433 96.336C85.6073 96.336 86.4953 94.776 86.4953 92.616V92.352L86.3993 92.28C85.5353 93.096 84.3593 93.72 82.5353 93.72C79.1033 93.72 76.8232 91.272 76.8232 88.104C76.8232 84.432 79.3433 82.032 83.3273 82.032C88.7993 82.032 90.5753 86.16 90.5753 90.48C90.5753 96.48 87.7193 99.384 83.4713 99.384ZM83.5673 90.672C85.3673 90.672 86.3993 89.472 86.3993 87.888C86.3993 86.28 85.3673 85.08 83.5673 85.08C81.7913 85.08 80.7593 86.28 80.7593 87.888C80.7593 89.472 81.7913 90.672 83.5673 90.672Z" fill="#00928B"/>
<path d="M191.563 95.6392C190.94 95.6392 190.38 95.5199 189.882 95.2812C189.389 95.0393 188.994 94.7079 188.699 94.2869C188.404 93.866 188.247 93.3854 188.227 92.8452H189.718C189.755 93.2827 189.949 93.6423 190.3 93.924C190.651 94.2057 191.072 94.3466 191.563 94.3466C191.954 94.3466 192.3 94.2571 192.602 94.0781C192.907 93.8958 193.145 93.6456 193.318 93.3274C193.493 93.0092 193.581 92.6463 193.581 92.2386C193.581 91.8243 193.492 91.4548 193.313 91.13C193.134 90.8052 192.887 90.55 192.572 90.3643C192.261 90.1787 191.903 90.0843 191.498 90.081C191.19 90.081 190.88 90.134 190.569 90.2401C190.257 90.3461 190.005 90.4853 189.813 90.6577L188.406 90.4489L188.978 85.3182H194.576V86.6357H190.255L189.932 89.4844H189.992C190.191 89.2921 190.454 89.1314 190.782 89.0021C191.114 88.8729 191.468 88.8082 191.846 88.8082C192.466 88.8082 193.018 88.9557 193.502 89.2507C193.989 89.5457 194.372 89.9484 194.65 90.4588C194.932 90.9659 195.071 91.5492 195.068 92.2088C195.071 92.8684 194.922 93.4567 194.62 93.9737C194.322 94.4908 193.908 94.8984 193.377 95.1967C192.85 95.4917 192.246 95.6392 191.563 95.6392ZM200.428 95.669C199.643 95.6657 198.972 95.4586 198.415 95.0476C197.858 94.6366 197.432 94.0384 197.137 93.2528C196.842 92.4673 196.695 91.5211 196.695 90.4141C196.695 89.3104 196.842 88.3674 197.137 87.5852C197.436 86.803 197.863 86.2064 198.42 85.7955C198.98 85.3845 199.65 85.179 200.428 85.179C201.207 85.179 201.875 85.3861 202.432 85.8004C202.989 86.2114 203.415 86.808 203.71 87.5902C204.008 88.3691 204.157 89.3104 204.157 90.4141C204.157 91.5244 204.01 92.4723 203.715 93.2578C203.42 94.04 202.994 94.6383 202.437 95.0526C201.88 95.4635 201.211 95.669 200.428 95.669ZM200.428 94.3416C201.118 94.3416 201.656 94.0052 202.044 93.3324C202.435 92.6596 202.631 91.6868 202.631 90.4141C202.631 89.5689 202.541 88.8546 202.362 88.2713C202.187 87.6847 201.933 87.2405 201.602 86.9389C201.274 86.634 200.883 86.4815 200.428 86.4815C199.742 86.4815 199.204 86.8196 198.813 87.4957C198.422 88.1719 198.224 89.1446 198.221 90.4141C198.221 91.2625 198.309 91.9801 198.485 92.5668C198.664 93.1501 198.917 93.5926 199.245 93.8942C199.573 94.1925 199.968 94.3416 200.428 94.3416ZM213.21 87.8636V89.0568H209.039V87.8636H213.21ZM210.158 86.0341H211.644V93.2578C211.644 93.5462 211.687 93.7633 211.774 93.9091C211.86 94.0516 211.971 94.1494 212.107 94.2024C212.246 94.2521 212.397 94.277 212.559 94.277C212.678 94.277 212.783 94.2687 212.872 94.2521C212.962 94.2356 213.031 94.2223 213.081 94.2124L213.35 95.4403C213.263 95.4735 213.141 95.5066 212.982 95.5398C212.823 95.5762 212.624 95.5961 212.385 95.5994C211.994 95.6061 211.629 95.5365 211.291 95.3906C210.953 95.2448 210.68 95.0194 210.471 94.7145C210.262 94.4096 210.158 94.0268 210.158 93.5661V86.0341ZM217.989 95.6541C217.273 95.6541 216.649 95.4901 216.115 95.1619C215.581 94.8338 215.167 94.3748 214.872 93.7848C214.577 93.1948 214.43 92.5054 214.43 91.7166C214.43 90.9245 214.577 90.2318 214.872 89.6385C215.167 89.0452 215.581 88.5845 216.115 88.2564C216.649 87.9283 217.273 87.7642 217.989 87.7642C218.705 87.7642 219.33 87.9283 219.864 88.2564C220.397 88.5845 220.812 89.0452 221.107 89.6385C221.402 90.2318 221.549 90.9245 221.549 91.7166C221.549 92.5054 221.402 93.1948 221.107 93.7848C220.812 94.3748 220.397 94.8338 219.864 95.1619C219.33 95.4901 218.705 95.6541 217.989 95.6541ZM217.994 94.4062C218.458 94.4062 218.843 94.2836 219.148 94.0384C219.453 93.7931 219.678 93.4666 219.824 93.0589C219.973 92.6513 220.048 92.2022 220.048 91.7116C220.048 91.2244 219.973 90.777 219.824 90.3693C219.678 89.9583 219.453 89.6286 219.148 89.38C218.843 89.1314 218.458 89.0071 217.994 89.0071C217.527 89.0071 217.139 89.1314 216.831 89.38C216.526 89.6286 216.299 89.9583 216.15 90.3693C216.004 90.777 215.931 91.2244 215.931 91.7116C215.931 92.2022 216.004 92.6513 216.15 93.0589C216.299 93.4666 216.526 93.7931 216.831 94.0384C217.139 94.2836 217.527 94.4062 217.994 94.4062ZM224.575 92.9098L224.566 91.0952H224.824L227.867 87.8636H229.646L226.176 91.5426H225.943L224.575 92.9098ZM223.208 95.5V85.3182H224.695V95.5H223.208ZM228.031 95.5L225.296 91.8707L226.32 90.8317L229.855 95.5H228.031ZM233.978 95.6541C233.226 95.6541 232.578 95.4934 232.034 95.1719C231.494 94.8471 231.076 94.3913 230.781 93.8047C230.49 93.2147 230.344 92.5237 230.344 91.7315C230.344 90.9493 230.49 90.2599 230.781 89.6634C231.076 89.0668 231.487 88.6011 232.014 88.2663C232.545 87.9316 233.164 87.7642 233.874 87.7642C234.304 87.7642 234.722 87.8355 235.126 87.978C235.531 88.1205 235.894 88.3442 236.215 88.6491C236.537 88.9541 236.79 89.3501 236.976 89.8374C237.161 90.3213 237.254 90.9096 237.254 91.6023V92.1293H231.184V91.0156H235.798C235.798 90.6245 235.718 90.2782 235.559 89.9766C235.4 89.6716 235.176 89.4313 234.888 89.2557C234.603 89.08 234.268 88.9922 233.884 88.9922C233.466 88.9922 233.101 89.0949 232.79 89.3004C232.482 89.5026 232.243 89.7678 232.074 90.0959C231.908 90.4207 231.825 90.7737 231.825 91.1548V92.0249C231.825 92.5353 231.915 92.9695 232.094 93.3274C232.276 93.6854 232.53 93.9588 232.854 94.1477C233.179 94.3333 233.559 94.4261 233.993 94.4261C234.275 94.4261 234.531 94.3864 234.763 94.3068C234.996 94.224 235.196 94.1013 235.365 93.9389C235.534 93.7765 235.663 93.576 235.753 93.3374L237.16 93.5909C237.047 94.0052 236.845 94.3681 236.553 94.6797C236.265 94.9879 235.902 95.2282 235.464 95.4006C235.03 95.5696 234.535 95.6541 233.978 95.6541ZM240.39 90.9659V95.5H238.904V87.8636H240.33V89.1065H240.425C240.601 88.7022 240.876 88.3774 241.25 88.1321C241.628 87.8868 242.104 87.7642 242.677 87.7642C243.197 87.7642 243.653 87.8736 244.044 88.0923C244.435 88.3078 244.739 88.6293 244.954 89.0568C245.169 89.4844 245.277 90.013 245.277 90.6428V95.5H243.791V90.8217C243.791 90.2682 243.646 89.8357 243.358 89.5241C243.07 89.2093 242.674 89.0518 242.17 89.0518C241.825 89.0518 241.519 89.1264 241.25 89.2756C240.985 89.4247 240.775 89.6435 240.619 89.9318C240.466 90.2169 240.39 90.5616 240.39 90.9659ZM252.993 89.728L251.646 89.9666C251.589 89.7943 251.5 89.6302 251.377 89.4744C251.258 89.3187 251.096 89.1911 250.89 89.0916C250.685 88.9922 250.428 88.9425 250.119 88.9425C249.699 88.9425 249.347 89.0369 249.066 89.2259C248.784 89.4115 248.643 89.6518 248.643 89.9467C248.643 90.2019 248.737 90.4074 248.926 90.5632C249.115 90.719 249.42 90.8466 249.841 90.946L251.054 91.2244C251.757 91.3868 252.28 91.6371 252.625 91.9751C252.97 92.3132 253.142 92.7524 253.142 93.2926C253.142 93.75 253.01 94.1577 252.744 94.5156C252.483 94.8703 252.116 95.1487 251.646 95.3509C251.178 95.553 250.637 95.6541 250.02 95.6541C249.165 95.6541 248.467 95.4718 247.927 95.1072C247.387 94.7393 247.055 94.2173 246.933 93.5412L248.369 93.3224C248.459 93.697 248.643 93.9804 248.921 94.1726C249.2 94.3615 249.563 94.456 250.01 94.456C250.497 94.456 250.887 94.3549 251.178 94.1527C251.47 93.9472 251.616 93.697 251.616 93.402C251.616 93.1634 251.526 92.9628 251.347 92.8004C251.172 92.638 250.902 92.5154 250.537 92.4325L249.244 92.1491C248.532 91.9867 248.005 91.7282 247.664 91.3736C247.325 91.0189 247.156 90.5698 247.156 90.0263C247.156 89.5755 247.282 89.1811 247.534 88.843C247.786 88.505 248.134 88.2415 248.578 88.0526C249.022 87.8603 249.531 87.7642 250.105 87.7642C250.93 87.7642 251.579 87.9432 252.053 88.3011C252.527 88.6558 252.841 89.1314 252.993 89.728Z" fill="#4D5662"/>
<line x1="20" y1="128.5" x2="270" y2="128.5" stroke="#DBE5EA"/>
<path d="M41.8059 170.636V154.273H42.8542V170.636H41.8059ZM44.8294 159.508C44.7697 158.95 44.5183 158.515 44.0751 158.204C43.6362 157.893 43.0652 157.737 42.362 157.737C41.8677 157.737 41.4437 157.812 41.09 157.961C40.7363 158.11 40.4657 158.312 40.2782 158.568C40.0907 158.824 39.9949 159.116 39.9906 159.444C39.9906 159.717 40.0524 159.953 40.176 160.153C40.3038 160.354 40.4764 160.524 40.6937 160.665C40.911 160.801 41.1518 160.916 41.416 161.01C41.6802 161.104 41.9466 161.183 42.215 161.246L43.4423 161.553C43.9366 161.668 44.4118 161.824 44.8677 162.02C45.3279 162.216 45.7392 162.463 46.1014 162.761C46.4679 163.06 46.7576 163.42 46.9707 163.842C47.1838 164.263 47.2903 164.758 47.2903 165.325C47.2903 166.092 47.0943 166.767 46.7022 167.351C46.3102 167.93 45.7434 168.384 45.002 168.712C44.2647 169.036 43.372 169.198 42.3237 169.198C41.3052 169.198 40.421 169.04 39.671 168.725C38.9252 168.41 38.3414 167.95 37.9196 167.344C37.502 166.739 37.2761 166.002 37.242 165.133H39.5751C39.6092 165.589 39.7498 165.968 39.997 166.271C40.2441 166.573 40.5659 166.799 40.9622 166.948C41.3627 167.097 41.8102 167.172 42.3045 167.172C42.8201 167.172 43.2718 167.095 43.6596 166.942C44.0517 166.784 44.3585 166.567 44.5801 166.29C44.8017 166.009 44.9146 165.68 44.9189 165.305C44.9146 164.964 44.8145 164.683 44.6184 164.462C44.4224 164.236 44.1475 164.048 43.7939 163.899C43.4444 163.746 43.0353 163.609 42.5666 163.49L41.0772 163.107C39.9991 162.83 39.1468 162.41 38.5204 161.847C37.8983 161.281 37.5872 160.528 37.5872 159.591C37.5872 158.82 37.796 158.144 38.2136 157.565C38.6355 156.985 39.2086 156.536 39.9331 156.216C40.6575 155.892 41.4778 155.73 42.394 155.73C43.323 155.73 44.1369 155.892 44.8358 156.216C45.5389 156.536 46.0907 156.981 46.4913 157.552C46.8919 158.119 47.0985 158.771 47.1113 159.508H44.8294ZM53.9748 169.179C53.0543 169.179 52.2362 169.021 51.5202 168.706C50.8086 168.391 50.2461 167.952 49.8327 167.389C49.4194 166.827 49.1999 166.177 49.1744 165.44H51.5778C51.5991 165.793 51.7163 166.102 51.9293 166.366C52.1424 166.626 52.4258 166.829 52.7795 166.974C53.1332 167.119 53.5295 167.191 53.9684 167.191C54.4371 167.191 54.8526 167.11 55.2148 166.948C55.5771 166.782 55.8604 166.552 56.065 166.258C56.2695 165.964 56.3697 165.625 56.3654 165.241C56.3697 164.845 56.2674 164.496 56.0586 164.193C55.8498 163.891 55.5472 163.654 55.1509 163.484C54.7589 163.313 54.2859 163.228 53.7319 163.228H52.5749V161.4H53.7319C54.1879 161.4 54.5863 161.321 54.9272 161.163C55.2724 161.006 55.543 160.784 55.739 160.499C55.935 160.209 56.0309 159.874 56.0266 159.495C56.0309 159.124 55.9478 158.803 55.7773 158.53C55.6112 158.253 55.3746 158.038 55.0678 157.884C54.7653 157.731 54.4094 157.654 54.0004 157.654C53.5998 157.654 53.229 157.727 52.8881 157.871C52.5472 158.016 52.2724 158.223 52.0636 158.491C51.8548 158.756 51.744 159.071 51.7312 159.438H49.4492C49.4663 158.705 49.6772 158.061 50.082 157.507C50.4911 156.949 51.0366 156.514 51.7184 156.203C52.4002 155.888 53.1651 155.73 54.0131 155.73C54.8867 155.73 55.6452 155.894 56.2887 156.222C56.9364 156.546 57.4371 156.983 57.7908 157.533C58.1445 158.082 58.3214 158.69 58.3214 159.354C58.3256 160.092 58.1083 160.71 57.6694 161.208C57.2347 161.707 56.6637 162.033 55.9563 162.186V162.288C56.8768 162.416 57.582 162.757 58.0721 163.311C58.5664 163.861 58.8114 164.545 58.8072 165.363C58.8072 166.096 58.5984 166.752 58.1808 167.332C57.7674 167.907 57.1964 168.359 56.4677 168.687C55.7433 169.015 54.9123 169.179 53.9748 169.179ZM62.0655 169.141C61.6777 169.141 61.3453 169.004 61.0684 168.732C60.7914 168.459 60.655 168.126 60.6593 167.734C60.655 167.351 60.7914 167.023 61.0684 166.75C61.3453 166.477 61.6777 166.341 62.0655 166.341C62.4405 166.341 62.7665 166.477 63.0435 166.75C63.3248 167.023 63.4675 167.351 63.4718 167.734C63.4675 167.994 63.3993 168.231 63.2672 168.444C63.1394 168.657 62.9689 168.827 62.7559 168.955C62.5471 169.079 62.3169 169.141 62.0655 169.141ZM70.0939 169.179C69.1735 169.179 68.3553 169.021 67.6394 168.706C66.9277 168.391 66.3652 167.952 65.9519 167.389C65.5385 166.827 65.3191 166.177 65.2935 165.44H67.6969C67.7182 165.793 67.8354 166.102 68.0485 166.366C68.2615 166.626 68.5449 166.829 68.8986 166.974C69.2523 167.119 69.6486 167.191 70.0875 167.191C70.5563 167.191 70.9718 167.11 71.334 166.948C71.6962 166.782 71.9796 166.552 72.1841 166.258C72.3887 165.964 72.4888 165.625 72.4846 165.241C72.4888 164.845 72.3865 164.496 72.1777 164.193C71.9689 163.891 71.6664 163.654 71.2701 163.484C70.878 163.313 70.405 163.228 69.851 163.228H68.6941V161.4H69.851C70.307 161.4 70.7054 161.321 71.0463 161.163C71.3915 161.006 71.6621 160.784 71.8581 160.499C72.0542 160.209 72.15 159.874 72.1458 159.495C72.15 159.124 72.0669 158.803 71.8965 158.53C71.7303 158.253 71.4938 158.038 71.187 157.884C70.8844 157.731 70.5286 157.654 70.1195 157.654C69.7189 157.654 69.3482 157.727 69.0073 157.871C68.6664 158.016 68.3915 158.223 68.1827 158.491C67.9739 158.756 67.8631 159.071 67.8503 159.438H65.5684C65.5854 158.705 65.7963 158.061 66.2012 157.507C66.6103 156.949 67.1557 156.514 67.8375 156.203C68.5194 155.888 69.2843 155.73 70.1323 155.73C71.0059 155.73 71.7644 155.894 72.4078 156.222C73.0556 156.546 73.5563 156.983 73.91 157.533C74.2637 158.082 74.4405 158.69 74.4405 159.354C74.4448 160.092 74.2275 160.71 73.7885 161.208C73.3539 161.707 72.7828 162.033 72.0755 162.186V162.288C72.9959 162.416 73.7012 162.757 74.1912 163.311C74.6855 163.861 74.9306 164.545 74.9263 165.363C74.9263 166.096 74.7175 166.752 74.2999 167.332C73.8865 167.907 73.3155 168.359 72.5868 168.687C71.8624 169.015 71.0314 169.179 70.0939 169.179ZM81.7738 169.179C80.8235 169.179 79.9798 169.019 79.2425 168.7C78.5096 168.38 77.9343 167.943 77.5167 167.389C77.1033 166.831 76.8988 166.198 76.9031 165.491C76.8988 164.941 77.0181 164.436 77.261 163.976C77.5039 163.516 77.832 163.132 78.2454 162.825C78.663 162.514 79.1275 162.316 79.6388 162.231V162.141C78.9656 161.992 78.4201 161.649 78.0025 161.112C77.5891 160.571 77.3846 159.947 77.3888 159.239C77.3846 158.566 77.5721 157.965 77.9513 157.437C78.3306 156.908 78.8505 156.493 79.511 156.19C80.1715 155.884 80.9258 155.73 81.7738 155.73C82.6133 155.73 83.3612 155.884 84.0174 156.19C84.6779 156.493 85.1978 156.908 85.5771 157.437C85.9606 157.965 86.1523 158.566 86.1523 159.239C86.1523 159.947 85.9414 160.571 85.5195 161.112C85.1019 161.649 84.5629 161.992 83.9023 162.141V162.231C84.4137 162.316 84.8739 162.514 85.283 162.825C85.6964 163.132 86.0245 163.516 86.2674 163.976C86.5146 164.436 86.6381 164.941 86.6381 165.491C86.6381 166.198 86.4293 166.831 86.0117 167.389C85.5941 167.943 85.0188 168.38 84.2859 168.7C83.5572 169.019 82.7198 169.179 81.7738 169.179ZM81.7738 167.351C82.2638 167.351 82.69 167.268 83.0522 167.102C83.4144 166.931 83.6957 166.692 83.896 166.386C84.0962 166.079 84.1985 165.725 84.2028 165.325C84.1985 164.907 84.0898 164.538 83.8768 164.219C83.668 163.895 83.3803 163.641 83.0138 163.458C82.6516 163.275 82.2383 163.183 81.7738 163.183C81.305 163.183 80.8874 163.275 80.521 163.458C80.1545 163.641 79.8647 163.895 79.6516 164.219C79.4428 164.538 79.3406 164.907 79.3448 165.325C79.3406 165.725 79.4386 166.079 79.6388 166.386C79.8391 166.688 80.1204 166.925 80.4826 167.095C80.8491 167.266 81.2795 167.351 81.7738 167.351ZM81.7738 161.387C82.1744 161.387 82.5281 161.306 82.8349 161.144C83.146 160.982 83.391 160.756 83.57 160.467C83.7489 160.177 83.8406 159.842 83.8448 159.463C83.8406 159.088 83.7511 158.76 83.5763 158.479C83.4016 158.193 83.1587 157.974 82.8477 157.82C82.5366 157.663 82.1786 157.584 81.7738 157.584C81.3604 157.584 80.9961 157.663 80.6808 157.82C80.3697 157.974 80.1268 158.193 79.9521 158.479C79.7816 158.76 79.6985 159.088 79.7028 159.463C79.6985 159.842 79.7837 160.177 79.9585 160.467C80.1374 160.752 80.3825 160.978 80.6935 161.144C81.0089 161.306 81.369 161.387 81.7738 161.387Z" fill="#00928B"/>
<path d="M205.616 160.141V158.818H213.496V160.141H210.32V169H208.788V160.141H205.616ZM217.228 169.154C216.512 169.154 215.887 168.99 215.353 168.662C214.82 168.334 214.405 167.875 214.11 167.285C213.815 166.695 213.668 166.005 213.668 165.217C213.668 164.424 213.815 163.732 214.11 163.138C214.405 162.545 214.82 162.085 215.353 161.756C215.887 161.428 216.512 161.264 217.228 161.264C217.944 161.264 218.568 161.428 219.102 161.756C219.636 162.085 220.05 162.545 220.345 163.138C220.64 163.732 220.787 164.424 220.787 165.217C220.787 166.005 220.64 166.695 220.345 167.285C220.05 167.875 219.636 168.334 219.102 168.662C218.568 168.99 217.944 169.154 217.228 169.154ZM217.233 167.906C217.697 167.906 218.081 167.784 218.386 167.538C218.691 167.293 218.916 166.967 219.062 166.559C219.211 166.151 219.286 165.702 219.286 165.212C219.286 164.724 219.211 164.277 219.062 163.869C218.916 163.458 218.691 163.129 218.386 162.88C218.081 162.631 217.697 162.507 217.233 162.507C216.765 162.507 216.377 162.631 216.069 162.88C215.764 163.129 215.537 163.458 215.388 163.869C215.242 164.277 215.169 164.724 215.169 165.212C215.169 165.702 215.242 166.151 215.388 166.559C215.537 166.967 215.764 167.293 216.069 167.538C216.377 167.784 216.765 167.906 217.233 167.906ZM223.814 166.41L223.804 164.595H224.062L227.105 161.364H228.885L225.415 165.043H225.181L223.814 166.41ZM222.447 169V158.818H223.933V169H222.447ZM227.269 169L224.535 165.371L225.559 164.332L229.094 169H227.269ZM233.216 169.154C232.464 169.154 231.816 168.993 231.272 168.672C230.732 168.347 230.315 167.891 230.02 167.305C229.728 166.715 229.582 166.024 229.582 165.232C229.582 164.449 229.728 163.76 230.02 163.163C230.315 162.567 230.725 162.101 231.252 161.766C231.783 161.432 232.403 161.264 233.112 161.264C233.543 161.264 233.96 161.335 234.365 161.478C234.769 161.621 235.132 161.844 235.453 162.149C235.775 162.454 236.029 162.85 236.214 163.337C236.4 163.821 236.493 164.41 236.493 165.102V165.629H230.422V164.516H235.036C235.036 164.125 234.956 163.778 234.797 163.477C234.638 163.172 234.414 162.931 234.126 162.756C233.841 162.58 233.506 162.492 233.122 162.492C232.704 162.492 232.34 162.595 232.028 162.8C231.72 163.003 231.481 163.268 231.312 163.596C231.146 163.921 231.064 164.274 231.064 164.655V165.525C231.064 166.035 231.153 166.469 231.332 166.827C231.514 167.185 231.768 167.459 232.093 167.648C232.417 167.833 232.797 167.926 233.231 167.926C233.513 167.926 233.77 167.886 234.002 167.807C234.234 167.724 234.434 167.601 234.603 167.439C234.772 167.277 234.902 167.076 234.991 166.837L236.398 167.091C236.285 167.505 236.083 167.868 235.792 168.18C235.503 168.488 235.14 168.728 234.703 168.901C234.269 169.07 233.773 169.154 233.216 169.154ZM239.628 164.466V169H238.142V161.364H239.569V162.607H239.663C239.839 162.202 240.114 161.877 240.488 161.632C240.866 161.387 241.342 161.264 241.915 161.264C242.436 161.264 242.891 161.374 243.282 161.592C243.674 161.808 243.977 162.129 244.192 162.557C244.408 162.984 244.515 163.513 244.515 164.143V169H243.029V164.322C243.029 163.768 242.885 163.336 242.596 163.024C242.308 162.709 241.912 162.552 241.408 162.552C241.064 162.552 240.757 162.626 240.488 162.776C240.223 162.925 240.013 163.143 239.857 163.432C239.705 163.717 239.628 164.062 239.628 164.466ZM252.231 163.228L250.884 163.467C250.828 163.294 250.738 163.13 250.616 162.974C250.496 162.819 250.334 162.691 250.128 162.592C249.923 162.492 249.666 162.442 249.358 162.442C248.937 162.442 248.586 162.537 248.304 162.726C248.022 162.911 247.881 163.152 247.881 163.447C247.881 163.702 247.976 163.907 248.165 164.063C248.354 164.219 248.658 164.347 249.079 164.446L250.292 164.724C250.995 164.887 251.519 165.137 251.863 165.475C252.208 165.813 252.381 166.252 252.381 166.793C252.381 167.25 252.248 167.658 251.983 168.016C251.721 168.37 251.355 168.649 250.884 168.851C250.417 169.053 249.875 169.154 249.258 169.154C248.403 169.154 247.706 168.972 247.165 168.607C246.625 168.239 246.294 167.717 246.171 167.041L247.608 166.822C247.697 167.197 247.881 167.48 248.16 167.673C248.438 167.862 248.801 167.956 249.248 167.956C249.736 167.956 250.125 167.855 250.417 167.653C250.708 167.447 250.854 167.197 250.854 166.902C250.854 166.663 250.765 166.463 250.586 166.3C250.41 166.138 250.14 166.015 249.775 165.933L248.483 165.649C247.77 165.487 247.243 165.228 246.902 164.874C246.564 164.519 246.395 164.07 246.395 163.526C246.395 163.076 246.521 162.681 246.773 162.343C247.024 162.005 247.372 161.741 247.817 161.553C248.261 161.36 248.769 161.264 249.343 161.264C250.168 161.264 250.818 161.443 251.292 161.801C251.766 162.156 252.079 162.631 252.231 163.228Z" fill="#5B6878"/>
<rect x="36.5" y="187.5" width="131" height="25" rx="12.5" fill="#F0FDF2"/>
<rect x="36.5" y="187.5" width="131" height="25" rx="12.5" stroke="#BBF7C8"/>
<g clip-path="url(#clip1_1694_29699)">
<path d="M57.3563 200L57.9705 198.398C58.0379 198.222 57.9854 198.021 57.8375 197.902L56.5058 196.822L56.2364 195.127C56.2066 194.94 56.0596 194.794 55.8724 194.764L54.1776 194.494L53.0988 193.162C52.9798 193.014 52.7751 192.962 52.6027 193.029L50.9998 193.644L49.3978 193.03C49.2202 192.962 49.0216 193.016 48.9017 193.163L47.8221 194.495L46.1273 194.765C46.0363 194.78 45.9522 194.822 45.887 194.888C45.8218 194.953 45.7789 195.037 45.7642 195.128L45.4947 196.823L44.1622 197.902C44.0152 198.021 43.9618 198.222 44.0292 198.398L44.6434 200L44.0292 201.603C43.9609 201.779 44.0152 201.98 44.1622 202.099L45.4947 203.177L45.7642 204.872C45.7939 205.059 45.9401 205.206 46.1273 205.236L47.8221 205.506L48.9017 206.837C48.9597 206.909 49.0391 206.961 49.1285 206.985C49.2178 207.009 49.3125 207.004 49.3987 206.97L50.9998 206.357L52.6019 206.971C52.6519 206.99 52.7049 207 52.7585 207C52.8871 207 53.014 206.943 53.0988 206.837L54.1776 205.506L55.8724 205.236C55.9637 205.222 56.0481 205.179 56.1134 205.113C56.1788 205.048 56.2218 204.963 56.2364 204.872L56.5058 203.177L57.8375 202.099C57.9854 201.979 58.0379 201.779 57.9705 201.603L57.3563 200Z" fill="#17A238"/>
<path d="M49.6874 199.125C48.9638 199.125 48.375 198.536 48.375 197.813C48.375 197.089 48.9638 196.5 49.6874 196.5C50.411 196.5 50.9998 197.089 50.9998 197.813C50.9998 198.536 50.411 199.125 49.6874 199.125ZM49.6874 197.375C49.4459 197.375 49.2499 197.571 49.2499 197.813C49.2499 198.054 49.4459 198.25 49.6874 198.25C49.9289 198.25 50.1249 198.054 50.1249 197.813C50.1249 197.571 49.9289 197.375 49.6874 197.375ZM52.3122 203.5C51.5887 203.5 50.9998 202.911 50.9998 202.188C50.9998 201.464 51.5887 200.875 52.3122 200.875C53.0358 200.875 53.6246 201.464 53.6246 202.188C53.6246 202.911 53.0358 203.5 52.3122 203.5ZM52.3122 201.75C52.0716 201.75 51.8748 201.947 51.8748 202.188C51.8748 202.428 52.0716 202.625 52.3122 202.625C52.5528 202.625 52.7497 202.428 52.7497 202.188C52.7497 201.947 52.5528 201.75 52.3122 201.75ZM48.8125 203.5C48.7241 203.5 48.6357 203.474 48.5587 203.419C48.3619 203.278 48.3164 203.005 48.4572 202.808L52.8319 196.683C52.9728 196.486 53.2458 196.441 53.4427 196.582C53.6395 196.722 53.6841 196.996 53.5441 197.192L49.1694 203.316C49.0828 203.436 48.949 203.5 48.8125 203.5Z" fill="white"/>
</g>
<path d="M65.8523 204.119C65.2898 204.119 64.7884 204.023 64.348 203.83C63.9105 203.636 63.5625 203.368 63.304 203.024C63.0483 202.678 62.9091 202.276 62.8864 201.818H63.9602C63.983 202.099 64.0795 202.342 64.25 202.547C64.4205 202.749 64.6435 202.905 64.919 203.016C65.1946 203.126 65.5 203.182 65.8352 203.182C66.2102 203.182 66.5426 203.116 66.8324 202.986C67.1222 202.855 67.3494 202.673 67.5142 202.44C67.679 202.207 67.7614 201.938 67.7614 201.631C67.7614 201.31 67.6818 201.027 67.5227 200.783C67.3636 200.536 67.1307 200.342 66.8239 200.203C66.517 200.064 66.142 199.994 65.6989 199.994H65V199.057H65.6989C66.0455 199.057 66.3494 198.994 66.6108 198.869C66.875 198.744 67.081 198.568 67.2287 198.341C67.3793 198.114 67.4545 197.847 67.4545 197.54C67.4545 197.244 67.3892 196.987 67.2585 196.768C67.1278 196.55 66.9432 196.379 66.7045 196.257C66.4688 196.135 66.1903 196.074 65.8693 196.074C65.5682 196.074 65.2841 196.129 65.017 196.24C64.7528 196.348 64.5369 196.506 64.3693 196.713C64.2017 196.918 64.1108 197.165 64.0966 197.455H63.0739C63.0909 196.997 63.2287 196.597 63.4872 196.253C63.7457 195.906 64.0838 195.636 64.5014 195.443C64.9219 195.25 65.3835 195.153 65.8864 195.153C66.4261 195.153 66.8892 195.263 67.2756 195.482C67.6619 195.697 67.9588 195.983 68.1662 196.338C68.3736 196.693 68.4773 197.077 68.4773 197.489C68.4773 197.98 68.348 198.399 68.0895 198.746C67.8338 199.092 67.4858 199.332 67.0455 199.466V199.534C67.5966 199.625 68.027 199.859 68.3366 200.237C68.6463 200.612 68.8011 201.077 68.8011 201.631C68.8011 202.105 68.6719 202.531 68.4134 202.909C68.1577 203.284 67.8082 203.58 67.3651 203.795C66.9219 204.011 66.4176 204.119 65.8523 204.119ZM74.9929 202.364V201.903C74.9929 201.585 75.0582 201.294 75.1889 201.03C75.3224 200.763 75.5156 200.55 75.7685 200.391C76.0241 200.229 76.3338 200.148 76.6974 200.148C77.0668 200.148 77.3764 200.229 77.6264 200.391C77.8764 200.55 78.0653 200.763 78.1932 201.03C78.321 201.294 78.3849 201.585 78.3849 201.903V202.364C78.3849 202.682 78.3196 202.974 78.1889 203.241C78.0611 203.506 77.8707 203.719 77.6179 203.881C77.3679 204.04 77.0611 204.119 76.6974 204.119C76.3281 204.119 76.017 204.04 75.7642 203.881C75.5114 203.719 75.3196 203.506 75.1889 203.241C75.0582 202.974 74.9929 202.682 74.9929 202.364ZM75.8622 201.903V202.364C75.8622 202.628 75.9247 202.865 76.0497 203.075C76.1747 203.283 76.3906 203.386 76.6974 203.386C76.9957 203.386 77.206 203.283 77.3281 203.075C77.4531 202.865 77.5156 202.628 77.5156 202.364V201.903C77.5156 201.639 77.456 201.403 77.3366 201.196C77.2173 200.986 77.0043 200.881 76.6974 200.881C76.3991 200.881 76.1847 200.986 76.054 201.196C75.9261 201.403 75.8622 201.639 75.8622 201.903ZM70.6463 197.369V196.909C70.6463 196.591 70.7116 196.3 70.8423 196.036C70.9759 195.768 71.169 195.555 71.4219 195.396C71.6776 195.234 71.9872 195.153 72.3509 195.153C72.7202 195.153 73.0298 195.234 73.2798 195.396C73.5298 195.555 73.7188 195.768 73.8466 196.036C73.9744 196.3 74.0384 196.591 74.0384 196.909V197.369C74.0384 197.687 73.973 197.98 73.8423 198.247C73.7145 198.511 73.5241 198.724 73.2713 198.886C73.0213 199.045 72.7145 199.125 72.3509 199.125C71.9815 199.125 71.6705 199.045 71.4176 198.886C71.1648 198.724 70.973 198.511 70.8423 198.247C70.7116 197.98 70.6463 197.687 70.6463 197.369ZM71.5156 196.909V197.369C71.5156 197.634 71.5781 197.871 71.7031 198.081C71.8281 198.288 72.044 198.392 72.3509 198.392C72.6491 198.392 72.8594 198.288 72.9815 198.081C73.1065 197.871 73.169 197.634 73.169 197.369V196.909C73.169 196.645 73.1094 196.409 72.9901 196.202C72.8707 195.991 72.6577 195.886 72.3509 195.886C72.0526 195.886 71.8381 195.991 71.7074 196.202C71.5795 196.409 71.5156 196.645 71.5156 196.909ZM70.9702 204L76.9702 195.273H77.9418L71.9418 204H70.9702ZM86.3452 204.136C85.7543 204.136 85.2358 203.996 84.7898 203.714C84.3466 203.433 84 203.04 83.75 202.534C83.5028 202.028 83.3793 201.437 83.3793 200.761C83.3793 200.08 83.5028 199.484 83.75 198.976C84 198.467 84.3466 198.072 84.7898 197.791C85.2358 197.51 85.7543 197.369 86.3452 197.369C86.9361 197.369 87.4531 197.51 87.8963 197.791C88.3423 198.072 88.6889 198.467 88.9361 198.976C89.1861 199.484 89.3111 200.08 89.3111 200.761C89.3111 201.437 89.1861 202.028 88.9361 202.534C88.6889 203.04 88.3423 203.433 87.8963 203.714C87.4531 203.996 86.9361 204.136 86.3452 204.136ZM86.3452 203.233C86.794 203.233 87.1634 203.118 87.4531 202.888C87.7429 202.658 87.9574 202.355 88.0966 201.98C88.2358 201.605 88.3054 201.199 88.3054 200.761C88.3054 200.324 88.2358 199.916 88.0966 199.538C87.9574 199.161 87.7429 198.855 87.4531 198.622C87.1634 198.389 86.794 198.273 86.3452 198.273C85.8963 198.273 85.527 198.389 85.2372 198.622C84.9474 198.855 84.733 199.161 84.5938 199.538C84.4545 199.916 84.3849 200.324 84.3849 200.761C84.3849 201.199 84.4545 201.605 84.5938 201.98C84.733 202.355 84.9474 202.658 85.2372 202.888C85.527 203.118 85.8963 203.233 86.3452 203.233ZM93.761 197.455V198.307H90.2326V197.455H93.761ZM91.2894 204V196.551C91.2894 196.176 91.3775 195.864 91.5536 195.614C91.7298 195.364 91.9585 195.176 92.2397 195.051C92.521 194.926 92.8178 194.864 93.1303 194.864C93.3775 194.864 93.5792 194.884 93.7354 194.923C93.8917 194.963 94.0082 195 94.0849 195.034L93.7951 195.903C93.744 195.886 93.6729 195.865 93.582 195.839C93.494 195.814 93.3775 195.801 93.2326 195.801C92.9002 195.801 92.6602 195.885 92.5124 196.053C92.3675 196.22 92.2951 196.466 92.2951 196.79V204H91.2894ZM98.0852 197.455V198.307H94.5568V197.455H98.0852ZM95.6136 204V196.551C95.6136 196.176 95.7017 195.864 95.8778 195.614C96.054 195.364 96.2827 195.176 96.5639 195.051C96.8452 194.926 97.142 194.864 97.4545 194.864C97.7017 194.864 97.9034 194.884 98.0597 194.923C98.2159 194.963 98.3324 195 98.4091 195.034L98.1193 195.903C98.0682 195.886 97.9972 195.865 97.9062 195.839C97.8182 195.814 97.7017 195.801 97.5568 195.801C97.2244 195.801 96.9844 195.885 96.8366 196.053C96.6918 196.22 96.6193 196.466 96.6193 196.79V204H95.6136Z" fill="#167F2F"/>
<circle cx="106" cy="200" r="3" fill="#167F2F"/>
<path d="M118.83 197.455C118.778 197.023 118.571 196.688 118.207 196.449C117.844 196.21 117.398 196.091 116.869 196.091C116.483 196.091 116.145 196.153 115.855 196.278C115.568 196.403 115.344 196.575 115.182 196.794C115.023 197.013 114.943 197.261 114.943 197.54C114.943 197.773 114.999 197.973 115.109 198.141C115.223 198.305 115.368 198.443 115.544 198.554C115.72 198.662 115.905 198.751 116.098 198.822C116.291 198.891 116.469 198.946 116.631 198.989L117.517 199.227C117.744 199.287 117.997 199.369 118.276 199.474C118.557 199.58 118.825 199.723 119.081 199.905C119.339 200.084 119.553 200.314 119.72 200.595C119.888 200.876 119.972 201.222 119.972 201.631C119.972 202.102 119.848 202.528 119.601 202.909C119.357 203.29 118.999 203.592 118.527 203.817C118.058 204.041 117.489 204.153 116.818 204.153C116.193 204.153 115.652 204.053 115.195 203.851C114.74 203.649 114.382 203.368 114.121 203.007C113.862 202.646 113.716 202.227 113.682 201.75H114.773C114.801 202.08 114.912 202.352 115.105 202.568C115.301 202.781 115.548 202.94 115.847 203.045C116.148 203.148 116.472 203.199 116.818 203.199C117.222 203.199 117.584 203.134 117.905 203.003C118.226 202.869 118.48 202.685 118.668 202.449C118.855 202.21 118.949 201.932 118.949 201.614C118.949 201.324 118.868 201.088 118.706 200.906C118.544 200.724 118.331 200.577 118.067 200.463C117.803 200.349 117.517 200.25 117.21 200.165L116.136 199.858C115.455 199.662 114.915 199.382 114.517 199.018C114.119 198.655 113.92 198.179 113.92 197.591C113.92 197.102 114.053 196.676 114.317 196.312C114.584 195.946 114.942 195.662 115.391 195.46C115.842 195.256 116.347 195.153 116.903 195.153C117.466 195.153 117.966 195.254 118.403 195.456C118.841 195.655 119.188 195.928 119.443 196.274C119.702 196.621 119.838 197.014 119.852 197.455H118.83ZM123.499 204.153C123.084 204.153 122.708 204.075 122.37 203.919C122.032 203.76 121.763 203.531 121.564 203.233C121.365 202.932 121.266 202.568 121.266 202.142C121.266 201.767 121.34 201.463 121.488 201.23C121.635 200.994 121.833 200.81 122.08 200.676C122.327 200.543 122.6 200.443 122.898 200.378C123.199 200.31 123.502 200.256 123.806 200.216C124.203 200.165 124.526 200.126 124.773 200.101C125.023 200.072 125.205 200.026 125.319 199.96C125.435 199.895 125.493 199.781 125.493 199.619V199.585C125.493 199.165 125.378 198.838 125.148 198.605C124.921 198.372 124.576 198.256 124.113 198.256C123.632 198.256 123.256 198.361 122.983 198.571C122.711 198.781 122.519 199.006 122.408 199.244L121.453 198.903C121.624 198.506 121.851 198.196 122.135 197.974C122.422 197.75 122.735 197.594 123.073 197.506C123.414 197.415 123.749 197.369 124.078 197.369C124.289 197.369 124.53 197.395 124.803 197.446C125.078 197.494 125.344 197.595 125.6 197.749C125.858 197.902 126.073 198.134 126.243 198.443C126.414 198.753 126.499 199.168 126.499 199.688V204H125.493V203.114H125.442C125.374 203.256 125.26 203.408 125.101 203.57C124.942 203.732 124.73 203.869 124.466 203.983C124.202 204.097 123.88 204.153 123.499 204.153ZM123.652 203.25C124.05 203.25 124.385 203.172 124.658 203.016C124.934 202.859 125.141 202.658 125.28 202.411C125.422 202.163 125.493 201.903 125.493 201.631V200.71C125.451 200.761 125.357 200.808 125.212 200.851C125.07 200.891 124.905 200.926 124.718 200.957C124.533 200.986 124.353 201.011 124.176 201.034C124.003 201.054 123.863 201.071 123.755 201.085C123.493 201.119 123.249 201.175 123.022 201.251C122.797 201.325 122.615 201.437 122.476 201.588C122.34 201.736 122.272 201.937 122.272 202.193C122.272 202.543 122.401 202.807 122.659 202.986C122.921 203.162 123.252 203.25 123.652 203.25ZM133.452 197.455L131.032 204H130.009L127.589 197.455H128.68L130.487 202.67H130.555L132.362 197.455H133.452ZM137.29 204.136C136.659 204.136 136.115 203.997 135.658 203.719C135.203 203.438 134.852 203.045 134.605 202.543C134.361 202.037 134.239 201.449 134.239 200.778C134.239 200.108 134.361 199.517 134.605 199.006C134.852 198.491 135.196 198.091 135.636 197.804C136.08 197.514 136.597 197.369 137.188 197.369C137.528 197.369 137.865 197.426 138.197 197.54C138.53 197.653 138.832 197.838 139.105 198.094C139.378 198.347 139.595 198.682 139.757 199.099C139.919 199.517 140 200.031 140 200.642V201.068H134.955V200.199H138.977C138.977 199.83 138.903 199.5 138.756 199.21C138.611 198.92 138.403 198.692 138.134 198.524C137.866 198.357 137.551 198.273 137.188 198.273C136.787 198.273 136.44 198.372 136.148 198.571C135.858 198.767 135.635 199.023 135.479 199.338C135.322 199.653 135.244 199.991 135.244 200.352V200.932C135.244 201.426 135.33 201.845 135.5 202.189C135.673 202.53 135.913 202.79 136.22 202.969C136.527 203.145 136.884 203.233 137.29 203.233C137.554 203.233 137.793 203.196 138.006 203.122C138.222 203.045 138.408 202.932 138.564 202.781C138.72 202.628 138.841 202.437 138.926 202.21L139.898 202.483C139.795 202.812 139.624 203.102 139.382 203.352C139.141 203.599 138.842 203.793 138.487 203.932C138.132 204.068 137.733 204.136 137.29 204.136ZM147.462 205.091V194.182H148.161V205.091H147.462ZM149.814 197.455C149.763 197.023 149.555 196.688 149.192 196.449C148.828 196.21 148.382 196.091 147.854 196.091C147.467 196.091 147.129 196.153 146.839 196.278C146.553 196.403 146.328 196.575 146.166 196.794C146.007 197.013 145.928 197.261 145.928 197.54C145.928 197.773 145.983 197.973 146.094 198.141C146.207 198.305 146.352 198.443 146.528 198.554C146.705 198.662 146.889 198.751 147.082 198.822C147.276 198.891 147.453 198.946 147.615 198.989L148.501 199.227C148.729 199.287 148.982 199.369 149.26 199.474C149.541 199.58 149.81 199.723 150.065 199.905C150.324 200.084 150.537 200.314 150.705 200.595C150.872 200.876 150.956 201.222 150.956 201.631C150.956 202.102 150.832 202.528 150.585 202.909C150.341 203.29 149.983 203.592 149.511 203.817C149.043 204.041 148.473 204.153 147.803 204.153C147.178 204.153 146.636 204.053 146.179 203.851C145.724 203.649 145.366 203.368 145.105 203.007C144.847 202.646 144.7 202.227 144.666 201.75H145.757C145.786 202.08 145.896 202.352 146.089 202.568C146.286 202.781 146.533 202.94 146.831 203.045C147.132 203.148 147.456 203.199 147.803 203.199C148.206 203.199 148.568 203.134 148.889 203.003C149.21 202.869 149.464 202.685 149.652 202.449C149.839 202.21 149.933 201.932 149.933 201.614C149.933 201.324 149.852 201.088 149.69 200.906C149.528 200.724 149.315 200.577 149.051 200.463C148.787 200.349 148.501 200.25 148.195 200.165L147.121 199.858C146.439 199.662 145.899 199.382 145.501 199.018C145.104 198.655 144.905 198.179 144.905 197.591C144.905 197.102 145.037 196.676 145.301 196.312C145.568 195.946 145.926 195.662 146.375 195.46C146.827 195.256 147.331 195.153 147.888 195.153C148.45 195.153 148.95 195.254 149.388 195.456C149.825 195.655 150.172 195.928 150.428 196.274C150.686 196.621 150.822 197.014 150.837 197.455H149.814ZM155.438 204.119C155.08 204.114 154.722 204.045 154.364 203.915C154.006 203.784 153.679 203.564 153.384 203.254C153.088 202.942 152.851 202.52 152.672 201.989C152.493 201.455 152.404 200.784 152.404 199.977C152.404 199.205 152.476 198.52 152.621 197.923C152.766 197.324 152.976 196.82 153.252 196.411C153.527 195.999 153.86 195.686 154.249 195.473C154.641 195.26 155.083 195.153 155.574 195.153C156.063 195.153 156.498 195.251 156.878 195.447C157.262 195.641 157.574 195.911 157.816 196.257C158.057 196.604 158.213 197.003 158.284 197.455H157.245C157.148 197.062 156.961 196.737 156.682 196.479C156.404 196.22 156.034 196.091 155.574 196.091C154.898 196.091 154.365 196.385 153.976 196.973C153.59 197.561 153.395 198.386 153.392 199.449H153.461C153.62 199.207 153.809 199.001 154.027 198.831C154.249 198.658 154.493 198.524 154.76 198.43C155.027 198.337 155.31 198.29 155.608 198.29C156.108 198.29 156.566 198.415 156.98 198.665C157.395 198.912 157.728 199.254 157.978 199.692C158.228 200.126 158.353 200.625 158.353 201.188C158.353 201.727 158.232 202.222 157.99 202.67C157.749 203.116 157.409 203.472 156.972 203.736C156.537 203.997 156.026 204.125 155.438 204.119ZM155.438 203.182C155.796 203.182 156.117 203.092 156.401 202.913C156.688 202.734 156.914 202.494 157.078 202.193C157.246 201.892 157.33 201.557 157.33 201.188C157.33 200.827 157.249 200.499 157.087 200.203C156.928 199.905 156.708 199.668 156.426 199.491C156.148 199.315 155.83 199.227 155.472 199.227C155.202 199.227 154.951 199.281 154.718 199.389C154.485 199.494 154.28 199.639 154.104 199.824C153.931 200.009 153.794 200.22 153.695 200.459C153.596 200.695 153.546 200.943 153.546 201.205C153.546 201.551 153.627 201.875 153.789 202.176C153.953 202.477 154.178 202.72 154.462 202.905C154.749 203.089 155.074 203.182 155.438 203.182Z" fill="#167F2F"/>
<line x1="20" y1="236.5" x2="270" y2="236.5" stroke="#DBE5EA"/>
<path d="M42.2727 266.455L39.8523 273H38.8295L36.4091 266.455H37.5L39.3068 271.67H39.375L41.1818 266.455H42.2727ZM48.2365 267.92L47.3331 268.176C47.2763 268.026 47.1925 267.879 47.0817 267.737C46.9737 267.592 46.826 267.473 46.6385 267.379C46.451 267.286 46.2109 267.239 45.9183 267.239C45.5178 267.239 45.1839 267.331 44.9169 267.516C44.6527 267.697 44.5206 267.929 44.5206 268.21C44.5206 268.46 44.6115 268.658 44.7933 268.803C44.9751 268.947 45.2592 269.068 45.6456 269.165L46.6172 269.403C47.2024 269.545 47.6385 269.763 47.9254 270.055C48.2124 270.345 48.3558 270.719 48.3558 271.176C48.3558 271.551 48.2479 271.886 48.032 272.182C47.8189 272.477 47.5206 272.71 47.1371 272.881C46.7536 273.051 46.3075 273.136 45.799 273.136C45.1314 273.136 44.5788 272.991 44.1413 272.702C43.7038 272.412 43.4268 271.989 43.3104 271.432L44.2649 271.193C44.3558 271.545 44.5277 271.81 44.7805 271.986C45.0362 272.162 45.37 272.25 45.782 272.25C46.2507 272.25 46.6229 272.151 46.8984 271.952C47.1768 271.75 47.3161 271.509 47.3161 271.227C47.3161 271 47.2365 270.81 47.0774 270.656C46.9183 270.5 46.674 270.384 46.3445 270.307L45.2536 270.051C44.6541 269.909 44.2138 269.689 43.9325 269.391C43.6541 269.089 43.5149 268.713 43.5149 268.261C43.5149 267.892 43.6186 267.565 43.826 267.281C44.0362 266.997 44.3217 266.774 44.6825 266.612C45.0462 266.45 45.4581 266.369 45.9183 266.369C46.5661 266.369 47.0746 266.511 47.4439 266.795C47.8161 267.08 48.0803 267.455 48.2365 267.92ZM55.8015 274.091V263.182H56.5004V274.091H55.8015ZM58.1538 266.455C58.1026 266.023 57.8952 265.688 57.5316 265.449C57.168 265.21 56.7219 265.091 56.1935 265.091C55.8072 265.091 55.4691 265.153 55.1793 265.278C54.8924 265.403 54.668 265.575 54.506 265.794C54.3469 266.013 54.2674 266.261 54.2674 266.54C54.2674 266.773 54.3228 266.973 54.4336 267.141C54.5472 267.305 54.6921 267.443 54.8683 267.554C55.0444 267.662 55.229 267.751 55.4222 267.822C55.6154 267.891 55.793 267.946 55.9549 267.989L56.8413 268.227C57.0685 268.287 57.3214 268.369 57.5998 268.474C57.881 268.58 58.1495 268.723 58.4052 268.905C58.6637 269.084 58.8768 269.314 59.0444 269.595C59.212 269.876 59.2958 270.222 59.2958 270.631C59.2958 271.102 59.1722 271.528 58.9251 271.909C58.6808 272.29 58.3228 272.592 57.8512 272.817C57.3825 273.041 56.8129 273.153 56.1424 273.153C55.5174 273.153 54.9762 273.053 54.5188 272.851C54.0643 272.649 53.7063 272.368 53.445 272.007C53.1864 271.646 53.0401 271.227 53.006 270.75H54.0969C54.1254 271.08 54.2362 271.352 54.4293 271.568C54.6254 271.781 54.8725 271.94 55.1708 272.045C55.4719 272.148 55.7958 272.199 56.1424 272.199C56.5458 272.199 56.908 272.134 57.229 272.003C57.5501 271.869 57.8043 271.685 57.9918 271.449C58.1793 271.21 58.2731 270.932 58.2731 270.614C58.2731 270.324 58.1921 270.088 58.0302 269.906C57.8683 269.724 57.6552 269.577 57.391 269.463C57.1268 269.349 56.8413 269.25 56.5344 269.165L55.4606 268.858C54.7788 268.662 54.239 268.382 53.8413 268.018C53.4435 267.655 53.2447 267.179 53.2447 266.591C53.2447 266.102 53.3768 265.676 53.641 265.312C53.908 264.946 54.266 264.662 54.7148 264.46C55.1665 264.256 55.6708 264.153 56.2276 264.153C56.7901 264.153 57.2901 264.254 57.7276 264.456C58.1651 264.655 58.5117 264.928 58.7674 265.274C59.0259 265.621 59.1623 266.014 59.1765 266.455H58.1538ZM63.9482 264.273V273H62.8913V265.381H62.8402L60.7095 266.795V265.722L62.8913 264.273H63.9482ZM66.7308 273L70.6342 265.278V265.21H66.1342V264.273H71.7251V265.261L67.8388 273H66.7308ZM72.4059 271.21V270.341L76.2411 264.273H76.8718V265.619H76.4457L73.5479 270.205V270.273H78.7127V271.21H72.4059ZM76.5138 273V270.946V270.541V264.273H77.5195V273H76.5138ZM80.6495 273.068C80.4393 273.068 80.2589 272.993 80.1083 272.842C79.9577 272.692 79.8825 272.511 79.8825 272.301C79.8825 272.091 79.9577 271.911 80.1083 271.76C80.2589 271.609 80.4393 271.534 80.6495 271.534C80.8597 271.534 81.0401 271.609 81.1907 271.76C81.3413 271.911 81.4165 272.091 81.4165 272.301C81.4165 272.44 81.381 272.568 81.31 272.685C81.2418 272.801 81.1495 272.895 81.033 272.966C80.9194 273.034 80.7915 273.068 80.6495 273.068ZM85.7557 273.119C85.2557 273.119 84.8054 273.02 84.4048 272.821C84.0043 272.622 83.6832 272.349 83.4418 272.003C83.2003 271.656 83.0682 271.261 83.0455 270.818H84.0682C84.108 271.213 84.2869 271.54 84.6051 271.798C84.9261 272.054 85.3097 272.182 85.7557 272.182C86.1136 272.182 86.4318 272.098 86.7102 271.93C86.9915 271.763 87.2116 271.533 87.3707 271.24C87.5327 270.945 87.6136 270.611 87.6136 270.239C87.6136 269.858 87.5298 269.518 87.3622 269.22C87.1974 268.919 86.9702 268.682 86.6804 268.509C86.3906 268.335 86.0597 268.247 85.6875 268.244C85.4205 268.241 85.1463 268.283 84.8651 268.368C84.5838 268.45 84.3523 268.557 84.1705 268.688L83.1818 268.568L83.7102 264.273H88.2443V265.21H84.5966L84.2898 267.784H84.3409C84.5199 267.642 84.7443 267.524 85.0142 267.43C85.2841 267.337 85.5653 267.29 85.858 267.29C86.392 267.29 86.8679 267.418 87.2855 267.673C87.706 267.926 88.0355 268.273 88.2741 268.713C88.5156 269.153 88.6364 269.656 88.6364 270.222C88.6364 270.778 88.5114 271.276 88.2614 271.713C88.0142 272.148 87.6733 272.491 87.2386 272.744C86.804 272.994 86.3097 273.119 85.7557 273.119ZM95.6474 273.153C95.2326 273.153 94.8562 273.075 94.5181 272.919C94.18 272.76 93.9116 272.531 93.7127 272.233C93.5138 271.932 93.4144 271.568 93.4144 271.142C93.4144 270.767 93.4883 270.463 93.636 270.23C93.7837 269.994 93.9812 269.81 94.2283 269.676C94.4755 269.543 94.7482 269.443 95.0465 269.378C95.3477 269.31 95.6502 269.256 95.9542 269.216C96.3519 269.165 96.6744 269.126 96.9215 269.101C97.1715 269.072 97.3533 269.026 97.467 268.96C97.5835 268.895 97.6417 268.781 97.6417 268.619V268.585C97.6417 268.165 97.5266 267.838 97.2965 267.605C97.0692 267.372 96.7241 267.256 96.261 267.256C95.7809 267.256 95.4045 267.361 95.1317 267.571C94.859 267.781 94.6673 268.006 94.5565 268.244L93.6019 267.903C93.7724 267.506 93.9996 267.196 94.2837 266.974C94.5707 266.75 94.8832 266.594 95.2212 266.506C95.5621 266.415 95.8974 266.369 96.2269 266.369C96.4371 266.369 96.6786 266.395 96.9513 266.446C97.2269 266.494 97.4925 266.595 97.7482 266.749C98.0067 266.902 98.2212 267.134 98.3917 267.443C98.5621 267.753 98.6474 268.168 98.6474 268.688V273H97.6417V272.114H97.5906C97.5224 272.256 97.4087 272.408 97.2496 272.57C97.0906 272.732 96.8789 272.869 96.6147 272.983C96.3505 273.097 96.0281 273.153 95.6474 273.153ZM95.8008 272.25C96.1985 272.25 96.5337 272.172 96.8065 272.016C97.082 271.859 97.2894 271.658 97.4286 271.411C97.5707 271.163 97.6417 270.903 97.6417 270.631V269.71C97.5991 269.761 97.5053 269.808 97.3604 269.851C97.2184 269.891 97.0536 269.926 96.8661 269.957C96.6815 269.986 96.5011 270.011 96.3249 270.034C96.1516 270.054 96.011 270.071 95.9031 270.085C95.6417 270.119 95.3974 270.175 95.1701 270.251C94.9457 270.325 94.7638 270.437 94.6246 270.588C94.4883 270.736 94.4201 270.937 94.4201 271.193C94.4201 271.543 94.5494 271.807 94.8079 271.986C95.0692 272.162 95.4002 272.25 95.8008 272.25ZM103.33 266.455V267.307H99.9375V266.455H103.33ZM100.926 264.886H101.932V271.125C101.932 271.409 101.973 271.622 102.055 271.764C102.141 271.903 102.249 271.997 102.379 272.045C102.513 272.091 102.653 272.114 102.801 272.114C102.912 272.114 103.003 272.108 103.074 272.097C103.145 272.082 103.202 272.071 103.244 272.062L103.449 272.966C103.381 272.991 103.286 273.017 103.163 273.043C103.041 273.071 102.886 273.085 102.699 273.085C102.415 273.085 102.136 273.024 101.864 272.902C101.594 272.78 101.369 272.594 101.19 272.344C101.014 272.094 100.926 271.778 100.926 271.398V264.886ZM108.354 273V264.273H109.359V267.494H109.445C109.518 267.381 109.621 267.236 109.751 267.06C109.885 266.881 110.075 266.722 110.322 266.582C110.572 266.44 110.911 266.369 111.337 266.369C111.888 266.369 112.374 266.507 112.794 266.783C113.214 267.058 113.543 267.449 113.778 267.955C114.014 268.46 114.132 269.057 114.132 269.744C114.132 270.438 114.014 271.038 113.778 271.547C113.543 272.053 113.216 272.445 112.798 272.723C112.381 272.999 111.899 273.136 111.354 273.136C110.933 273.136 110.597 273.067 110.344 272.928C110.091 272.786 109.896 272.625 109.76 272.446C109.624 272.264 109.518 272.114 109.445 271.994H109.325V273H108.354ZM109.342 269.727C109.342 270.222 109.415 270.658 109.56 271.036C109.705 271.411 109.916 271.705 110.195 271.918C110.473 272.128 110.814 272.233 111.217 272.233C111.638 272.233 111.989 272.122 112.27 271.901C112.554 271.676 112.767 271.375 112.909 270.997C113.054 270.616 113.126 270.193 113.126 269.727C113.126 269.267 113.055 268.852 112.913 268.483C112.774 268.111 112.563 267.817 112.278 267.601C111.997 267.382 111.643 267.273 111.217 267.273C110.808 267.273 110.464 267.376 110.186 267.584C109.908 267.788 109.697 268.075 109.555 268.445C109.413 268.811 109.342 269.239 109.342 269.727ZM117.597 273.153C117.182 273.153 116.805 273.075 116.467 272.919C116.129 272.76 115.861 272.531 115.662 272.233C115.463 271.932 115.364 271.568 115.364 271.142C115.364 270.767 115.438 270.463 115.585 270.23C115.733 269.994 115.93 269.81 116.178 269.676C116.425 269.543 116.697 269.443 116.996 269.378C117.297 269.31 117.599 269.256 117.903 269.216C118.301 269.165 118.624 269.126 118.871 269.101C119.121 269.072 119.303 269.026 119.416 268.96C119.533 268.895 119.591 268.781 119.591 268.619V268.585C119.591 268.165 119.476 267.838 119.246 267.605C119.018 267.372 118.673 267.256 118.21 267.256C117.73 267.256 117.354 267.361 117.081 267.571C116.808 267.781 116.616 268.006 116.506 268.244L115.551 267.903C115.722 267.506 115.949 267.196 116.233 266.974C116.52 266.75 116.832 266.594 117.17 266.506C117.511 266.415 117.847 266.369 118.176 266.369C118.386 266.369 118.628 266.395 118.901 266.446C119.176 266.494 119.442 266.595 119.697 266.749C119.956 266.902 120.17 267.134 120.341 267.443C120.511 267.753 120.597 268.168 120.597 268.688V273H119.591V272.114H119.54C119.472 272.256 119.358 272.408 119.199 272.57C119.04 272.732 118.828 272.869 118.564 272.983C118.3 273.097 117.977 273.153 117.597 273.153ZM117.75 272.25C118.148 272.25 118.483 272.172 118.756 272.016C119.031 271.859 119.239 271.658 119.378 271.411C119.52 271.163 119.591 270.903 119.591 270.631V269.71C119.548 269.761 119.455 269.808 119.31 269.851C119.168 269.891 119.003 269.926 118.815 269.957C118.631 269.986 118.45 270.011 118.274 270.034C118.101 270.054 117.96 270.071 117.852 270.085C117.591 270.119 117.347 270.175 117.119 270.251C116.895 270.325 116.713 270.437 116.574 270.588C116.438 270.736 116.369 270.937 116.369 271.193C116.369 271.543 116.499 271.807 116.757 271.986C117.018 272.162 117.349 272.25 117.75 272.25ZM127.069 267.92L126.165 268.176C126.108 268.026 126.025 267.879 125.914 267.737C125.806 267.592 125.658 267.473 125.471 267.379C125.283 267.286 125.043 267.239 124.75 267.239C124.35 267.239 124.016 267.331 123.749 267.516C123.485 267.697 123.353 267.929 123.353 268.21C123.353 268.46 123.444 268.658 123.625 268.803C123.807 268.947 124.091 269.068 124.478 269.165L125.449 269.403C126.034 269.545 126.471 269.763 126.757 270.055C127.044 270.345 127.188 270.719 127.188 271.176C127.188 271.551 127.08 271.886 126.864 272.182C126.651 272.477 126.353 272.71 125.969 272.881C125.586 273.051 125.14 273.136 124.631 273.136C123.963 273.136 123.411 272.991 122.973 272.702C122.536 272.412 122.259 271.989 122.142 271.432L123.097 271.193C123.188 271.545 123.36 271.81 123.613 271.986C123.868 272.162 124.202 272.25 124.614 272.25C125.083 272.25 125.455 272.151 125.73 271.952C126.009 271.75 126.148 271.509 126.148 271.227C126.148 271 126.069 270.81 125.909 270.656C125.75 270.5 125.506 270.384 125.176 270.307L124.086 270.051C123.486 269.909 123.046 269.689 122.765 269.391C122.486 269.089 122.347 268.713 122.347 268.261C122.347 267.892 122.451 267.565 122.658 267.281C122.868 266.997 123.154 266.774 123.515 266.612C123.878 266.45 124.29 266.369 124.75 266.369C125.398 266.369 125.907 266.511 126.276 266.795C126.648 267.08 126.912 267.455 127.069 267.92ZM131.446 273.136C130.815 273.136 130.271 272.997 129.814 272.719C129.359 272.438 129.009 272.045 128.761 271.543C128.517 271.037 128.395 270.449 128.395 269.778C128.395 269.108 128.517 268.517 128.761 268.006C129.009 267.491 129.352 267.091 129.793 266.804C130.236 266.514 130.753 266.369 131.344 266.369C131.685 266.369 132.021 266.426 132.354 266.54C132.686 266.653 132.989 266.838 133.261 267.094C133.534 267.347 133.751 267.682 133.913 268.099C134.075 268.517 134.156 269.031 134.156 269.642V270.068H129.111V269.199H133.134C133.134 268.83 133.06 268.5 132.912 268.21C132.767 267.92 132.56 267.692 132.29 267.524C132.023 267.357 131.707 267.273 131.344 267.273C130.943 267.273 130.597 267.372 130.304 267.571C130.014 267.767 129.791 268.023 129.635 268.338C129.479 268.653 129.401 268.991 129.401 269.352V269.932C129.401 270.426 129.486 270.845 129.656 271.189C129.83 271.53 130.07 271.79 130.376 271.969C130.683 272.145 131.04 272.233 131.446 272.233C131.71 272.233 131.949 272.196 132.162 272.122C132.378 272.045 132.564 271.932 132.72 271.781C132.876 271.628 132.997 271.437 133.082 271.21L134.054 271.483C133.952 271.812 133.78 272.102 133.538 272.352C133.297 272.599 132.999 272.793 132.643 272.932C132.288 273.068 131.889 273.136 131.446 273.136ZM139.061 275.455V266.455H140.033V267.494H140.152C140.226 267.381 140.328 267.236 140.459 267.06C140.592 266.881 140.783 266.722 141.03 266.582C141.28 266.44 141.618 266.369 142.044 266.369C142.595 266.369 143.081 266.507 143.501 266.783C143.922 267.058 144.25 267.449 144.486 267.955C144.722 268.46 144.839 269.057 144.839 269.744C144.839 270.438 144.722 271.038 144.486 271.547C144.25 272.053 143.923 272.445 143.506 272.723C143.088 272.999 142.607 273.136 142.061 273.136C141.641 273.136 141.304 273.067 141.051 272.928C140.798 272.786 140.604 272.625 140.467 272.446C140.331 272.264 140.226 272.114 140.152 271.994H140.067V275.455H139.061ZM140.05 269.727C140.05 270.222 140.122 270.658 140.267 271.036C140.412 271.411 140.624 271.705 140.902 271.918C141.18 272.128 141.521 272.233 141.925 272.233C142.345 272.233 142.696 272.122 142.977 271.901C143.261 271.676 143.474 271.375 143.616 270.997C143.761 270.616 143.834 270.193 143.834 269.727C143.834 269.267 143.763 268.852 143.621 268.483C143.482 268.111 143.27 267.817 142.986 267.601C142.705 267.382 142.351 267.273 141.925 267.273C141.516 267.273 141.172 267.376 140.893 267.584C140.615 267.788 140.405 268.075 140.263 268.445C140.121 268.811 140.05 269.239 140.05 269.727ZM146.374 273V266.455H147.345V267.443H147.413C147.533 267.119 147.749 266.857 148.061 266.655C148.374 266.453 148.726 266.352 149.118 266.352C149.192 266.352 149.284 266.354 149.395 266.357C149.506 266.359 149.589 266.364 149.646 266.369V267.392C149.612 267.384 149.534 267.371 149.412 267.354C149.293 267.334 149.166 267.324 149.033 267.324C148.714 267.324 148.43 267.391 148.18 267.524C147.933 267.655 147.737 267.837 147.592 268.07C147.45 268.3 147.379 268.562 147.379 268.858V273H146.374ZM150.838 273V266.455H151.844V273H150.838ZM151.35 265.364C151.154 265.364 150.985 265.297 150.843 265.163C150.703 265.03 150.634 264.869 150.634 264.682C150.634 264.494 150.703 264.334 150.843 264.2C150.985 264.067 151.154 264 151.35 264C151.546 264 151.713 264.067 151.853 264.2C151.995 264.334 152.066 264.494 152.066 264.682C152.066 264.869 151.995 265.03 151.853 265.163C151.713 265.297 151.546 265.364 151.35 265.364ZM156.345 273.136C155.732 273.136 155.203 272.991 154.76 272.702C154.317 272.412 153.976 272.013 153.737 271.504C153.499 270.996 153.379 270.415 153.379 269.761C153.379 269.097 153.501 268.51 153.746 268.001C153.993 267.49 154.337 267.091 154.777 266.804C155.22 266.514 155.737 266.369 156.328 266.369C156.788 266.369 157.203 266.455 157.572 266.625C157.942 266.795 158.244 267.034 158.48 267.341C158.716 267.648 158.862 268.006 158.919 268.415H157.913C157.837 268.116 157.666 267.852 157.402 267.622C157.141 267.389 156.788 267.273 156.345 267.273C155.953 267.273 155.609 267.375 155.314 267.58C155.021 267.781 154.793 268.067 154.628 268.436C154.466 268.803 154.385 269.233 154.385 269.727C154.385 270.233 154.464 270.673 154.624 271.048C154.786 271.423 155.013 271.714 155.305 271.922C155.601 272.129 155.947 272.233 156.345 272.233C156.607 272.233 156.844 272.188 157.057 272.097C157.27 272.006 157.45 271.875 157.598 271.705C157.746 271.534 157.851 271.33 157.913 271.091H158.919C158.862 271.477 158.722 271.825 158.497 272.135C158.276 272.442 157.982 272.686 157.615 272.868C157.251 273.047 156.828 273.136 156.345 273.136ZM163.134 273.136C162.503 273.136 161.959 272.997 161.501 272.719C161.047 272.438 160.696 272.045 160.449 271.543C160.205 271.037 160.082 270.449 160.082 269.778C160.082 269.108 160.205 268.517 160.449 268.006C160.696 267.491 161.04 267.091 161.48 266.804C161.923 266.514 162.44 266.369 163.031 266.369C163.372 266.369 163.709 266.426 164.041 266.54C164.374 266.653 164.676 266.838 164.949 267.094C165.222 267.347 165.439 267.682 165.601 268.099C165.763 268.517 165.844 269.031 165.844 269.642V270.068H160.798V269.199H164.821C164.821 268.83 164.747 268.5 164.599 268.21C164.455 267.92 164.247 267.692 163.977 267.524C163.71 267.357 163.395 267.273 163.031 267.273C162.631 267.273 162.284 267.372 161.991 267.571C161.702 267.767 161.479 268.023 161.322 268.338C161.166 268.653 161.088 268.991 161.088 269.352V269.932C161.088 270.426 161.173 270.845 161.344 271.189C161.517 271.53 161.757 271.79 162.064 271.969C162.371 272.145 162.727 272.233 163.134 272.233C163.398 272.233 163.636 272.196 163.849 272.122C164.065 272.045 164.251 271.932 164.408 271.781C164.564 271.628 164.685 271.437 164.77 271.21L165.741 271.483C165.639 271.812 165.467 272.102 165.226 272.352C164.984 272.599 164.686 272.793 164.331 272.932C163.976 273.068 163.577 273.136 163.134 273.136Z" fill="#066966"/>
<g filter="url(#filter1_d_1694_29699)">
<rect x="36.5" y="289.5" width="217" height="39" rx="19.5" stroke="#00A89D" shape-rendering="crispEdges"/>
<path d="M76.0043 314V303.818H79.8224C80.6046 303.818 81.2609 303.964 81.7912 304.256C82.3248 304.547 82.7275 304.948 82.9993 305.459C83.2744 305.966 83.4119 306.543 83.4119 307.189C83.4119 307.842 83.2744 308.422 82.9993 308.929C82.7242 309.436 82.3182 309.835 81.7812 310.127C81.2443 310.415 80.5831 310.56 79.7976 310.56H77.267V309.043H79.549C80.0064 309.043 80.3809 308.964 80.6726 308.805C80.9643 308.646 81.1797 308.427 81.3189 308.148C81.4614 307.87 81.5327 307.55 81.5327 307.189C81.5327 306.828 81.4614 306.509 81.3189 306.234C81.1797 305.959 80.9626 305.746 80.6676 305.593C80.3759 305.437 79.9998 305.359 79.5391 305.359H77.8487V314H76.0043ZM89.8017 310.788V306.364H91.6014V314H89.8564V312.643H89.7768C89.6045 313.07 89.3211 313.42 88.9267 313.692C88.5356 313.964 88.0533 314.099 87.4799 314.099C86.9795 314.099 86.537 313.988 86.1525 313.766C85.7714 313.541 85.4731 313.214 85.2576 312.787C85.0422 312.356 84.9345 311.836 84.9345 311.226V306.364H86.7342V310.947C86.7342 311.431 86.8668 311.816 87.1319 312.101C87.3971 312.386 87.7451 312.528 88.176 312.528C88.4411 312.528 88.698 312.464 88.9466 312.335C89.1951 312.205 89.399 312.013 89.5581 311.758C89.7205 311.499 89.8017 311.176 89.8017 310.788ZM93.4521 314V306.364H95.1971V307.636H95.2766C95.4158 307.196 95.6545 306.856 95.9925 306.617C96.3339 306.375 96.7234 306.254 97.1609 306.254C97.2603 306.254 97.3713 306.259 97.494 306.269C97.6199 306.276 97.7243 306.287 97.8072 306.304V307.96C97.7309 307.933 97.61 307.91 97.4442 307.89C97.2818 307.867 97.1244 307.855 96.9719 307.855C96.6438 307.855 96.3488 307.926 96.087 308.069C95.8285 308.208 95.6246 308.402 95.4755 308.651C95.3263 308.899 95.2518 309.186 95.2518 309.511V314H93.4521ZM102.019 314.149C101.257 314.149 100.602 313.982 100.056 313.647C99.512 313.312 99.0927 312.85 98.7978 312.26C98.5061 311.667 98.3603 310.984 98.3603 310.212C98.3603 309.436 98.5094 308.752 98.8077 308.158C99.106 307.562 99.5269 307.098 100.07 306.766C100.617 306.432 101.264 306.264 102.009 306.264C102.629 306.264 103.178 306.379 103.655 306.607C104.136 306.833 104.518 307.152 104.803 307.567C105.088 307.978 105.251 308.458 105.291 309.009H103.57C103.501 308.641 103.335 308.334 103.073 308.089C102.815 307.84 102.468 307.716 102.034 307.716C101.666 307.716 101.343 307.815 101.065 308.014C100.786 308.21 100.569 308.491 100.414 308.859C100.261 309.227 100.185 309.668 100.185 310.182C100.185 310.702 100.261 311.15 100.414 311.524C100.566 311.895 100.78 312.182 101.055 312.384C101.333 312.583 101.66 312.683 102.034 312.683C102.299 312.683 102.536 312.633 102.745 312.533C102.957 312.431 103.135 312.283 103.277 312.091C103.42 311.899 103.517 311.665 103.57 311.39H105.291C105.248 311.93 105.088 312.409 104.813 312.827C104.538 313.241 104.164 313.566 103.69 313.801C103.216 314.033 102.659 314.149 102.019 314.149ZM108.568 309.526V314H106.768V303.818H108.528V307.661H108.618C108.797 307.23 109.074 306.891 109.448 306.642C109.826 306.39 110.307 306.264 110.89 306.264C111.42 306.264 111.883 306.375 112.277 306.597C112.671 306.819 112.976 307.144 113.192 307.572C113.411 307.999 113.52 308.521 113.52 309.138V314H111.72V309.416C111.72 308.902 111.588 308.503 111.322 308.218C111.061 307.93 110.693 307.786 110.219 307.786C109.901 307.786 109.616 307.855 109.364 307.994C109.115 308.13 108.92 308.327 108.777 308.586C108.638 308.844 108.568 309.158 108.568 309.526ZM117.552 314.154C117.068 314.154 116.632 314.068 116.244 313.896C115.86 313.72 115.555 313.461 115.33 313.12C115.107 312.779 114.996 312.358 114.996 311.857C114.996 311.426 115.076 311.07 115.235 310.788C115.394 310.507 115.611 310.281 115.886 310.112C116.161 309.943 116.471 309.816 116.816 309.729C117.164 309.64 117.524 309.575 117.895 309.536C118.342 309.489 118.705 309.448 118.984 309.411C119.262 309.371 119.464 309.312 119.59 309.232C119.719 309.149 119.784 309.022 119.784 308.849V308.82C119.784 308.445 119.673 308.155 119.451 307.95C119.229 307.744 118.909 307.641 118.491 307.641C118.051 307.641 117.701 307.737 117.442 307.93C117.187 308.122 117.015 308.349 116.925 308.611L115.245 308.372C115.378 307.908 115.596 307.52 115.901 307.209C116.206 306.894 116.579 306.659 117.02 306.503C117.461 306.344 117.948 306.264 118.482 306.264C118.849 306.264 119.216 306.307 119.58 306.393C119.945 306.48 120.278 306.622 120.58 306.821C120.881 307.017 121.123 307.283 121.305 307.621C121.491 307.96 121.584 308.382 121.584 308.889V314H119.854V312.951H119.794C119.685 313.163 119.531 313.362 119.332 313.548C119.136 313.73 118.889 313.877 118.591 313.99C118.296 314.099 117.95 314.154 117.552 314.154ZM118.019 312.832C118.38 312.832 118.694 312.76 118.959 312.618C119.224 312.472 119.428 312.28 119.57 312.041C119.716 311.803 119.789 311.542 119.789 311.261V310.361C119.733 310.407 119.637 310.45 119.501 310.49C119.368 310.53 119.219 310.565 119.053 310.594C118.888 310.624 118.723 310.651 118.561 310.674C118.399 310.697 118.258 310.717 118.138 310.734C117.87 310.77 117.63 310.83 117.418 310.913C117.205 310.996 117.038 311.112 116.915 311.261C116.793 311.406 116.732 311.595 116.732 311.827C116.732 312.159 116.853 312.409 117.094 312.578C117.336 312.747 117.645 312.832 118.019 312.832ZM129.429 308.382L127.788 308.561C127.742 308.395 127.661 308.24 127.545 308.094C127.432 307.948 127.28 307.83 127.087 307.741C126.895 307.651 126.66 307.607 126.381 307.607C126.007 307.607 125.692 307.688 125.437 307.85C125.185 308.013 125.061 308.223 125.064 308.482C125.061 308.704 125.142 308.884 125.308 309.023C125.477 309.163 125.755 309.277 126.143 309.366L127.445 309.645C128.168 309.801 128.705 310.048 129.056 310.386C129.411 310.724 129.59 311.166 129.593 311.713C129.59 312.194 129.449 312.618 129.17 312.986C128.895 313.35 128.513 313.635 128.022 313.841C127.531 314.046 126.968 314.149 126.332 314.149C125.397 314.149 124.645 313.954 124.075 313.562C123.504 313.168 123.165 312.62 123.055 311.917L124.81 311.748C124.89 312.093 125.059 312.353 125.317 312.528C125.576 312.704 125.912 312.792 126.327 312.792C126.754 312.792 127.097 312.704 127.356 312.528C127.618 312.353 127.749 312.136 127.749 311.877C127.749 311.658 127.664 311.478 127.495 311.335C127.329 311.193 127.071 311.083 126.719 311.007L125.417 310.734C124.684 310.581 124.143 310.324 123.791 309.963C123.44 309.598 123.266 309.138 123.269 308.581C123.266 308.11 123.393 307.703 123.652 307.358C123.914 307.01 124.277 306.741 124.741 306.553C125.208 306.36 125.747 306.264 126.357 306.264C127.251 306.264 127.956 306.455 128.469 306.836C128.987 307.217 129.306 307.732 129.429 308.382ZM134.458 314.149C133.692 314.149 133.031 313.99 132.474 313.672C131.921 313.35 131.495 312.896 131.196 312.31C130.898 311.72 130.749 311.025 130.749 310.227C130.749 309.441 130.898 308.752 131.196 308.158C131.498 307.562 131.919 307.098 132.459 306.766C132.999 306.432 133.634 306.264 134.363 306.264C134.834 306.264 135.278 306.34 135.696 306.493C136.117 306.642 136.488 306.874 136.809 307.189C137.134 307.504 137.389 307.905 137.575 308.392C137.761 308.876 137.853 309.453 137.853 310.122V310.674H131.594V309.461H136.128C136.125 309.116 136.05 308.81 135.904 308.541C135.759 308.269 135.555 308.056 135.293 307.9C135.034 307.744 134.733 307.666 134.388 307.666C134.02 307.666 133.697 307.756 133.419 307.935C133.14 308.11 132.923 308.342 132.767 308.631C132.615 308.916 132.537 309.229 132.534 309.57V310.629C132.534 311.073 132.615 311.455 132.777 311.773C132.94 312.088 133.167 312.33 133.458 312.499C133.75 312.664 134.092 312.747 134.483 312.747C134.744 312.747 134.981 312.711 135.194 312.638C135.406 312.562 135.59 312.451 135.745 312.305C135.901 312.159 136.019 311.978 136.098 311.763L137.779 311.952C137.673 312.396 137.471 312.784 137.172 313.115C136.877 313.443 136.499 313.698 136.039 313.881C135.578 314.06 135.051 314.149 134.458 314.149ZM142.481 305.364V303.818H150.604V305.364H147.457V314H145.628V305.364H142.481ZM154.314 314.149C153.569 314.149 152.922 313.985 152.375 313.657C151.828 313.329 151.404 312.87 151.103 312.28C150.804 311.69 150.655 311 150.655 310.212C150.655 309.423 150.804 308.732 151.103 308.138C151.404 307.545 151.828 307.085 152.375 306.756C152.922 306.428 153.569 306.264 154.314 306.264C155.06 306.264 155.706 306.428 156.253 306.756C156.8 307.085 157.223 307.545 157.521 308.138C157.823 308.732 157.973 309.423 157.973 310.212C157.973 311 157.823 311.69 157.521 312.28C157.223 312.87 156.8 313.329 156.253 313.657C155.706 313.985 155.06 314.149 154.314 314.149ZM154.324 312.707C154.729 312.707 155.067 312.596 155.338 312.374C155.61 312.149 155.812 311.847 155.945 311.469C156.081 311.092 156.149 310.671 156.149 310.207C156.149 309.739 156.081 309.317 155.945 308.939C155.812 308.558 155.61 308.254 155.338 308.029C155.067 307.804 154.729 307.691 154.324 307.691C153.91 307.691 153.565 307.804 153.29 308.029C153.018 308.254 152.815 308.558 152.679 308.939C152.546 309.317 152.48 309.739 152.48 310.207C152.48 310.671 152.546 311.092 152.679 311.469C152.815 311.847 153.018 312.149 153.29 312.374C153.565 312.596 153.91 312.707 154.324 312.707ZM161.142 311.604L161.137 309.431H161.425L164.169 306.364H166.272L162.896 310.122H162.524L161.142 311.604ZM159.501 314V303.818H161.301V314H159.501ZM164.294 314L161.808 310.525L163.021 309.257L166.446 314H164.294ZM170.538 314.149C169.772 314.149 169.111 313.99 168.554 313.672C168.001 313.35 167.575 312.896 167.276 312.31C166.978 311.72 166.829 311.025 166.829 310.227C166.829 309.441 166.978 308.752 167.276 308.158C167.578 307.562 167.999 307.098 168.539 306.766C169.079 306.432 169.714 306.264 170.443 306.264C170.914 306.264 171.358 306.34 171.776 306.493C172.197 306.642 172.568 306.874 172.889 307.189C173.214 307.504 173.469 307.905 173.655 308.392C173.841 308.876 173.933 309.453 173.933 310.122V310.674H167.674V309.461H172.208C172.205 309.116 172.13 308.81 171.985 308.541C171.839 308.269 171.635 308.056 171.373 307.9C171.115 307.744 170.813 307.666 170.468 307.666C170.1 307.666 169.777 307.756 169.499 307.935C169.22 308.11 169.003 308.342 168.847 308.631C168.695 308.916 168.617 309.229 168.614 309.57V310.629C168.614 311.073 168.695 311.455 168.857 311.773C169.02 312.088 169.247 312.33 169.539 312.499C169.83 312.664 170.172 312.747 170.563 312.747C170.825 312.747 171.061 312.711 171.274 312.638C171.486 312.562 171.67 312.451 171.825 312.305C171.981 312.159 172.099 311.978 172.178 311.763L173.859 311.952C173.753 312.396 173.551 312.784 173.252 313.115C172.957 313.443 172.579 313.698 172.119 313.881C171.658 314.06 171.131 314.149 170.538 314.149ZM177.256 309.526V314H175.456V306.364H177.176V307.661H177.266C177.441 307.234 177.721 306.894 178.106 306.642C178.494 306.39 178.973 306.264 179.543 306.264C180.07 306.264 180.529 306.377 180.92 306.602C181.314 306.828 181.619 307.154 181.835 307.582C182.053 308.009 182.161 308.528 182.158 309.138V314H180.358V309.416C180.358 308.906 180.225 308.506 179.96 308.218C179.698 307.93 179.335 307.786 178.871 307.786C178.557 307.786 178.277 307.855 178.031 307.994C177.789 308.13 177.599 308.327 177.46 308.586C177.324 308.844 177.256 309.158 177.256 309.526ZM190.023 308.382L188.382 308.561C188.336 308.395 188.254 308.24 188.138 308.094C188.026 307.948 187.873 307.83 187.681 307.741C187.489 307.651 187.254 307.607 186.975 307.607C186.601 307.607 186.286 307.688 186.031 307.85C185.779 308.013 185.654 308.223 185.658 308.482C185.654 308.704 185.736 308.884 185.901 309.023C186.07 309.163 186.349 309.277 186.737 309.366L188.039 309.645C188.762 309.801 189.299 310.048 189.65 310.386C190.004 310.724 190.183 311.166 190.187 311.713C190.183 312.194 190.043 312.618 189.764 312.986C189.489 313.35 189.106 313.635 188.616 313.841C188.125 314.046 187.562 314.149 186.925 314.149C185.991 314.149 185.238 313.954 184.668 313.562C184.098 313.168 183.759 312.62 183.649 311.917L185.404 311.748C185.484 312.093 185.653 312.353 185.911 312.528C186.17 312.704 186.506 312.792 186.92 312.792C187.348 312.792 187.691 312.704 187.95 312.528C188.211 312.353 188.342 312.136 188.342 311.877C188.342 311.658 188.258 311.478 188.089 311.335C187.923 311.193 187.665 311.083 187.313 311.007L186.011 310.734C185.278 310.581 184.736 310.324 184.385 309.963C184.034 309.598 183.86 309.138 183.863 308.581C183.86 308.11 183.987 307.703 184.246 307.358C184.508 307.01 184.871 306.741 185.335 306.553C185.802 306.36 186.34 306.264 186.95 306.264C187.845 306.264 188.549 306.455 189.063 306.836C189.58 307.217 189.9 307.732 190.023 308.382Z" fill="#00A89D"/>
<path d="M208.62 304.953L212.667 309L208.62 313.046" stroke="#00A89D" stroke-width="1.5" stroke-miterlimit="10" stroke-linecap="round" stroke-linejoin="round"/>
<path d="M201.333 309H212.553" stroke="#00A89D" stroke-width="1.5" stroke-miterlimit="10" stroke-linecap="round" stroke-linejoin="round"/>
</g>
</g>
<rect x="20.5" y="20.5" width="249" height="328" rx="23.5" stroke="#EBF1F4"/>
</g>
<defs>
<filter id="filter0_d_1694_29699" x="0" y="0" width="298" height="377" filterUnits="userSpaceOnUse" color-interpolation-filters="sRGB">
<feFlood flood-opacity="0" result="BackgroundImageFix"/>
<feColorMatrix in="SourceAlpha" type="matrix" values="0 0 0 0 0 0 0 0 0 0 0 0 0 0 0 0 0 0 127 0" result="hardAlpha"/>
<feOffset dx="4" dy="4"/>
<feGaussianBlur stdDeviation="12"/>
<feComposite in2="hardAlpha" operator="out"/>
<feColorMatrix type="matrix" values="0 0 0 0 0 0 0 0 0 0 0 0 0 0 0 0 0 0 0.05 0"/>
<feBlend mode="normal" in2="BackgroundImageFix" result="effect1_dropShadow_1694_29699"/>
<feBlend mode="normal" in="SourceGraphic" in2="effect1_dropShadow_1694_29699" result="shape"/>
</filter>
<filter id="filter1_d_1694_29699" x="18" y="271" width="266" height="88" filterUnits="userSpaceOnUse" color-interpolation-filters="sRGB">
<feFlood flood-opacity="0" result="BackgroundImageFix"/>
<feColorMatrix in="SourceAlpha" type="matrix" values="0 0 0 0 0 0 0 0 0 0 0 0 0 0 0 0 0 0 127 0" result="hardAlpha"/>
<feOffset dx="6" dy="6"/>
<feGaussianBlur stdDeviation="12"/>
<feComposite in2="hardAlpha" operator="out"/>
<feColorMatrix type="matrix" values="0 0 0 0 0 0 0 0 0 0.815686 0 0 0 0 0.74902 0 0 0 0.08 0"/>
<feBlend mode="normal" in2="BackgroundImageFix" result="effect1_dropShadow_1694_29699"/>
<feBlend mode="normal" in="SourceGraphic" in2="effect1_dropShadow_1694_29699" result="shape"/>
</filter>
<clipPath id="clip0_1694_29699">
<rect x="20" y="20" width="250" height="329" rx="24" fill="white"/>
</clipPath>
<clipPath id="clip1_1694_29699">
<rect width="14" height="14" fill="white" transform="translate(44 193)"/>
</clipPath>
</defs>
</svg>
