<svg width="298" height="377" viewBox="0 0 298 377" fill="none" xmlns="http://www.w3.org/2000/svg">
<g filter="url(#filter0_d_1694_29731)">
<g clip-path="url(#clip0_1694_29731)">
<rect x="20" y="20" width="250" height="329" rx="24" fill="white"/>
<path d="M43.3239 45.7102C43.2784 45.2519 43.0833 44.8958 42.7386 44.642C42.3939 44.3883 41.9261 44.2614 41.3352 44.2614C40.9337 44.2614 40.5947 44.3182 40.3182 44.4318C40.0417 44.5417 39.8295 44.6951 39.6818 44.892C39.5379 45.089 39.4659 45.3125 39.4659 45.5625C39.4583 45.7708 39.5019 45.9527 39.5966 46.108C39.6951 46.2633 39.8295 46.3977 40 46.5114C40.1705 46.6212 40.3674 46.7178 40.5909 46.8011C40.8144 46.8807 41.053 46.9489 41.3068 47.0057L42.3523 47.2557C42.8598 47.3693 43.3258 47.5208 43.75 47.7102C44.1742 47.8996 44.5417 48.1326 44.8523 48.4091C45.1629 48.6856 45.4034 49.0114 45.5739 49.3864C45.7481 49.7614 45.8371 50.1913 45.8409 50.6761C45.8371 51.3883 45.6553 52.0057 45.2955 52.5284C44.9394 53.0473 44.4242 53.4508 43.75 53.7386C43.0795 54.0227 42.2708 54.1648 41.3239 54.1648C40.3845 54.1648 39.5663 54.0208 38.8693 53.733C38.1761 53.4451 37.6345 53.0189 37.2443 52.4545C36.858 51.8864 36.6553 51.1837 36.6364 50.3466H39.017C39.0436 50.7367 39.1553 51.0625 39.3523 51.3239C39.553 51.5814 39.8201 51.7765 40.1534 51.9091C40.4905 52.0379 40.8712 52.1023 41.2955 52.1023C41.7121 52.1023 42.0739 52.0417 42.3807 51.9205C42.6913 51.7992 42.9318 51.6307 43.1023 51.4148C43.2727 51.1989 43.358 50.9508 43.358 50.6705C43.358 50.4091 43.2803 50.1894 43.125 50.0114C42.9735 49.8333 42.75 49.6818 42.4545 49.5568C42.1629 49.4318 41.8049 49.3182 41.3807 49.2159L40.1136 48.8977C39.1326 48.6591 38.358 48.286 37.7898 47.7784C37.2216 47.2708 36.9394 46.5871 36.9432 45.7273C36.9394 45.0227 37.1269 44.4072 37.5057 43.8807C37.8883 43.3542 38.4129 42.9432 39.0795 42.6477C39.7462 42.3523 40.5038 42.2045 41.3523 42.2045C42.2159 42.2045 42.9697 42.3523 43.6136 42.6477C44.2614 42.9432 44.7652 43.3542 45.125 43.8807C45.4848 44.4072 45.6705 45.017 45.6818 45.7102H43.3239ZM52.0923 45.2727V47.0909H46.8366V45.2727H52.0923ZM48.0298 43.1818H50.4503V51.3182C50.4503 51.5417 50.4844 51.7159 50.5526 51.8409C50.6207 51.9621 50.7154 52.0473 50.8366 52.0966C50.9616 52.1458 51.1056 52.1705 51.2685 52.1705C51.3821 52.1705 51.4957 52.161 51.6094 52.142C51.723 52.1193 51.8101 52.1023 51.8707 52.0909L52.2514 53.892C52.1302 53.9299 51.9598 53.9735 51.7401 54.0227C51.5204 54.0758 51.2533 54.108 50.9389 54.1193C50.3556 54.142 49.8442 54.0644 49.4048 53.8864C48.9692 53.7083 48.6302 53.4318 48.3878 53.0568C48.1454 52.6818 48.026 52.2083 48.0298 51.6364V43.1818ZM56.1577 54.1648C55.6009 54.1648 55.1046 54.0682 54.669 53.875C54.2334 53.678 53.8887 53.3883 53.6349 53.0057C53.3849 52.6193 53.2599 52.1383 53.2599 51.5625C53.2599 51.0777 53.349 50.6705 53.527 50.3409C53.705 50.0114 53.9474 49.7462 54.2543 49.5455C54.5611 49.3447 54.9096 49.1932 55.2997 49.0909C55.6937 48.9886 56.1065 48.9167 56.5384 48.875C57.0459 48.822 57.455 48.7727 57.7656 48.7273C58.0762 48.678 58.3016 48.6061 58.4418 48.5114C58.5819 48.4167 58.652 48.2765 58.652 48.0909V48.0568C58.652 47.697 58.5384 47.4186 58.3111 47.2216C58.0876 47.0246 57.7694 46.9261 57.3565 46.9261C56.9209 46.9261 56.5743 47.0227 56.3168 47.2159C56.0592 47.4053 55.8887 47.6439 55.8054 47.9318L53.5668 47.75C53.6804 47.2197 53.9039 46.7614 54.2372 46.375C54.5705 45.9848 55.0005 45.6856 55.527 45.4773C56.0573 45.2652 56.6709 45.1591 57.3679 45.1591C57.8527 45.1591 58.3168 45.2159 58.7599 45.3295C59.2069 45.4432 59.6027 45.6193 59.9474 45.858C60.2959 46.0966 60.5705 46.4034 60.7713 46.7784C60.9721 47.1496 61.0724 47.5947 61.0724 48.1136V54H58.777V52.7898H58.7088C58.5687 53.0625 58.3812 53.303 58.1463 53.5114C57.9115 53.7159 57.6293 53.8769 57.2997 53.9943C56.9702 54.108 56.5895 54.1648 56.1577 54.1648ZM56.8509 52.4943C57.2069 52.4943 57.5213 52.4242 57.794 52.2841C58.0668 52.1402 58.2808 51.947 58.4361 51.7045C58.5914 51.4621 58.669 51.1875 58.669 50.8807V49.9545C58.5933 50.0038 58.4891 50.0492 58.3565 50.0909C58.2277 50.1288 58.0819 50.1648 57.919 50.1989C57.7562 50.2292 57.5933 50.2576 57.4304 50.2841C57.2675 50.3068 57.1198 50.3277 56.9872 50.3466C56.7031 50.3883 56.455 50.4545 56.2429 50.5455C56.0308 50.6364 55.866 50.7595 55.7486 50.9148C55.6312 51.0663 55.5724 51.2557 55.5724 51.483C55.5724 51.8125 55.6918 52.0644 55.9304 52.2386C56.1728 52.4091 56.4796 52.4943 56.8509 52.4943ZM65.3707 48.9545V54H62.9503V45.2727H65.2571V46.8125H65.3594C65.5526 46.3049 65.8764 45.9034 66.331 45.608C66.7855 45.3087 67.3366 45.1591 67.9844 45.1591C68.5904 45.1591 69.1188 45.2917 69.5696 45.5568C70.0204 45.822 70.3707 46.2008 70.6207 46.6932C70.8707 47.1818 70.9957 47.7652 70.9957 48.4432V54H68.5753V48.875C68.5791 48.3409 68.4427 47.9242 68.1662 47.625C67.8897 47.322 67.509 47.1705 67.0241 47.1705C66.6984 47.1705 66.4105 47.2405 66.1605 47.3807C65.9143 47.5208 65.7211 47.7254 65.581 47.9943C65.4446 48.2595 65.3745 48.5795 65.3707 48.9545ZM76.1193 54.142C75.4564 54.142 74.8561 53.9716 74.3182 53.6307C73.7841 53.286 73.3598 52.7803 73.0455 52.1136C72.7348 51.4432 72.5795 50.6212 72.5795 49.6477C72.5795 48.6477 72.7405 47.8163 73.0625 47.1534C73.3845 46.4867 73.8125 45.9886 74.3466 45.6591C74.8845 45.3258 75.4735 45.1591 76.1136 45.1591C76.6023 45.1591 77.0095 45.2424 77.3352 45.4091C77.6648 45.572 77.9299 45.7765 78.1307 46.0227C78.3352 46.2652 78.4905 46.5038 78.5966 46.7386H78.6705V42.3636H81.0852V54H78.6989V52.6023H78.5966C78.483 52.8447 78.322 53.0852 78.1136 53.3239C77.9091 53.5587 77.642 53.7538 77.3125 53.9091C76.9867 54.0644 76.589 54.142 76.1193 54.142ZM76.8864 52.2159C77.2765 52.2159 77.6061 52.1098 77.875 51.8977C78.1477 51.6818 78.3561 51.3807 78.5 50.9943C78.6477 50.608 78.7216 50.1553 78.7216 49.6364C78.7216 49.1174 78.6496 48.6667 78.5057 48.2841C78.3617 47.9015 78.1534 47.6061 77.8807 47.3977C77.608 47.1894 77.2765 47.0852 76.8864 47.0852C76.4886 47.0852 76.1534 47.1932 75.8807 47.4091C75.608 47.625 75.4015 47.9242 75.2614 48.3068C75.1212 48.6894 75.0511 49.1326 75.0511 49.6364C75.0511 50.1439 75.1212 50.5928 75.2614 50.983C75.4053 51.3693 75.6117 51.6723 75.8807 51.892C76.1534 52.108 76.4886 52.2159 76.8864 52.2159ZM85.5639 54.1648C85.0071 54.1648 84.5109 54.0682 84.0753 53.875C83.6397 53.678 83.295 53.3883 83.0412 53.0057C82.7912 52.6193 82.6662 52.1383 82.6662 51.5625C82.6662 51.0777 82.7552 50.6705 82.9332 50.3409C83.1113 50.0114 83.3537 49.7462 83.6605 49.5455C83.9673 49.3447 84.3158 49.1932 84.706 49.0909C85.0999 48.9886 85.5128 48.9167 85.9446 48.875C86.4522 48.822 86.8613 48.7727 87.1719 48.7273C87.4825 48.678 87.7079 48.6061 87.848 48.5114C87.9882 48.4167 88.0582 48.2765 88.0582 48.0909V48.0568C88.0582 47.697 87.9446 47.4186 87.7173 47.2216C87.4938 47.0246 87.1757 46.9261 86.7628 46.9261C86.3272 46.9261 85.9806 47.0227 85.723 47.2159C85.4654 47.4053 85.295 47.6439 85.2116 47.9318L82.973 47.75C83.0866 47.2197 83.3101 46.7614 83.6435 46.375C83.9768 45.9848 84.4067 45.6856 84.9332 45.4773C85.4635 45.2652 86.0772 45.1591 86.7741 45.1591C87.259 45.1591 87.723 45.2159 88.1662 45.3295C88.6132 45.4432 89.009 45.6193 89.3537 45.858C89.7022 46.0966 89.9768 46.4034 90.1776 46.7784C90.3783 47.1496 90.4787 47.5947 90.4787 48.1136V54H88.1832V52.7898H88.1151C87.9749 53.0625 87.7874 53.303 87.5526 53.5114C87.3177 53.7159 87.0355 53.8769 86.706 53.9943C86.3764 54.108 85.9957 54.1648 85.5639 54.1648ZM86.2571 52.4943C86.6132 52.4943 86.9276 52.4242 87.2003 52.2841C87.473 52.1402 87.687 51.947 87.8423 51.7045C87.9976 51.4621 88.0753 51.1875 88.0753 50.8807V49.9545C87.9995 50.0038 87.8954 50.0492 87.7628 50.0909C87.634 50.1288 87.4882 50.1648 87.3253 50.1989C87.1624 50.2292 86.9995 50.2576 86.8366 50.2841C86.6738 50.3068 86.526 50.3277 86.3935 50.3466C86.1094 50.3883 85.8613 50.4545 85.6491 50.5455C85.437 50.6364 85.2723 50.7595 85.1548 50.9148C85.0374 51.0663 84.9787 51.2557 84.9787 51.483C84.9787 51.8125 85.098 52.0644 85.3366 52.2386C85.5791 52.4091 85.8859 52.4943 86.2571 52.4943ZM92.3565 54V45.2727H94.7031V46.7955H94.794C94.9531 46.2538 95.2202 45.8447 95.5952 45.5682C95.9702 45.2879 96.402 45.1477 96.8906 45.1477C97.0118 45.1477 97.1425 45.1553 97.2827 45.1705C97.4228 45.1856 97.5459 45.2064 97.652 45.233V47.3807C97.5384 47.3466 97.3812 47.3163 97.1804 47.2898C96.9796 47.2633 96.7959 47.25 96.6293 47.25C96.2732 47.25 95.955 47.3277 95.6747 47.483C95.3982 47.6345 95.1785 47.8466 95.0156 48.1193C94.8565 48.392 94.777 48.7064 94.777 49.0625V54H92.3565ZM101.713 54.142C101.05 54.142 100.45 53.9716 99.9119 53.6307C99.3778 53.286 98.9536 52.7803 98.6392 52.1136C98.3286 51.4432 98.1733 50.6212 98.1733 49.6477C98.1733 48.6477 98.3343 47.8163 98.6562 47.1534C98.9782 46.4867 99.4063 45.9886 99.9403 45.6591C100.478 45.3258 101.067 45.1591 101.707 45.1591C102.196 45.1591 102.603 45.2424 102.929 45.4091C103.259 45.572 103.524 45.7765 103.724 46.0227C103.929 46.2652 104.084 46.5038 104.19 46.7386H104.264V42.3636H106.679V54H104.293V52.6023H104.19C104.077 52.8447 103.916 53.0852 103.707 53.3239C103.503 53.5587 103.236 53.7538 102.906 53.9091C102.58 54.0644 102.183 54.142 101.713 54.142ZM102.48 52.2159C102.87 52.2159 103.2 52.1098 103.469 51.8977C103.741 51.6818 103.95 51.3807 104.094 50.9943C104.241 50.608 104.315 50.1553 104.315 49.6364C104.315 49.1174 104.243 48.6667 104.099 48.2841C103.955 47.9015 103.747 47.6061 103.474 47.3977C103.202 47.1894 102.87 47.0852 102.48 47.0852C102.082 47.0852 101.747 47.1932 101.474 47.4091C101.202 47.625 100.995 47.9242 100.855 48.3068C100.715 48.6894 100.645 49.1326 100.645 49.6364C100.645 50.1439 100.715 50.5928 100.855 50.983C100.999 51.3693 101.205 51.6723 101.474 51.892C101.747 52.108 102.082 52.2159 102.48 52.2159Z" fill="#0A5753"/>
<rect x="173.5" y="40.5" width="80" height="27" rx="13.5" fill="#F0FDF2"/>
<rect x="173.5" y="40.5" width="80" height="27" rx="13.5" stroke="#BBF7C8"/>
<circle cx="184" cy="54" r="3" fill="#21BA45"/>
<path d="M197.83 51.4545C197.778 51.0227 197.571 50.6875 197.207 50.4489C196.844 50.2102 196.398 50.0909 195.869 50.0909C195.483 50.0909 195.145 50.1534 194.855 50.2784C194.568 50.4034 194.344 50.5753 194.182 50.794C194.023 51.0128 193.943 51.2614 193.943 51.5398C193.943 51.7727 193.999 51.973 194.109 52.1406C194.223 52.3054 194.368 52.4432 194.544 52.554C194.72 52.6619 194.905 52.7514 195.098 52.8224C195.291 52.8906 195.469 52.946 195.631 52.9886L196.517 53.2273C196.744 53.2869 196.997 53.3693 197.276 53.4744C197.557 53.5795 197.825 53.723 198.081 53.9048C198.339 54.0838 198.553 54.3139 198.72 54.5952C198.888 54.8764 198.972 55.2216 198.972 55.6307C198.972 56.1023 198.848 56.5284 198.601 56.9091C198.357 57.2898 197.999 57.5923 197.527 57.8168C197.058 58.0412 196.489 58.1534 195.818 58.1534C195.193 58.1534 194.652 58.0526 194.195 57.8509C193.74 57.6491 193.382 57.3679 193.121 57.0071C192.862 56.6463 192.716 56.2273 192.682 55.75H193.773C193.801 56.0795 193.912 56.3523 194.105 56.5682C194.301 56.7812 194.548 56.9403 194.847 57.0455C195.148 57.1477 195.472 57.1989 195.818 57.1989C196.222 57.1989 196.584 57.1335 196.905 57.0028C197.226 56.8693 197.48 56.6847 197.668 56.4489C197.855 56.2102 197.949 55.9318 197.949 55.6136C197.949 55.3239 197.868 55.0881 197.706 54.9062C197.544 54.7244 197.331 54.5767 197.067 54.4631C196.803 54.3494 196.517 54.25 196.21 54.1648L195.136 53.858C194.455 53.6619 193.915 53.3821 193.517 53.0185C193.119 52.6548 192.92 52.179 192.92 51.5909C192.92 51.1023 193.053 50.6761 193.317 50.3125C193.584 49.946 193.942 49.6619 194.391 49.4602C194.842 49.2557 195.347 49.1534 195.903 49.1534C196.466 49.1534 196.966 49.2543 197.403 49.456C197.841 49.6548 198.188 49.9276 198.443 50.2741C198.702 50.6207 198.838 51.0142 198.852 51.4545H197.83ZM202.499 58.1534C202.084 58.1534 201.708 58.0753 201.37 57.919C201.032 57.7599 200.763 57.5312 200.564 57.233C200.365 56.9318 200.266 56.5682 200.266 56.142C200.266 55.767 200.34 55.4631 200.488 55.2301C200.635 54.9943 200.833 54.8097 201.08 54.6761C201.327 54.5426 201.6 54.4432 201.898 54.3778C202.199 54.3097 202.502 54.2557 202.806 54.2159C203.203 54.1648 203.526 54.1264 203.773 54.1009C204.023 54.0724 204.205 54.0256 204.319 53.9602C204.435 53.8949 204.493 53.7812 204.493 53.6193V53.5852C204.493 53.1648 204.378 52.8381 204.148 52.6051C203.921 52.3722 203.576 52.2557 203.113 52.2557C202.632 52.2557 202.256 52.3608 201.983 52.571C201.711 52.7812 201.519 53.0057 201.408 53.2443L200.453 52.9034C200.624 52.5057 200.851 52.196 201.135 51.9744C201.422 51.75 201.735 51.5937 202.073 51.5057C202.414 51.4148 202.749 51.3693 203.078 51.3693C203.289 51.3693 203.53 51.3949 203.803 51.446C204.078 51.4943 204.344 51.5952 204.6 51.7486C204.858 51.902 205.073 52.1335 205.243 52.4432C205.414 52.7528 205.499 53.1676 205.499 53.6875V58H204.493V57.1136H204.442C204.374 57.2557 204.26 57.4077 204.101 57.5696C203.942 57.7315 203.73 57.8693 203.466 57.983C203.202 58.0966 202.88 58.1534 202.499 58.1534ZM202.652 57.25C203.05 57.25 203.385 57.1719 203.658 57.0156C203.934 56.8594 204.141 56.6577 204.28 56.4105C204.422 56.1634 204.493 55.9034 204.493 55.6307V54.7102C204.451 54.7614 204.357 54.8082 204.212 54.8509C204.07 54.8906 203.905 54.9261 203.718 54.9574C203.533 54.9858 203.353 55.0114 203.176 55.0341C203.003 55.054 202.863 55.071 202.755 55.0852C202.493 55.1193 202.249 55.1747 202.022 55.2514C201.797 55.3253 201.615 55.4375 201.476 55.5881C201.34 55.7358 201.272 55.9375 201.272 56.1932C201.272 56.5426 201.401 56.8068 201.659 56.9858C201.921 57.1619 202.252 57.25 202.652 57.25ZM212.452 51.4545L210.032 58H209.009L206.589 51.4545H207.68L209.487 56.6705H209.555L211.362 51.4545H212.452ZM216.29 58.1364C215.659 58.1364 215.115 57.9972 214.658 57.7188C214.203 57.4375 213.852 57.0455 213.605 56.5426C213.361 56.0369 213.239 55.4489 213.239 54.7784C213.239 54.108 213.361 53.517 213.605 53.0057C213.852 52.4915 214.196 52.0909 214.636 51.804C215.08 51.5142 215.597 51.3693 216.188 51.3693C216.528 51.3693 216.865 51.4261 217.197 51.5398C217.53 51.6534 217.832 51.8381 218.105 52.0938C218.378 52.3466 218.595 52.6818 218.757 53.0994C218.919 53.517 219 54.0312 219 54.642V55.0682H213.955V54.1989H217.977C217.977 53.8295 217.903 53.5 217.756 53.2102C217.611 52.9205 217.403 52.6918 217.134 52.5241C216.866 52.3565 216.551 52.2727 216.188 52.2727C215.787 52.2727 215.44 52.3722 215.148 52.571C214.858 52.767 214.635 53.0227 214.479 53.3381C214.322 53.6534 214.244 53.9915 214.244 54.3523V54.9318C214.244 55.4261 214.33 55.8452 214.5 56.1889C214.673 56.5298 214.913 56.7898 215.22 56.9688C215.527 57.1449 215.884 57.233 216.29 57.233C216.554 57.233 216.793 57.196 217.006 57.1222C217.222 57.0455 217.408 56.9318 217.564 56.7812C217.72 56.6278 217.841 56.4375 217.926 56.2102L218.898 56.483C218.795 56.8125 218.624 57.1023 218.382 57.3523C218.141 57.5994 217.842 57.7926 217.487 57.9318C217.132 58.0682 216.733 58.1364 216.29 58.1364ZM226.462 59.0909V48.1818H227.161V59.0909H226.462ZM228.814 51.4545C228.763 51.0227 228.555 50.6875 228.192 50.4489C227.828 50.2102 227.382 50.0909 226.854 50.0909C226.467 50.0909 226.129 50.1534 225.839 50.2784C225.553 50.4034 225.328 50.5753 225.166 50.794C225.007 51.0128 224.928 51.2614 224.928 51.5398C224.928 51.7727 224.983 51.973 225.094 52.1406C225.207 52.3054 225.352 52.4432 225.528 52.554C225.705 52.6619 225.889 52.7514 226.082 52.8224C226.276 52.8906 226.453 52.946 226.615 52.9886L227.501 53.2273C227.729 53.2869 227.982 53.3693 228.26 53.4744C228.541 53.5795 228.81 53.723 229.065 53.9048C229.324 54.0838 229.537 54.3139 229.705 54.5952C229.872 54.8764 229.956 55.2216 229.956 55.6307C229.956 56.1023 229.832 56.5284 229.585 56.9091C229.341 57.2898 228.983 57.5923 228.511 57.8168C228.043 58.0412 227.473 58.1534 226.803 58.1534C226.178 58.1534 225.636 58.0526 225.179 57.8509C224.724 57.6491 224.366 57.3679 224.105 57.0071C223.847 56.6463 223.7 56.2273 223.666 55.75H224.757C224.786 56.0795 224.896 56.3523 225.089 56.5682C225.286 56.7812 225.533 56.9403 225.831 57.0455C226.132 57.1477 226.456 57.1989 226.803 57.1989C227.206 57.1989 227.568 57.1335 227.889 57.0028C228.21 56.8693 228.464 56.6847 228.652 56.4489C228.839 56.2102 228.933 55.9318 228.933 55.6136C228.933 55.3239 228.852 55.0881 228.69 54.9062C228.528 54.7244 228.315 54.5767 228.051 54.4631C227.787 54.3494 227.501 54.25 227.195 54.1648L226.121 53.858C225.439 53.6619 224.899 53.3821 224.501 53.0185C224.104 52.6548 223.905 52.179 223.905 51.5909C223.905 51.1023 224.037 50.6761 224.301 50.3125C224.568 49.946 224.926 49.6619 225.375 49.4602C225.827 49.2557 226.331 49.1534 226.888 49.1534C227.45 49.1534 227.95 49.2543 228.388 49.456C228.825 49.6548 229.172 49.9276 229.428 50.2741C229.686 50.6207 229.822 51.0142 229.837 51.4545H228.814ZM234.319 49.1534C234.676 49.1562 235.034 49.2244 235.392 49.358C235.75 49.4915 236.077 49.7131 236.373 50.0227C236.668 50.3295 236.905 50.7486 237.084 51.2798C237.263 51.8111 237.353 52.4773 237.353 53.2784C237.353 54.054 237.279 54.7429 237.131 55.3452C236.986 55.9446 236.776 56.4503 236.5 56.8622C236.228 57.2741 235.895 57.5866 235.503 57.7997C235.114 58.0128 234.674 58.1193 234.182 58.1193C233.694 58.1193 233.257 58.0227 232.874 57.8295C232.493 57.6335 232.181 57.3622 231.936 57.0156C231.695 56.6662 231.54 56.2614 231.472 55.8011H232.512C232.605 56.2017 232.792 56.5327 233.07 56.794C233.351 57.0526 233.722 57.1818 234.182 57.1818C234.855 57.1818 235.387 56.8878 235.776 56.2997C236.168 55.7116 236.364 54.8807 236.364 53.8068H236.296C236.137 54.0455 235.948 54.2514 235.729 54.4247C235.51 54.598 235.267 54.7315 235 54.8253C234.733 54.919 234.449 54.9659 234.148 54.9659C233.648 54.9659 233.189 54.8423 232.772 54.5952C232.357 54.3452 232.025 54.0028 231.775 53.5682C231.527 53.1307 231.404 52.6307 231.404 52.0682C231.404 51.5341 231.523 51.0455 231.762 50.6023C232.003 50.1562 232.341 49.8011 232.776 49.5369C233.213 49.2727 233.728 49.1449 234.319 49.1534ZM234.319 50.0909C233.961 50.0909 233.638 50.1804 233.351 50.3594C233.067 50.5355 232.841 50.7741 232.674 51.0753C232.509 51.3736 232.426 51.7045 232.426 52.0682C232.426 52.4318 232.506 52.7628 232.665 53.0611C232.827 53.3565 233.047 53.5923 233.326 53.7685C233.607 53.9418 233.926 54.0284 234.284 54.0284C234.554 54.0284 234.806 53.9759 235.039 53.8707C235.272 53.7628 235.475 53.6165 235.648 53.4318C235.824 53.2443 235.962 53.0327 236.061 52.7969C236.161 52.5582 236.211 52.3097 236.211 52.0511C236.211 51.7102 236.128 51.3906 235.963 51.0923C235.801 50.794 235.577 50.5526 235.29 50.3679C235.006 50.1832 234.682 50.0909 234.319 50.0909ZM241.807 49.1534C242.165 49.1562 242.523 49.2244 242.881 49.358C243.239 49.4915 243.565 49.7131 243.861 50.0227C244.156 50.3295 244.393 50.7486 244.572 51.2798C244.751 51.8111 244.841 52.4773 244.841 53.2784C244.841 54.054 244.767 54.7429 244.619 55.3452C244.474 55.9446 244.264 56.4503 243.989 56.8622C243.716 57.2741 243.384 57.5866 242.991 57.7997C242.602 58.0128 242.162 58.1193 241.67 58.1193C241.182 58.1193 240.746 58.0227 240.362 57.8295C239.982 57.6335 239.669 57.3622 239.425 57.0156C239.183 56.6662 239.028 56.2614 238.96 55.8011H240C240.094 56.2017 240.28 56.5327 240.558 56.794C240.839 57.0526 241.21 57.1818 241.67 57.1818C242.344 57.1818 242.875 56.8878 243.264 56.2997C243.656 55.7116 243.852 54.8807 243.852 53.8068H243.784C243.625 54.0455 243.436 54.2514 243.217 54.4247C242.999 54.598 242.756 54.7315 242.489 54.8253C242.222 54.919 241.938 54.9659 241.636 54.9659C241.136 54.9659 240.678 54.8423 240.26 54.5952C239.845 54.3452 239.513 54.0028 239.263 53.5682C239.016 53.1307 238.892 52.6307 238.892 52.0682C238.892 51.5341 239.011 51.0455 239.25 50.6023C239.491 50.1562 239.83 49.8011 240.264 49.5369C240.702 49.2727 241.216 49.1449 241.807 49.1534ZM241.807 50.0909C241.449 50.0909 241.126 50.1804 240.839 50.3594C240.555 50.5355 240.33 50.7741 240.162 51.0753C239.997 51.3736 239.915 51.7045 239.915 52.0682C239.915 52.4318 239.994 52.7628 240.153 53.0611C240.315 53.3565 240.536 53.5923 240.814 53.7685C241.095 53.9418 241.415 54.0284 241.773 54.0284C242.043 54.0284 242.294 53.9759 242.527 53.8707C242.76 53.7628 242.963 53.6165 243.136 53.4318C243.313 53.2443 243.45 53.0327 243.55 52.7969C243.649 52.5582 243.699 52.3097 243.699 52.0511C243.699 51.7102 243.616 51.3906 243.452 51.0923C243.29 50.794 243.065 50.5526 242.778 50.3679C242.494 50.1832 242.17 50.0909 241.807 50.0909Z" fill="#21BA45"/>
<path d="M50.472 94.296C50.472 97.224 48.312 99.168 44.4 99.336V101.4H42.792V99.288C39.048 98.976 36.576 96.96 36.576 93.576H40.416C40.464 95.232 41.52 95.928 42.792 96.144V92.256L42.312 92.112C39.312 91.224 37.08 90.072 37.08 87.168C37.08 84.264 39.288 82.416 42.792 82.2V80.52H44.4V82.2C48.024 82.512 50.088 84.576 50.232 87.552H46.392C46.224 86.376 45.576 85.656 44.4 85.392V88.968C47.616 89.904 50.472 90.888 50.472 94.296ZM40.944 86.856C40.944 87.696 41.496 88.056 42.792 88.464V85.32C41.712 85.44 40.944 85.896 40.944 86.856ZM44.4 92.712V96.216C45.936 96.144 46.608 95.544 46.608 94.656C46.608 93.624 45.672 93.12 44.4 92.712ZM58.6041 99.384C55.3881 99.384 52.9641 97.464 52.4361 94.8H56.5641C56.6841 95.376 57.1641 96.336 58.6761 96.336C60.7401 96.336 61.6281 94.776 61.6281 92.616V92.352L61.5321 92.28C60.6681 93.096 59.4921 93.72 57.6681 93.72C54.2361 93.72 51.9561 91.272 51.9561 88.104C51.9561 84.432 54.4761 82.032 58.4601 82.032C63.9321 82.032 65.7081 86.16 65.7081 90.48C65.7081 96.48 62.8521 99.384 58.6041 99.384ZM58.7001 90.672C60.5001 90.672 61.5321 89.472 61.5321 87.888C61.5321 86.28 60.5001 85.08 58.7001 85.08C56.9241 85.08 55.8921 86.28 55.8921 87.888C55.8921 89.472 56.9241 90.672 58.7001 90.672ZM78.9219 99H74.8419V95.496H67.3299V91.488L74.8419 82.416H78.9219V92.208H81.3699V95.496H78.9219V99ZM74.8419 86.856L70.3299 92.208H74.8419V86.856ZM89.3306 99.384C86.1146 99.384 83.6906 97.464 83.1626 94.8H87.2906C87.4106 95.376 87.8906 96.336 89.4026 96.336C91.4666 96.336 92.3546 94.776 92.3546 92.616V92.352L92.2586 92.28C91.3946 93.096 90.2186 93.72 88.3946 93.72C84.9626 93.72 82.6826 91.272 82.6826 88.104C82.6826 84.432 85.2026 82.032 89.1866 82.032C94.6586 82.032 96.4346 86.16 96.4346 90.48C96.4346 96.48 93.5786 99.384 89.3306 99.384ZM89.4266 90.672C91.2266 90.672 92.2586 89.472 92.2586 87.888C92.2586 86.28 91.2266 85.08 89.4266 85.08C87.6506 85.08 86.6186 86.28 86.6186 87.888C86.6186 89.472 87.6506 90.672 89.4266 90.672Z" fill="#00928B"/>
<path d="M182.557 95.6392C181.875 95.6392 181.265 95.5215 180.728 95.2862C180.194 95.0509 179.772 94.7244 179.46 94.3068C179.152 93.8859 178.986 93.3987 178.963 92.8452H180.524C180.544 93.1468 180.645 93.4086 180.827 93.6307C181.013 93.8494 181.255 94.0185 181.553 94.1378C181.851 94.2571 182.183 94.3168 182.547 94.3168C182.948 94.3168 183.303 94.2472 183.611 94.108C183.923 93.9687 184.166 93.7749 184.342 93.5263C184.518 93.2744 184.606 92.9844 184.606 92.6562C184.606 92.3149 184.518 92.0149 184.342 91.7564C184.17 91.4946 183.916 91.2891 183.581 91.1399C183.25 90.9908 182.849 90.9162 182.378 90.9162H181.518V89.6634H182.378C182.756 89.6634 183.088 89.5954 183.373 89.4595C183.661 89.3236 183.886 89.1347 184.049 88.8928C184.211 88.6475 184.292 88.3608 184.292 88.0327C184.292 87.7178 184.221 87.4444 184.079 87.2124C183.939 86.977 183.741 86.7931 183.482 86.6605C183.227 86.5279 182.925 86.4616 182.577 86.4616C182.246 86.4616 181.936 86.523 181.648 86.6456C181.363 86.7649 181.131 86.9373 180.952 87.1626C180.773 87.3847 180.676 87.6515 180.663 87.9631H179.177C179.193 87.4129 179.356 86.929 179.664 86.5114C179.975 86.0937 180.386 85.7673 180.897 85.532C181.407 85.2966 181.974 85.179 182.597 85.179C183.25 85.179 183.814 85.3066 184.287 85.5618C184.765 85.8137 185.133 86.1501 185.391 86.571C185.653 86.992 185.782 87.4527 185.779 87.9531C185.782 88.5232 185.623 89.0071 185.302 89.4048C184.983 89.8026 184.559 90.0694 184.029 90.2053V90.2848C184.705 90.3875 185.229 90.656 185.6 91.0902C185.974 91.5244 186.16 92.063 186.157 92.706C186.16 93.2661 186.004 93.7682 185.689 94.2124C185.378 94.6565 184.952 95.0062 184.412 95.2614C183.872 95.5133 183.253 95.6392 182.557 95.6392ZM191.581 95.669C190.795 95.6657 190.124 95.4586 189.567 95.0476C189.01 94.6366 188.585 94.0384 188.29 93.2528C187.995 92.4673 187.847 91.5211 187.847 90.4141C187.847 89.3104 187.995 88.3674 188.29 87.5852C188.588 86.803 189.015 86.2064 189.572 85.7955C190.132 85.3845 190.802 85.179 191.581 85.179C192.36 85.179 193.028 85.3861 193.584 85.8004C194.141 86.2114 194.567 86.808 194.862 87.5902C195.16 88.3691 195.309 89.3104 195.309 90.4141C195.309 91.5244 195.162 92.4723 194.867 93.2578C194.572 94.04 194.146 94.6383 193.589 95.0526C193.032 95.4635 192.363 95.669 191.581 95.669ZM191.581 94.3416C192.27 94.3416 192.809 94.0052 193.197 93.3324C193.588 92.6596 193.783 91.6868 193.783 90.4141C193.783 89.5689 193.694 88.8546 193.515 88.2713C193.339 87.6847 193.086 87.2405 192.754 86.9389C192.426 86.634 192.035 86.4815 191.581 86.4815C190.895 86.4815 190.356 86.8196 189.965 87.4957C189.574 88.1719 189.377 89.1446 189.373 90.4141C189.373 91.2625 189.461 91.9801 189.637 92.5668C189.816 93.1501 190.069 93.5926 190.398 93.8942C190.726 94.1925 191.12 94.3416 191.581 94.3416ZM200.618 95.669C199.832 95.6657 199.161 95.4586 198.604 95.0476C198.048 94.6366 197.622 94.0384 197.327 93.2528C197.032 92.4673 196.884 91.5211 196.884 90.4141C196.884 89.3104 197.032 88.3674 197.327 87.5852C197.625 86.803 198.053 86.2064 198.609 85.7955C199.17 85.3845 199.839 85.179 200.618 85.179C201.397 85.179 202.065 85.3861 202.621 85.8004C203.178 86.2114 203.604 86.808 203.899 87.5902C204.197 88.3691 204.347 89.3104 204.347 90.4141C204.347 91.5244 204.199 92.4723 203.904 93.2578C203.609 94.04 203.183 94.6383 202.626 95.0526C202.07 95.4635 201.4 95.669 200.618 95.669ZM200.618 94.3416C201.307 94.3416 201.846 94.0052 202.234 93.3324C202.625 92.6596 202.82 91.6868 202.82 90.4141C202.82 89.5689 202.731 88.8546 202.552 88.2713C202.376 87.6847 202.123 87.2405 201.791 86.9389C201.463 86.634 201.072 86.4815 200.618 86.4815C199.932 86.4815 199.393 86.8196 199.002 87.4957C198.611 88.1719 198.414 89.1446 198.411 90.4141C198.411 91.2625 198.498 91.9801 198.674 92.5668C198.853 93.1501 199.107 93.5926 199.435 93.8942C199.763 94.1925 200.157 94.3416 200.618 94.3416ZM213.4 87.8636V89.0568H209.229V87.8636H213.4ZM210.347 86.0341H211.834V93.2578C211.834 93.5462 211.877 93.7633 211.963 93.9091C212.049 94.0516 212.16 94.1494 212.296 94.2024C212.435 94.2521 212.586 94.277 212.749 94.277C212.868 94.277 212.972 94.2687 213.062 94.2521C213.151 94.2356 213.221 94.2223 213.271 94.2124L213.539 95.4403C213.453 95.4735 213.33 95.5066 213.171 95.5398C213.012 95.5762 212.813 95.5961 212.575 95.5994C212.183 95.6061 211.819 95.5365 211.481 95.3906C211.143 95.2448 210.869 95.0194 210.661 94.7145C210.452 94.4096 210.347 94.0268 210.347 93.5661V86.0341ZM218.179 95.6541C217.463 95.6541 216.838 95.4901 216.305 95.1619C215.771 94.8338 215.357 94.3748 215.062 93.7848C214.767 93.1948 214.619 92.5054 214.619 91.7166C214.619 90.9245 214.767 90.2318 215.062 89.6385C215.357 89.0452 215.771 88.5845 216.305 88.2564C216.838 87.9283 217.463 87.7642 218.179 87.7642C218.895 87.7642 219.519 87.9283 220.053 88.2564C220.587 88.5845 221.001 89.0452 221.296 89.6385C221.591 90.2318 221.738 90.9245 221.738 91.7166C221.738 92.5054 221.591 93.1948 221.296 93.7848C221.001 94.3748 220.587 94.8338 220.053 95.1619C219.519 95.4901 218.895 95.6541 218.179 95.6541ZM218.184 94.4062C218.648 94.4062 219.032 94.2836 219.337 94.0384C219.642 93.7931 219.867 93.4666 220.013 93.0589C220.162 92.6513 220.237 92.2022 220.237 91.7116C220.237 91.2244 220.162 90.777 220.013 90.3693C219.867 89.9583 219.642 89.6286 219.337 89.38C219.032 89.1314 218.648 89.0071 218.184 89.0071C217.716 89.0071 217.329 89.1314 217.02 89.38C216.715 89.6286 216.488 89.9583 216.339 90.3693C216.193 90.777 216.121 91.2244 216.121 91.7116C216.121 92.2022 216.193 92.6513 216.339 93.0589C216.488 93.4666 216.715 93.7931 217.02 94.0384C217.329 94.2836 217.716 94.4062 218.184 94.4062ZM224.765 92.9098L224.755 91.0952H225.013L228.056 87.8636H229.836L226.366 91.5426H226.132L224.765 92.9098ZM223.398 95.5V85.3182H224.884V95.5H223.398ZM228.22 95.5L225.486 91.8707L226.51 90.8317L230.045 95.5H228.22ZM234.167 95.6541C233.415 95.6541 232.767 95.4934 232.224 95.1719C231.683 94.8471 231.266 94.3913 230.971 93.8047C230.679 93.2147 230.533 92.5237 230.533 91.7315C230.533 90.9493 230.679 90.2599 230.971 89.6634C231.266 89.0668 231.677 88.6011 232.204 88.2663C232.734 87.9316 233.354 87.7642 234.063 87.7642C234.494 87.7642 234.912 87.8355 235.316 87.978C235.72 88.1205 236.083 88.3442 236.405 88.6491C236.726 88.9541 236.98 89.3501 237.165 89.8374C237.351 90.3213 237.444 90.9096 237.444 91.6023V92.1293H231.373V91.0156H235.987C235.987 90.6245 235.907 90.2782 235.748 89.9766C235.589 89.6716 235.366 89.4313 235.077 89.2557C234.792 89.08 234.457 88.9922 234.073 88.9922C233.655 88.9922 233.291 89.0949 232.979 89.3004C232.671 89.5026 232.432 89.7678 232.263 90.0959C232.098 90.4207 232.015 90.7737 232.015 91.1548V92.0249C232.015 92.5353 232.104 92.9695 232.283 93.3274C232.465 93.6854 232.719 93.9588 233.044 94.1477C233.369 94.3333 233.748 94.4261 234.182 94.4261C234.464 94.4261 234.721 94.3864 234.953 94.3068C235.185 94.224 235.385 94.1013 235.555 93.9389C235.724 93.7765 235.853 93.576 235.942 93.3374L237.349 93.5909C237.237 94.0052 237.034 94.3681 236.743 94.6797C236.454 94.9879 236.091 95.2282 235.654 95.4006C235.22 95.5696 234.724 95.6541 234.167 95.6541ZM240.58 90.9659V95.5H239.093V87.8636H240.52V89.1065H240.614C240.79 88.7022 241.065 88.3774 241.44 88.1321C241.817 87.8868 242.293 87.7642 242.866 87.7642C243.387 87.7642 243.843 87.8736 244.234 88.0923C244.625 88.3078 244.928 88.6293 245.143 89.0568C245.359 89.4844 245.467 90.013 245.467 90.6428V95.5H243.98V90.8217C243.98 90.2682 243.836 89.8357 243.548 89.5241C243.259 89.2093 242.863 89.0518 242.359 89.0518C242.015 89.0518 241.708 89.1264 241.44 89.2756C241.174 89.4247 240.964 89.6435 240.808 89.9318C240.656 90.2169 240.58 90.5616 240.58 90.9659ZM253.183 89.728L251.835 89.9666C251.779 89.7943 251.689 89.6302 251.567 89.4744C251.447 89.3187 251.285 89.1911 251.08 89.0916C250.874 88.9922 250.617 88.9425 250.309 88.9425C249.888 88.9425 249.537 89.0369 249.255 89.2259C248.973 89.4115 248.832 89.6518 248.832 89.9467C248.832 90.2019 248.927 90.4074 249.116 90.5632C249.305 90.719 249.61 90.8466 250.031 90.946L251.244 91.2244C251.946 91.3868 252.47 91.6371 252.815 91.9751C253.159 92.3132 253.332 92.7524 253.332 93.2926C253.332 93.75 253.199 94.1577 252.934 94.5156C252.672 94.8703 252.306 95.1487 251.835 95.3509C251.368 95.553 250.826 95.6541 250.21 95.6541C249.354 95.6541 248.657 95.4718 248.116 95.1072C247.576 94.7393 247.245 94.2173 247.122 93.5412L248.559 93.3224C248.648 93.697 248.832 93.9804 249.111 94.1726C249.389 94.3615 249.752 94.456 250.2 94.456C250.687 94.456 251.076 94.3549 251.368 94.1527C251.66 93.9472 251.805 93.697 251.805 93.402C251.805 93.1634 251.716 92.9628 251.537 92.8004C251.361 92.638 251.091 92.5154 250.727 92.4325L249.434 92.1491C248.721 91.9867 248.194 91.7282 247.853 91.3736C247.515 91.0189 247.346 90.5698 247.346 90.0263C247.346 89.5755 247.472 89.1811 247.724 88.843C247.976 88.505 248.324 88.2415 248.768 88.0526C249.212 87.8603 249.721 87.7642 250.294 87.7642C251.119 87.7642 251.769 87.9432 252.243 88.3011C252.717 88.6558 253.03 89.1314 253.183 89.728Z" fill="#4D5662"/>
<line x1="20" y1="128.5" x2="270" y2="128.5" stroke="#DBE5EA"/>
<path d="M41.4065 170.636V154.273H42.4548V170.636H41.4065ZM44.43 159.508C44.3703 158.95 44.1189 158.515 43.6757 158.204C43.2368 157.893 42.6657 157.737 41.9626 157.737C41.4683 157.737 41.0443 157.812 40.6906 157.961C40.3369 158.11 40.0663 158.312 39.8788 158.568C39.6913 158.824 39.5954 159.116 39.5912 159.444C39.5912 159.717 39.653 159.953 39.7765 160.153C39.9044 160.354 40.077 160.524 40.2943 160.665C40.5116 160.801 40.7524 160.916 41.0166 161.01C41.2808 161.104 41.5471 161.183 41.8156 161.246L43.0429 161.553C43.5372 161.668 44.0123 161.824 44.4683 162.02C44.9285 162.216 45.3398 162.463 45.702 162.761C46.0684 163.06 46.3582 163.42 46.5713 163.842C46.7844 164.263 46.8909 164.758 46.8909 165.325C46.8909 166.092 46.6949 166.767 46.3028 167.351C45.9108 167.93 45.344 168.384 44.6025 168.712C43.8653 169.036 42.9726 169.198 41.9243 169.198C40.9058 169.198 40.0216 169.04 39.2716 168.725C38.5258 168.41 37.942 167.95 37.5202 167.344C37.1025 166.739 36.8767 166.002 36.8426 165.133H39.1757C39.2098 165.589 39.3504 165.968 39.5976 166.271C39.8447 166.573 40.1665 166.799 40.5628 166.948C40.9633 167.097 41.4108 167.172 41.9051 167.172C42.4207 167.172 42.8724 167.095 43.2602 166.942C43.6523 166.784 43.9591 166.567 44.1807 166.29C44.4023 166.009 44.5152 165.68 44.5194 165.305C44.5152 164.964 44.415 164.683 44.219 164.462C44.023 164.236 43.7481 164.048 43.3944 163.899C43.045 163.746 42.6359 163.609 42.1672 163.49L40.6778 163.107C39.5997 162.83 38.7474 162.41 38.121 161.847C37.4988 161.281 37.1878 160.528 37.1878 159.591C37.1878 158.82 37.3966 158.144 37.8142 157.565C38.2361 156.985 38.8092 156.536 39.5336 156.216C40.2581 155.892 41.0784 155.73 41.9946 155.73C42.9236 155.73 43.7375 155.892 44.4363 156.216C45.1395 156.536 45.6913 156.981 46.0919 157.552C46.4925 158.119 46.6991 158.771 46.7119 159.508H44.43ZM53.5754 169.179C52.6549 169.179 51.8367 169.021 51.1208 168.706C50.4092 168.391 49.8467 167.952 49.4333 167.389C49.02 166.827 48.8005 166.177 48.7749 165.44H51.1784C51.1997 165.793 51.3169 166.102 51.5299 166.366C51.743 166.626 52.0264 166.829 52.3801 166.974C52.7338 167.119 53.1301 167.191 53.569 167.191C54.0377 167.191 54.4532 167.11 54.8154 166.948C55.1776 166.782 55.461 166.552 55.6656 166.258C55.8701 165.964 55.9703 165.625 55.966 165.241C55.9703 164.845 55.868 164.496 55.6592 164.193C55.4504 163.891 55.1478 163.654 54.7515 163.484C54.3595 163.313 53.8865 163.228 53.3325 163.228H52.1755V161.4H53.3325C53.7884 161.4 54.1869 161.321 54.5278 161.163C54.873 161.006 55.1436 160.784 55.3396 160.499C55.5356 160.209 55.6315 159.874 55.6272 159.495C55.6315 159.124 55.5484 158.803 55.3779 158.53C55.2117 158.253 54.9752 158.038 54.6684 157.884C54.3659 157.731 54.01 157.654 53.6009 157.654C53.2004 157.654 52.8296 157.727 52.4887 157.871C52.1478 158.016 51.873 158.223 51.6642 158.491C51.4553 158.756 51.3445 159.071 51.3318 159.438H49.0498C49.0669 158.705 49.2778 158.061 49.6826 157.507C50.0917 156.949 50.6372 156.514 51.319 156.203C52.0008 155.888 52.7657 155.73 53.6137 155.73C54.4873 155.73 55.2458 155.894 55.8893 156.222C56.537 156.546 57.0377 156.983 57.3914 157.533C57.7451 158.082 57.922 158.69 57.922 159.354C57.9262 160.092 57.7089 160.71 57.27 161.208C56.8353 161.707 56.2643 162.033 55.5569 162.186V162.288C56.4774 162.416 57.1826 162.757 57.6727 163.311C58.167 163.861 58.412 164.545 58.4078 165.363C58.4078 166.096 58.199 166.752 57.7813 167.332C57.368 167.907 56.797 168.359 56.0683 168.687C55.3438 169.015 54.5129 169.179 53.5754 169.179ZM61.6661 169.141C61.2783 169.141 60.9459 169.004 60.6689 168.732C60.392 168.459 60.2556 168.126 60.2599 167.734C60.2556 167.351 60.392 167.023 60.6689 166.75C60.9459 166.477 61.2783 166.341 61.6661 166.341C62.0411 166.341 62.3671 166.477 62.6441 166.75C62.9253 167.023 63.0681 167.351 63.0724 167.734C63.0681 167.994 62.9999 168.231 62.8678 168.444C62.74 168.657 62.5695 168.827 62.3564 168.955C62.1476 169.079 61.9175 169.141 61.6661 169.141ZM69.1432 155.909V169H66.7718V158.217H66.695L63.6333 160.173V157.999L66.8868 155.909H69.1432ZM77.2611 169.179C76.6347 169.175 76.0232 169.066 75.4266 168.853C74.83 168.636 74.2931 168.284 73.8158 167.798C73.3385 167.308 72.9593 166.658 72.678 165.849C72.3968 165.035 72.2583 164.027 72.2625 162.825C72.2625 161.705 72.3818 160.705 72.6205 159.827C72.8591 158.95 73.2021 158.208 73.6496 157.603C74.097 156.994 74.6361 156.529 75.2668 156.21C75.9017 155.89 76.6112 155.73 77.3953 155.73C78.2178 155.73 78.9465 155.892 79.5814 156.216C80.2206 156.54 80.7362 156.983 81.1283 157.545C81.5203 158.104 81.7632 158.734 81.857 159.438H79.5239C79.4046 158.935 79.1595 158.534 78.7888 158.236C78.4223 157.933 77.9578 157.782 77.3953 157.782C76.4877 157.782 75.7888 158.176 75.2987 158.964C74.8129 159.753 74.5679 160.835 74.5637 162.212H74.6531C74.8619 161.837 75.1325 161.515 75.4649 161.246C75.7973 160.978 76.1723 160.771 76.5899 160.626C77.0118 160.477 77.4571 160.403 77.9259 160.403C78.6929 160.403 79.3811 160.586 79.9905 160.952C80.6041 161.319 81.0899 161.824 81.4479 162.467C81.8058 163.107 81.9827 163.839 81.9784 164.666C81.9827 165.527 81.7867 166.3 81.3904 166.987C80.9941 167.668 80.4422 168.205 79.7348 168.597C79.0274 168.989 78.2029 169.183 77.2611 169.179ZM77.2483 167.261C77.7128 167.261 78.1283 167.148 78.4948 166.923C78.8612 166.697 79.151 166.392 79.3641 166.009C79.5771 165.625 79.6816 165.195 79.6773 164.717C79.6816 164.249 79.5793 163.825 79.3705 163.445C79.1659 163.066 78.8825 162.766 78.5203 162.544C78.1581 162.322 77.7448 162.212 77.2803 162.212C76.9351 162.212 76.6134 162.278 76.3151 162.41C76.0168 162.542 75.7568 162.725 75.5352 162.96C75.3137 163.19 75.1389 163.458 75.0111 163.765C74.8875 164.067 74.8236 164.391 74.8193 164.737C74.8236 165.192 74.9301 165.612 75.1389 165.996C75.3477 166.379 75.6354 166.686 76.0019 166.916C76.3683 167.146 76.7838 167.261 77.2483 167.261Z" fill="#00928B"/>
<path d="M205.616 160.141V158.818H213.496V160.141H210.32V169H208.788V160.141H205.616ZM217.228 169.154C216.512 169.154 215.887 168.99 215.353 168.662C214.82 168.334 214.405 167.875 214.11 167.285C213.815 166.695 213.668 166.005 213.668 165.217C213.668 164.424 213.815 163.732 214.11 163.138C214.405 162.545 214.82 162.085 215.353 161.756C215.887 161.428 216.512 161.264 217.228 161.264C217.944 161.264 218.568 161.428 219.102 161.756C219.636 162.085 220.05 162.545 220.345 163.138C220.64 163.732 220.787 164.424 220.787 165.217C220.787 166.005 220.64 166.695 220.345 167.285C220.05 167.875 219.636 168.334 219.102 168.662C218.568 168.99 217.944 169.154 217.228 169.154ZM217.233 167.906C217.697 167.906 218.081 167.784 218.386 167.538C218.691 167.293 218.916 166.967 219.062 166.559C219.211 166.151 219.286 165.702 219.286 165.212C219.286 164.724 219.211 164.277 219.062 163.869C218.916 163.458 218.691 163.129 218.386 162.88C218.081 162.631 217.697 162.507 217.233 162.507C216.765 162.507 216.377 162.631 216.069 162.88C215.764 163.129 215.537 163.458 215.388 163.869C215.242 164.277 215.169 164.724 215.169 165.212C215.169 165.702 215.242 166.151 215.388 166.559C215.537 166.967 215.764 167.293 216.069 167.538C216.377 167.784 216.765 167.906 217.233 167.906ZM223.814 166.41L223.804 164.595H224.062L227.105 161.364H228.885L225.415 165.043H225.181L223.814 166.41ZM222.447 169V158.818H223.933V169H222.447ZM227.269 169L224.535 165.371L225.559 164.332L229.094 169H227.269ZM233.216 169.154C232.464 169.154 231.816 168.993 231.272 168.672C230.732 168.347 230.315 167.891 230.02 167.305C229.728 166.715 229.582 166.024 229.582 165.232C229.582 164.449 229.728 163.76 230.02 163.163C230.315 162.567 230.725 162.101 231.252 161.766C231.783 161.432 232.403 161.264 233.112 161.264C233.543 161.264 233.96 161.335 234.365 161.478C234.769 161.621 235.132 161.844 235.453 162.149C235.775 162.454 236.029 162.85 236.214 163.337C236.4 163.821 236.493 164.41 236.493 165.102V165.629H230.422V164.516H235.036C235.036 164.125 234.956 163.778 234.797 163.477C234.638 163.172 234.414 162.931 234.126 162.756C233.841 162.58 233.506 162.492 233.122 162.492C232.704 162.492 232.34 162.595 232.028 162.8C231.72 163.003 231.481 163.268 231.312 163.596C231.146 163.921 231.064 164.274 231.064 164.655V165.525C231.064 166.035 231.153 166.469 231.332 166.827C231.514 167.185 231.768 167.459 232.093 167.648C232.417 167.833 232.797 167.926 233.231 167.926C233.513 167.926 233.77 167.886 234.002 167.807C234.234 167.724 234.434 167.601 234.603 167.439C234.772 167.277 234.902 167.076 234.991 166.837L236.398 167.091C236.285 167.505 236.083 167.868 235.792 168.18C235.503 168.488 235.14 168.728 234.703 168.901C234.269 169.07 233.773 169.154 233.216 169.154ZM239.628 164.466V169H238.142V161.364H239.569V162.607H239.663C239.839 162.202 240.114 161.877 240.488 161.632C240.866 161.387 241.342 161.264 241.915 161.264C242.436 161.264 242.891 161.374 243.282 161.592C243.674 161.808 243.977 162.129 244.192 162.557C244.408 162.984 244.515 163.513 244.515 164.143V169H243.029V164.322C243.029 163.768 242.885 163.336 242.596 163.024C242.308 162.709 241.912 162.552 241.408 162.552C241.064 162.552 240.757 162.626 240.488 162.776C240.223 162.925 240.013 163.143 239.857 163.432C239.705 163.717 239.628 164.062 239.628 164.466ZM252.231 163.228L250.884 163.467C250.828 163.294 250.738 163.13 250.616 162.974C250.496 162.819 250.334 162.691 250.128 162.592C249.923 162.492 249.666 162.442 249.358 162.442C248.937 162.442 248.586 162.537 248.304 162.726C248.022 162.911 247.881 163.152 247.881 163.447C247.881 163.702 247.976 163.907 248.165 164.063C248.354 164.219 248.658 164.347 249.079 164.446L250.292 164.724C250.995 164.887 251.519 165.137 251.863 165.475C252.208 165.813 252.381 166.252 252.381 166.793C252.381 167.25 252.248 167.658 251.983 168.016C251.721 168.37 251.355 168.649 250.884 168.851C250.417 169.053 249.875 169.154 249.258 169.154C248.403 169.154 247.706 168.972 247.165 168.607C246.625 168.239 246.294 167.717 246.171 167.041L247.608 166.822C247.697 167.197 247.881 167.48 248.16 167.673C248.438 167.862 248.801 167.956 249.248 167.956C249.736 167.956 250.125 167.855 250.417 167.653C250.708 167.447 250.854 167.197 250.854 166.902C250.854 166.663 250.765 166.463 250.586 166.3C250.41 166.138 250.14 166.015 249.775 165.933L248.483 165.649C247.77 165.487 247.243 165.228 246.902 164.874C246.564 164.519 246.395 164.07 246.395 163.526C246.395 163.076 246.521 162.681 246.773 162.343C247.024 162.005 247.372 161.741 247.817 161.553C248.261 161.36 248.769 161.264 249.343 161.264C250.168 161.264 250.818 161.443 251.292 161.801C251.766 162.156 252.079 162.631 252.231 163.228Z" fill="#5B6878"/>
<rect x="36.5" y="187.5" width="138" height="25" rx="12.5" fill="#F0FDF2"/>
<rect x="36.5" y="187.5" width="138" height="25" rx="12.5" stroke="#BBF7C8"/>
<g clip-path="url(#clip1_1694_29731)">
<path d="M57.3563 200L57.9705 198.398C58.0379 198.222 57.9854 198.021 57.8375 197.902L56.5058 196.822L56.2364 195.127C56.2066 194.94 56.0596 194.794 55.8724 194.764L54.1776 194.494L53.0988 193.162C52.9798 193.014 52.7751 192.962 52.6027 193.029L50.9998 193.644L49.3978 193.03C49.2202 192.962 49.0216 193.016 48.9017 193.163L47.8221 194.495L46.1273 194.765C46.0363 194.78 45.9522 194.822 45.887 194.888C45.8218 194.953 45.7789 195.037 45.7642 195.128L45.4947 196.823L44.1622 197.902C44.0152 198.021 43.9618 198.222 44.0292 198.398L44.6434 200L44.0292 201.603C43.9609 201.779 44.0152 201.98 44.1622 202.099L45.4947 203.177L45.7642 204.872C45.7939 205.059 45.9401 205.206 46.1273 205.236L47.8221 205.506L48.9017 206.837C48.9597 206.909 49.0391 206.961 49.1285 206.985C49.2178 207.009 49.3125 207.004 49.3987 206.97L50.9998 206.357L52.6019 206.971C52.6519 206.99 52.7049 207 52.7585 207C52.8871 207 53.014 206.943 53.0988 206.837L54.1776 205.506L55.8724 205.236C55.9637 205.222 56.0481 205.179 56.1134 205.113C56.1788 205.048 56.2218 204.963 56.2364 204.872L56.5058 203.177L57.8375 202.099C57.9854 201.979 58.0379 201.779 57.9705 201.603L57.3563 200Z" fill="#17A238"/>
<path d="M49.6874 199.125C48.9638 199.125 48.375 198.536 48.375 197.813C48.375 197.089 48.9638 196.5 49.6874 196.5C50.411 196.5 50.9998 197.089 50.9998 197.813C50.9998 198.536 50.411 199.125 49.6874 199.125ZM49.6874 197.375C49.4459 197.375 49.2499 197.571 49.2499 197.813C49.2499 198.054 49.4459 198.25 49.6874 198.25C49.9289 198.25 50.1249 198.054 50.1249 197.813C50.1249 197.571 49.9289 197.375 49.6874 197.375ZM52.3122 203.5C51.5887 203.5 50.9998 202.911 50.9998 202.188C50.9998 201.464 51.5887 200.875 52.3122 200.875C53.0358 200.875 53.6246 201.464 53.6246 202.188C53.6246 202.911 53.0358 203.5 52.3122 203.5ZM52.3122 201.75C52.0716 201.75 51.8748 201.947 51.8748 202.188C51.8748 202.428 52.0716 202.625 52.3122 202.625C52.5528 202.625 52.7497 202.428 52.7497 202.188C52.7497 201.947 52.5528 201.75 52.3122 201.75ZM48.8125 203.5C48.7241 203.5 48.6357 203.474 48.5587 203.419C48.3619 203.278 48.3164 203.005 48.4572 202.808L52.8319 196.683C52.9728 196.486 53.2458 196.441 53.4427 196.582C53.6395 196.722 53.6841 196.996 53.5441 197.192L49.1694 203.316C49.0828 203.436 48.949 203.5 48.8125 203.5Z" fill="white"/>
</g>
<path d="M65.6818 195.153C66.0398 195.156 66.3977 195.224 66.7557 195.358C67.1136 195.491 67.4403 195.713 67.7358 196.023C68.0313 196.33 68.2685 196.749 68.4474 197.28C68.6264 197.811 68.7159 198.477 68.7159 199.278C68.7159 200.054 68.642 200.743 68.4943 201.345C68.3494 201.945 68.1392 202.45 67.8636 202.862C67.5909 203.274 67.2585 203.587 66.8665 203.8C66.4773 204.013 66.0369 204.119 65.5455 204.119C65.0568 204.119 64.6207 204.023 64.2372 203.83C63.8565 203.634 63.544 203.362 63.2997 203.016C63.0582 202.666 62.9034 202.261 62.8352 201.801H63.875C63.9688 202.202 64.1548 202.533 64.4332 202.794C64.7145 203.053 65.0852 203.182 65.5455 203.182C66.2188 203.182 66.75 202.888 67.1392 202.3C67.5313 201.712 67.7273 200.881 67.7273 199.807H67.6591C67.5 200.045 67.3111 200.251 67.0923 200.425C66.8736 200.598 66.6307 200.732 66.3636 200.825C66.0966 200.919 65.8125 200.966 65.5114 200.966C65.0114 200.966 64.5526 200.842 64.1349 200.595C63.7202 200.345 63.3878 200.003 63.1378 199.568C62.8906 199.131 62.767 198.631 62.767 198.068C62.767 197.534 62.8864 197.045 63.125 196.602C63.3665 196.156 63.7045 195.801 64.1392 195.537C64.5767 195.273 65.0909 195.145 65.6818 195.153ZM65.6818 196.091C65.3239 196.091 65.0014 196.18 64.7145 196.359C64.4304 196.536 64.2045 196.774 64.0369 197.075C63.8722 197.374 63.7898 197.705 63.7898 198.068C63.7898 198.432 63.8693 198.763 64.0284 199.061C64.1903 199.357 64.4105 199.592 64.6889 199.768C64.9702 199.942 65.2898 200.028 65.6477 200.028C65.9176 200.028 66.169 199.976 66.402 199.871C66.6349 199.763 66.8381 199.616 67.0114 199.432C67.1875 199.244 67.3253 199.033 67.4247 198.797C67.5241 198.558 67.5739 198.31 67.5739 198.051C67.5739 197.71 67.4915 197.391 67.3267 197.092C67.1648 196.794 66.9403 196.553 66.6534 196.368C66.3693 196.183 66.0455 196.091 65.6818 196.091ZM74.8406 202.364V201.903C74.8406 201.585 74.9059 201.294 75.0366 201.03C75.1701 200.763 75.3633 200.55 75.6161 200.391C75.8718 200.229 76.1815 200.148 76.5451 200.148C76.9144 200.148 77.2241 200.229 77.4741 200.391C77.7241 200.55 77.913 200.763 78.0408 201.03C78.1687 201.294 78.2326 201.585 78.2326 201.903V202.364C78.2326 202.682 78.1673 202.974 78.0366 203.241C77.9087 203.506 77.7184 203.719 77.4656 203.881C77.2156 204.04 76.9087 204.119 76.5451 204.119C76.1758 204.119 75.8647 204.04 75.6119 203.881C75.359 203.719 75.1673 203.506 75.0366 203.241C74.9059 202.974 74.8406 202.682 74.8406 202.364ZM75.7099 201.903V202.364C75.7099 202.628 75.7724 202.865 75.8974 203.075C76.0224 203.283 76.2383 203.386 76.5451 203.386C76.8434 203.386 77.0536 203.283 77.1758 203.075C77.3008 202.865 77.3633 202.628 77.3633 202.364V201.903C77.3633 201.639 77.3036 201.403 77.1843 201.196C77.065 200.986 76.8519 200.881 76.5451 200.881C76.2468 200.881 76.0323 200.986 75.9016 201.196C75.7738 201.403 75.7099 201.639 75.7099 201.903ZM70.494 197.369V196.909C70.494 196.591 70.5593 196.3 70.69 196.036C70.8235 195.768 71.0167 195.555 71.2695 195.396C71.5252 195.234 71.8349 195.153 72.1985 195.153C72.5678 195.153 72.8775 195.234 73.1275 195.396C73.3775 195.555 73.5664 195.768 73.6942 196.036C73.8221 196.3 73.886 196.591 73.886 196.909V197.369C73.886 197.687 73.8207 197.98 73.69 198.247C73.5621 198.511 73.3718 198.724 73.119 198.886C72.869 199.045 72.5621 199.125 72.1985 199.125C71.8292 199.125 71.5181 199.045 71.2653 198.886C71.0124 198.724 70.8207 198.511 70.69 198.247C70.5593 197.98 70.494 197.687 70.494 197.369ZM71.3633 196.909V197.369C71.3633 197.634 71.4258 197.871 71.5508 198.081C71.6758 198.288 71.8917 198.392 72.1985 198.392C72.4968 198.392 72.707 198.288 72.8292 198.081C72.9542 197.871 73.0167 197.634 73.0167 197.369V196.909C73.0167 196.645 72.957 196.409 72.8377 196.202C72.7184 195.991 72.5053 195.886 72.1985 195.886C71.9002 195.886 71.6857 195.991 71.555 196.202C71.4272 196.409 71.3633 196.645 71.3633 196.909ZM70.8178 204L76.8178 195.273H77.7894L71.7894 204H70.8178ZM86.1928 204.136C85.6019 204.136 85.0835 203.996 84.6374 203.714C84.1942 203.433 83.8477 203.04 83.5977 202.534C83.3505 202.028 83.2269 201.437 83.2269 200.761C83.2269 200.08 83.3505 199.484 83.5977 198.976C83.8477 198.467 84.1942 198.072 84.6374 197.791C85.0835 197.51 85.6019 197.369 86.1928 197.369C86.7837 197.369 87.3008 197.51 87.744 197.791C88.19 198.072 88.5366 198.467 88.7837 198.976C89.0337 199.484 89.1587 200.08 89.1587 200.761C89.1587 201.437 89.0337 202.028 88.7837 202.534C88.5366 203.04 88.19 203.433 87.744 203.714C87.3008 203.996 86.7837 204.136 86.1928 204.136ZM86.1928 203.233C86.6417 203.233 87.011 203.118 87.3008 202.888C87.5906 202.658 87.805 202.355 87.9442 201.98C88.0835 201.605 88.1531 201.199 88.1531 200.761C88.1531 200.324 88.0835 199.916 87.9442 199.538C87.805 199.161 87.5906 198.855 87.3008 198.622C87.011 198.389 86.6417 198.273 86.1928 198.273C85.744 198.273 85.3746 198.389 85.0849 198.622C84.7951 198.855 84.5806 199.161 84.4414 199.538C84.3022 199.916 84.2326 200.324 84.2326 200.761C84.2326 201.199 84.3022 201.605 84.4414 201.98C84.5806 202.355 84.7951 202.658 85.0849 202.888C85.3746 203.118 85.744 203.233 86.1928 203.233ZM93.6087 197.455V198.307H90.0803V197.455H93.6087ZM91.1371 204V196.551C91.1371 196.176 91.2251 195.864 91.4013 195.614C91.5774 195.364 91.8061 195.176 92.0874 195.051C92.3686 194.926 92.6655 194.864 92.978 194.864C93.2251 194.864 93.4268 194.884 93.5831 194.923C93.7393 194.963 93.8558 195 93.9325 195.034L93.6428 195.903C93.5916 195.886 93.5206 195.865 93.4297 195.839C93.3416 195.814 93.2251 195.801 93.0803 195.801C92.7479 195.801 92.5078 195.885 92.3601 196.053C92.2152 196.22 92.1428 196.466 92.1428 196.79V204H91.1371ZM97.9329 197.455V198.307H94.4045V197.455H97.9329ZM95.4613 204V196.551C95.4613 196.176 95.5494 195.864 95.7255 195.614C95.9016 195.364 96.1303 195.176 96.4116 195.051C96.6928 194.926 96.9897 194.864 97.3022 194.864C97.5494 194.864 97.7511 194.884 97.9073 194.923C98.0636 194.963 98.18 195 98.2567 195.034L97.967 195.903C97.9158 195.886 97.8448 195.865 97.7539 195.839C97.6658 195.814 97.5494 195.801 97.4045 195.801C97.0721 195.801 96.832 195.885 96.6843 196.053C96.5394 196.22 96.467 196.466 96.467 196.79V204H95.4613Z" fill="#167F2F"/>
<circle cx="106" cy="200" r="3" fill="#167F2F"/>
<path d="M118.83 197.455C118.778 197.023 118.571 196.688 118.207 196.449C117.844 196.21 117.398 196.091 116.869 196.091C116.483 196.091 116.145 196.153 115.855 196.278C115.568 196.403 115.344 196.575 115.182 196.794C115.023 197.013 114.943 197.261 114.943 197.54C114.943 197.773 114.999 197.973 115.109 198.141C115.223 198.305 115.368 198.443 115.544 198.554C115.72 198.662 115.905 198.751 116.098 198.822C116.291 198.891 116.469 198.946 116.631 198.989L117.517 199.227C117.744 199.287 117.997 199.369 118.276 199.474C118.557 199.58 118.825 199.723 119.081 199.905C119.339 200.084 119.553 200.314 119.72 200.595C119.888 200.876 119.972 201.222 119.972 201.631C119.972 202.102 119.848 202.528 119.601 202.909C119.357 203.29 118.999 203.592 118.527 203.817C118.058 204.041 117.489 204.153 116.818 204.153C116.193 204.153 115.652 204.053 115.195 203.851C114.74 203.649 114.382 203.368 114.121 203.007C113.862 202.646 113.716 202.227 113.682 201.75H114.773C114.801 202.08 114.912 202.352 115.105 202.568C115.301 202.781 115.548 202.94 115.847 203.045C116.148 203.148 116.472 203.199 116.818 203.199C117.222 203.199 117.584 203.134 117.905 203.003C118.226 202.869 118.48 202.685 118.668 202.449C118.855 202.21 118.949 201.932 118.949 201.614C118.949 201.324 118.868 201.088 118.706 200.906C118.544 200.724 118.331 200.577 118.067 200.463C117.803 200.349 117.517 200.25 117.21 200.165L116.136 199.858C115.455 199.662 114.915 199.382 114.517 199.018C114.119 198.655 113.92 198.179 113.92 197.591C113.92 197.102 114.053 196.676 114.317 196.312C114.584 195.946 114.942 195.662 115.391 195.46C115.842 195.256 116.347 195.153 116.903 195.153C117.466 195.153 117.966 195.254 118.403 195.456C118.841 195.655 119.188 195.928 119.443 196.274C119.702 196.621 119.838 197.014 119.852 197.455H118.83ZM123.499 204.153C123.084 204.153 122.708 204.075 122.37 203.919C122.032 203.76 121.763 203.531 121.564 203.233C121.365 202.932 121.266 202.568 121.266 202.142C121.266 201.767 121.34 201.463 121.488 201.23C121.635 200.994 121.833 200.81 122.08 200.676C122.327 200.543 122.6 200.443 122.898 200.378C123.199 200.31 123.502 200.256 123.806 200.216C124.203 200.165 124.526 200.126 124.773 200.101C125.023 200.072 125.205 200.026 125.319 199.96C125.435 199.895 125.493 199.781 125.493 199.619V199.585C125.493 199.165 125.378 198.838 125.148 198.605C124.921 198.372 124.576 198.256 124.113 198.256C123.632 198.256 123.256 198.361 122.983 198.571C122.711 198.781 122.519 199.006 122.408 199.244L121.453 198.903C121.624 198.506 121.851 198.196 122.135 197.974C122.422 197.75 122.735 197.594 123.073 197.506C123.414 197.415 123.749 197.369 124.078 197.369C124.289 197.369 124.53 197.395 124.803 197.446C125.078 197.494 125.344 197.595 125.6 197.749C125.858 197.902 126.073 198.134 126.243 198.443C126.414 198.753 126.499 199.168 126.499 199.688V204H125.493V203.114H125.442C125.374 203.256 125.26 203.408 125.101 203.57C124.942 203.732 124.73 203.869 124.466 203.983C124.202 204.097 123.88 204.153 123.499 204.153ZM123.652 203.25C124.05 203.25 124.385 203.172 124.658 203.016C124.934 202.859 125.141 202.658 125.28 202.411C125.422 202.163 125.493 201.903 125.493 201.631V200.71C125.451 200.761 125.357 200.808 125.212 200.851C125.07 200.891 124.905 200.926 124.718 200.957C124.533 200.986 124.353 201.011 124.176 201.034C124.003 201.054 123.863 201.071 123.755 201.085C123.493 201.119 123.249 201.175 123.022 201.251C122.797 201.325 122.615 201.437 122.476 201.588C122.34 201.736 122.272 201.937 122.272 202.193C122.272 202.543 122.401 202.807 122.659 202.986C122.921 203.162 123.252 203.25 123.652 203.25ZM133.452 197.455L131.032 204H130.009L127.589 197.455H128.68L130.487 202.67H130.555L132.362 197.455H133.452ZM137.29 204.136C136.659 204.136 136.115 203.997 135.658 203.719C135.203 203.438 134.852 203.045 134.605 202.543C134.361 202.037 134.239 201.449 134.239 200.778C134.239 200.108 134.361 199.517 134.605 199.006C134.852 198.491 135.196 198.091 135.636 197.804C136.08 197.514 136.597 197.369 137.188 197.369C137.528 197.369 137.865 197.426 138.197 197.54C138.53 197.653 138.832 197.838 139.105 198.094C139.378 198.347 139.595 198.682 139.757 199.099C139.919 199.517 140 200.031 140 200.642V201.068H134.955V200.199H138.977C138.977 199.83 138.903 199.5 138.756 199.21C138.611 198.92 138.403 198.692 138.134 198.524C137.866 198.357 137.551 198.273 137.188 198.273C136.787 198.273 136.44 198.372 136.148 198.571C135.858 198.767 135.635 199.023 135.479 199.338C135.322 199.653 135.244 199.991 135.244 200.352V200.932C135.244 201.426 135.33 201.845 135.5 202.189C135.673 202.53 135.913 202.79 136.22 202.969C136.527 203.145 136.884 203.233 137.29 203.233C137.554 203.233 137.793 203.196 138.006 203.122C138.222 203.045 138.408 202.932 138.564 202.781C138.72 202.628 138.841 202.437 138.926 202.21L139.898 202.483C139.795 202.812 139.624 203.102 139.382 203.352C139.141 203.599 138.842 203.793 138.487 203.932C138.132 204.068 137.733 204.136 137.29 204.136ZM147.462 205.091V194.182H148.161V205.091H147.462ZM149.814 197.455C149.763 197.023 149.555 196.688 149.192 196.449C148.828 196.21 148.382 196.091 147.854 196.091C147.467 196.091 147.129 196.153 146.839 196.278C146.553 196.403 146.328 196.575 146.166 196.794C146.007 197.013 145.928 197.261 145.928 197.54C145.928 197.773 145.983 197.973 146.094 198.141C146.207 198.305 146.352 198.443 146.528 198.554C146.705 198.662 146.889 198.751 147.082 198.822C147.276 198.891 147.453 198.946 147.615 198.989L148.501 199.227C148.729 199.287 148.982 199.369 149.26 199.474C149.541 199.58 149.81 199.723 150.065 199.905C150.324 200.084 150.537 200.314 150.705 200.595C150.872 200.876 150.956 201.222 150.956 201.631C150.956 202.102 150.832 202.528 150.585 202.909C150.341 203.29 149.983 203.592 149.511 203.817C149.043 204.041 148.473 204.153 147.803 204.153C147.178 204.153 146.636 204.053 146.179 203.851C145.724 203.649 145.366 203.368 145.105 203.007C144.847 202.646 144.7 202.227 144.666 201.75H145.757C145.786 202.08 145.896 202.352 146.089 202.568C146.286 202.781 146.533 202.94 146.831 203.045C147.132 203.148 147.456 203.199 147.803 203.199C148.206 203.199 148.568 203.134 148.889 203.003C149.21 202.869 149.464 202.685 149.652 202.449C149.839 202.21 149.933 201.932 149.933 201.614C149.933 201.324 149.852 201.088 149.69 200.906C149.528 200.724 149.315 200.577 149.051 200.463C148.787 200.349 148.501 200.25 148.195 200.165L147.121 199.858C146.439 199.662 145.899 199.382 145.501 199.018C145.104 198.655 144.905 198.179 144.905 197.591C144.905 197.102 145.037 196.676 145.301 196.312C145.568 195.946 145.926 195.662 146.375 195.46C146.827 195.256 147.331 195.153 147.888 195.153C148.45 195.153 148.95 195.254 149.388 195.456C149.825 195.655 150.172 195.928 150.428 196.274C150.686 196.621 150.822 197.014 150.837 197.455H149.814ZM155.319 195.153C155.676 195.156 156.034 195.224 156.392 195.358C156.75 195.491 157.077 195.713 157.373 196.023C157.668 196.33 157.905 196.749 158.084 197.28C158.263 197.811 158.353 198.477 158.353 199.278C158.353 200.054 158.279 200.743 158.131 201.345C157.986 201.945 157.776 202.45 157.5 202.862C157.228 203.274 156.895 203.587 156.503 203.8C156.114 204.013 155.674 204.119 155.182 204.119C154.694 204.119 154.257 204.023 153.874 203.83C153.493 203.634 153.181 203.362 152.936 203.016C152.695 202.666 152.54 202.261 152.472 201.801H153.512C153.605 202.202 153.792 202.533 154.07 202.794C154.351 203.053 154.722 203.182 155.182 203.182C155.855 203.182 156.387 202.888 156.776 202.3C157.168 201.712 157.364 200.881 157.364 199.807H157.296C157.137 200.045 156.948 200.251 156.729 200.425C156.51 200.598 156.267 200.732 156 200.825C155.733 200.919 155.449 200.966 155.148 200.966C154.648 200.966 154.189 200.842 153.772 200.595C153.357 200.345 153.025 200.003 152.775 199.568C152.527 199.131 152.404 198.631 152.404 198.068C152.404 197.534 152.523 197.045 152.762 196.602C153.003 196.156 153.341 195.801 153.776 195.537C154.213 195.273 154.728 195.145 155.319 195.153ZM155.319 196.091C154.961 196.091 154.638 196.18 154.351 196.359C154.067 196.536 153.841 196.774 153.674 197.075C153.509 197.374 153.426 197.705 153.426 198.068C153.426 198.432 153.506 198.763 153.665 199.061C153.827 199.357 154.047 199.592 154.326 199.768C154.607 199.942 154.926 200.028 155.284 200.028C155.554 200.028 155.806 199.976 156.039 199.871C156.272 199.763 156.475 199.616 156.648 199.432C156.824 199.244 156.962 199.033 157.061 198.797C157.161 198.558 157.211 198.31 157.211 198.051C157.211 197.71 157.128 197.391 156.963 197.092C156.801 196.794 156.577 196.553 156.29 196.368C156.006 196.183 155.682 196.091 155.319 196.091ZM162.807 195.153C163.165 195.156 163.523 195.224 163.881 195.358C164.239 195.491 164.565 195.713 164.861 196.023C165.156 196.33 165.393 196.749 165.572 197.28C165.751 197.811 165.841 198.477 165.841 199.278C165.841 200.054 165.767 200.743 165.619 201.345C165.474 201.945 165.264 202.45 164.989 202.862C164.716 203.274 164.384 203.587 163.991 203.8C163.602 204.013 163.162 204.119 162.67 204.119C162.182 204.119 161.746 204.023 161.362 203.83C160.982 203.634 160.669 203.362 160.425 203.016C160.183 202.666 160.028 202.261 159.96 201.801H161C161.094 202.202 161.28 202.533 161.558 202.794C161.839 203.053 162.21 203.182 162.67 203.182C163.344 203.182 163.875 202.888 164.264 202.3C164.656 201.712 164.852 200.881 164.852 199.807H164.784C164.625 200.045 164.436 200.251 164.217 200.425C163.999 200.598 163.756 200.732 163.489 200.825C163.222 200.919 162.938 200.966 162.636 200.966C162.136 200.966 161.678 200.842 161.26 200.595C160.845 200.345 160.513 200.003 160.263 199.568C160.016 199.131 159.892 198.631 159.892 198.068C159.892 197.534 160.011 197.045 160.25 196.602C160.491 196.156 160.83 195.801 161.264 195.537C161.702 195.273 162.216 195.145 162.807 195.153ZM162.807 196.091C162.449 196.091 162.126 196.18 161.839 196.359C161.555 196.536 161.33 196.774 161.162 197.075C160.997 197.374 160.915 197.705 160.915 198.068C160.915 198.432 160.994 198.763 161.153 199.061C161.315 199.357 161.536 199.592 161.814 199.768C162.095 199.942 162.415 200.028 162.773 200.028C163.043 200.028 163.294 199.976 163.527 199.871C163.76 199.763 163.963 199.616 164.136 199.432C164.313 199.244 164.45 199.033 164.55 198.797C164.649 198.558 164.699 198.31 164.699 198.051C164.699 197.71 164.616 197.391 164.452 197.092C164.29 196.794 164.065 196.553 163.778 196.368C163.494 196.183 163.17 196.091 162.807 196.091Z" fill="#167F2F"/>
<line x1="20" y1="236.5" x2="270" y2="236.5" stroke="#DBE5EA"/>
<path d="M42.2727 266.455L39.8523 273H38.8295L36.4091 266.455H37.5L39.3068 271.67H39.375L41.1818 266.455H42.2727ZM48.2365 267.92L47.3331 268.176C47.2763 268.026 47.1925 267.879 47.0817 267.737C46.9737 267.592 46.826 267.473 46.6385 267.379C46.451 267.286 46.2109 267.239 45.9183 267.239C45.5178 267.239 45.1839 267.331 44.9169 267.516C44.6527 267.697 44.5206 267.929 44.5206 268.21C44.5206 268.46 44.6115 268.658 44.7933 268.803C44.9751 268.947 45.2592 269.068 45.6456 269.165L46.6172 269.403C47.2024 269.545 47.6385 269.763 47.9254 270.055C48.2124 270.345 48.3558 270.719 48.3558 271.176C48.3558 271.551 48.2479 271.886 48.032 272.182C47.8189 272.477 47.5206 272.71 47.1371 272.881C46.7536 273.051 46.3075 273.136 45.799 273.136C45.1314 273.136 44.5788 272.991 44.1413 272.702C43.7038 272.412 43.4268 271.989 43.3104 271.432L44.2649 271.193C44.3558 271.545 44.5277 271.81 44.7805 271.986C45.0362 272.162 45.37 272.25 45.782 272.25C46.2507 272.25 46.6229 272.151 46.8984 271.952C47.1768 271.75 47.3161 271.509 47.3161 271.227C47.3161 271 47.2365 270.81 47.0774 270.656C46.9183 270.5 46.674 270.384 46.3445 270.307L45.2536 270.051C44.6541 269.909 44.2138 269.689 43.9325 269.391C43.6541 269.089 43.5149 268.713 43.5149 268.261C43.5149 267.892 43.6186 267.565 43.826 267.281C44.0362 266.997 44.3217 266.774 44.6825 266.612C45.0462 266.45 45.4581 266.369 45.9183 266.369C46.5661 266.369 47.0746 266.511 47.4439 266.795C47.8161 267.08 48.0803 267.455 48.2365 267.92ZM55.8015 274.091V263.182H56.5004V274.091H55.8015ZM58.1538 266.455C58.1026 266.023 57.8952 265.688 57.5316 265.449C57.168 265.21 56.7219 265.091 56.1935 265.091C55.8072 265.091 55.4691 265.153 55.1793 265.278C54.8924 265.403 54.668 265.575 54.506 265.794C54.3469 266.013 54.2674 266.261 54.2674 266.54C54.2674 266.773 54.3228 266.973 54.4336 267.141C54.5472 267.305 54.6921 267.443 54.8683 267.554C55.0444 267.662 55.229 267.751 55.4222 267.822C55.6154 267.891 55.793 267.946 55.9549 267.989L56.8413 268.227C57.0685 268.287 57.3214 268.369 57.5998 268.474C57.881 268.58 58.1495 268.723 58.4052 268.905C58.6637 269.084 58.8768 269.314 59.0444 269.595C59.212 269.876 59.2958 270.222 59.2958 270.631C59.2958 271.102 59.1722 271.528 58.9251 271.909C58.6808 272.29 58.3228 272.592 57.8512 272.817C57.3825 273.041 56.8129 273.153 56.1424 273.153C55.5174 273.153 54.9762 273.053 54.5188 272.851C54.0643 272.649 53.7063 272.368 53.445 272.007C53.1864 271.646 53.0401 271.227 53.006 270.75H54.0969C54.1254 271.08 54.2362 271.352 54.4293 271.568C54.6254 271.781 54.8725 271.94 55.1708 272.045C55.4719 272.148 55.7958 272.199 56.1424 272.199C56.5458 272.199 56.908 272.134 57.229 272.003C57.5501 271.869 57.8043 271.685 57.9918 271.449C58.1793 271.21 58.2731 270.932 58.2731 270.614C58.2731 270.324 58.1921 270.088 58.0302 269.906C57.8683 269.724 57.6552 269.577 57.391 269.463C57.1268 269.349 56.8413 269.25 56.5344 269.165L55.4606 268.858C54.7788 268.662 54.239 268.382 53.8413 268.018C53.4435 267.655 53.2447 267.179 53.2447 266.591C53.2447 266.102 53.3768 265.676 53.641 265.312C53.908 264.946 54.266 264.662 54.7148 264.46C55.1665 264.256 55.6708 264.153 56.2276 264.153C56.7901 264.153 57.2901 264.254 57.7276 264.456C58.1651 264.655 58.5117 264.928 58.7674 265.274C59.0259 265.621 59.1623 266.014 59.1765 266.455H58.1538ZM63.9482 264.273V273H62.8913V265.381H62.8402L60.7095 266.795V265.722L62.8913 264.273H63.9482ZM67.4595 271.807L67.3913 272.267C67.343 272.591 67.2692 272.938 67.1697 273.307C67.0732 273.676 66.9723 274.024 66.8672 274.351C66.7621 274.678 66.6754 274.938 66.6072 275.131H65.8402C65.8771 274.949 65.9254 274.709 65.9851 274.411C66.0447 274.112 66.1044 273.778 66.1641 273.409C66.2266 273.043 66.2777 272.668 66.3175 272.284L66.3686 271.807H67.4595ZM71.8477 273.119C71.2056 273.119 70.6587 272.945 70.207 272.595C69.7553 272.243 69.4102 271.733 69.1715 271.065C68.9329 270.395 68.8136 269.585 68.8136 268.636C68.8136 267.693 68.9329 266.888 69.1715 266.22C69.413 265.55 69.7596 265.038 70.2113 264.686C70.6658 264.331 71.2113 264.153 71.8477 264.153C72.484 264.153 73.0281 264.331 73.4798 264.686C73.9343 265.038 74.2809 265.55 74.5195 266.22C74.761 266.888 74.8817 267.693 74.8817 268.636C74.8817 269.585 74.7624 270.395 74.5238 271.065C74.2852 271.733 73.94 272.243 73.4883 272.595C73.0366 272.945 72.4897 273.119 71.8477 273.119ZM71.8477 272.182C72.484 272.182 72.9783 271.875 73.3306 271.261C73.6829 270.648 73.859 269.773 73.859 268.636C73.859 267.881 73.7781 267.237 73.6161 266.706C73.457 266.175 73.2269 265.77 72.9258 265.491C72.6275 265.213 72.2681 265.074 71.8477 265.074C71.217 265.074 70.7241 265.385 70.369 266.007C70.0138 266.626 69.8363 267.503 69.8363 268.636C69.8363 269.392 69.9158 270.034 70.0749 270.562C70.234 271.091 70.4627 271.493 70.761 271.768C71.0621 272.044 71.4244 272.182 71.8477 272.182ZM76.2965 271.21V270.341L80.1317 264.273H80.7624V265.619H80.3363L77.4386 270.205V270.273H82.6033V271.21H76.2965ZM80.4045 273V270.946V270.541V264.273H81.4102V273H80.4045ZM84.473 273L88.3764 265.278V265.21H83.8764V264.273H89.4673V265.261L85.581 273H84.473ZM96.3739 273.153C95.9592 273.153 95.5827 273.075 95.2447 272.919C94.9066 272.76 94.6381 272.531 94.4393 272.233C94.2404 271.932 94.141 271.568 94.141 271.142C94.141 270.767 94.2148 270.463 94.3626 270.23C94.5103 269.994 94.7077 269.81 94.9549 269.676C95.2021 269.543 95.4748 269.443 95.7731 269.378C96.0742 269.31 96.3768 269.256 96.6808 269.216C97.0785 269.165 97.4009 269.126 97.6481 269.101C97.8981 269.072 98.0799 269.026 98.1935 268.96C98.31 268.895 98.3683 268.781 98.3683 268.619V268.585C98.3683 268.165 98.2532 267.838 98.0231 267.605C97.7958 267.372 97.4506 267.256 96.9876 267.256C96.5075 267.256 96.131 267.361 95.8583 267.571C95.5856 267.781 95.3938 268.006 95.283 268.244L94.3285 267.903C94.4989 267.506 94.7262 267.196 95.0103 266.974C95.2972 266.75 95.6097 266.594 95.9478 266.506C96.2887 266.415 96.6239 266.369 96.9535 266.369C97.1637 266.369 97.4052 266.395 97.6779 266.446C97.9535 266.494 98.2191 266.595 98.4748 266.749C98.7333 266.902 98.9478 267.134 99.1183 267.443C99.2887 267.753 99.3739 268.168 99.3739 268.688V273H98.3683V272.114H98.3171C98.2489 272.256 98.1353 272.408 97.9762 272.57C97.8171 272.732 97.6055 272.869 97.3413 272.983C97.0771 273.097 96.7546 273.153 96.3739 273.153ZM96.5273 272.25C96.9251 272.25 97.2603 272.172 97.533 272.016C97.8086 271.859 98.016 271.658 98.1552 271.411C98.2972 271.163 98.3683 270.903 98.3683 270.631V269.71C98.3256 269.761 98.2319 269.808 98.087 269.851C97.945 269.891 97.7802 269.926 97.5927 269.957C97.408 269.986 97.2276 270.011 97.0515 270.034C96.8782 270.054 96.7376 270.071 96.6296 270.085C96.3683 270.119 96.1239 270.175 95.8967 270.251C95.6722 270.325 95.4904 270.437 95.3512 270.588C95.2148 270.736 95.1467 270.937 95.1467 271.193C95.1467 271.543 95.2759 271.807 95.5344 271.986C95.7958 272.162 96.1268 272.25 96.5273 272.25ZM104.056 266.455V267.307H100.664V266.455H104.056ZM101.653 264.886H102.658V271.125C102.658 271.409 102.7 271.622 102.782 271.764C102.867 271.903 102.975 271.997 103.106 272.045C103.239 272.091 103.38 272.114 103.528 272.114C103.638 272.114 103.729 272.108 103.8 272.097C103.871 272.082 103.928 272.071 103.971 272.062L104.175 272.966C104.107 272.991 104.012 273.017 103.89 273.043C103.768 273.071 103.613 273.085 103.425 273.085C103.141 273.085 102.863 273.024 102.59 272.902C102.32 272.78 102.096 272.594 101.917 272.344C101.741 272.094 101.653 271.778 101.653 271.398V264.886ZM109.08 273V264.273H110.086V267.494H110.171C110.245 267.381 110.347 267.236 110.478 267.06C110.612 266.881 110.802 266.722 111.049 266.582C111.299 266.44 111.637 266.369 112.063 266.369C112.614 266.369 113.1 266.507 113.521 266.783C113.941 267.058 114.269 267.449 114.505 267.955C114.741 268.46 114.859 269.057 114.859 269.744C114.859 270.438 114.741 271.038 114.505 271.547C114.269 272.053 113.942 272.445 113.525 272.723C113.107 272.999 112.626 273.136 112.08 273.136C111.66 273.136 111.323 273.067 111.07 272.928C110.817 272.786 110.623 272.625 110.487 272.446C110.35 272.264 110.245 272.114 110.171 271.994H110.052V273H109.08ZM110.069 269.727C110.069 270.222 110.141 270.658 110.286 271.036C110.431 271.411 110.643 271.705 110.921 271.918C111.2 272.128 111.54 272.233 111.944 272.233C112.364 272.233 112.715 272.122 112.996 271.901C113.281 271.676 113.494 271.375 113.636 270.997C113.781 270.616 113.853 270.193 113.853 269.727C113.853 269.267 113.782 268.852 113.64 268.483C113.501 268.111 113.289 267.817 113.005 267.601C112.724 267.382 112.37 267.273 111.944 267.273C111.535 267.273 111.191 267.376 110.913 267.584C110.634 267.788 110.424 268.075 110.282 268.445C110.14 268.811 110.069 269.239 110.069 269.727ZM118.323 273.153C117.908 273.153 117.532 273.075 117.194 272.919C116.856 272.76 116.587 272.531 116.388 272.233C116.19 271.932 116.09 271.568 116.09 271.142C116.09 270.767 116.164 270.463 116.312 270.23C116.46 269.994 116.657 269.81 116.904 269.676C117.151 269.543 117.424 269.443 117.722 269.378C118.023 269.31 118.326 269.256 118.63 269.216C119.028 269.165 119.35 269.126 119.597 269.101C119.847 269.072 120.029 269.026 120.143 268.96C120.259 268.895 120.317 268.781 120.317 268.619V268.585C120.317 268.165 120.202 267.838 119.972 267.605C119.745 267.372 119.4 267.256 118.937 267.256C118.457 267.256 118.08 267.361 117.808 267.571C117.535 267.781 117.343 268.006 117.232 268.244L116.278 267.903C116.448 267.506 116.675 267.196 116.96 266.974C117.246 266.75 117.559 266.594 117.897 266.506C118.238 266.415 118.573 266.369 118.903 266.369C119.113 266.369 119.354 266.395 119.627 266.446C119.903 266.494 120.168 266.595 120.424 266.749C120.683 266.902 120.897 267.134 121.067 267.443C121.238 267.753 121.323 268.168 121.323 268.688V273H120.317V272.114H120.266C120.198 272.256 120.085 272.408 119.925 272.57C119.766 272.732 119.555 272.869 119.29 272.983C119.026 273.097 118.704 273.153 118.323 273.153ZM118.477 272.25C118.874 272.25 119.21 272.172 119.482 272.016C119.758 271.859 119.965 271.658 120.104 271.411C120.246 271.163 120.317 270.903 120.317 270.631V269.71C120.275 269.761 120.181 269.808 120.036 269.851C119.894 269.891 119.729 269.926 119.542 269.957C119.357 269.986 119.177 270.011 119.001 270.034C118.827 270.054 118.687 270.071 118.579 270.085C118.317 270.119 118.073 270.175 117.846 270.251C117.621 270.325 117.44 270.437 117.3 270.588C117.164 270.736 117.096 270.937 117.096 271.193C117.096 271.543 117.225 271.807 117.484 271.986C117.745 272.162 118.076 272.25 118.477 272.25ZM127.795 267.92L126.892 268.176C126.835 268.026 126.751 267.879 126.64 267.737C126.532 267.592 126.385 267.473 126.197 267.379C126.01 267.286 125.77 267.239 125.477 267.239C125.076 267.239 124.743 267.331 124.475 267.516C124.211 267.697 124.079 267.929 124.079 268.21C124.079 268.46 124.17 268.658 124.352 268.803C124.534 268.947 124.818 269.068 125.204 269.165L126.176 269.403C126.761 269.545 127.197 269.763 127.484 270.055C127.771 270.345 127.914 270.719 127.914 271.176C127.914 271.551 127.806 271.886 127.591 272.182C127.377 272.477 127.079 272.71 126.696 272.881C126.312 273.051 125.866 273.136 125.358 273.136C124.69 273.136 124.137 272.991 123.7 272.702C123.262 272.412 122.985 271.989 122.869 271.432L123.824 271.193C123.914 271.545 124.086 271.81 124.339 271.986C124.595 272.162 124.929 272.25 125.341 272.25C125.809 272.25 126.181 272.151 126.457 271.952C126.735 271.75 126.875 271.509 126.875 271.227C126.875 271 126.795 270.81 126.636 270.656C126.477 270.5 126.233 270.384 125.903 270.307L124.812 270.051C124.213 269.909 123.772 269.689 123.491 269.391C123.213 269.089 123.074 268.713 123.074 268.261C123.074 267.892 123.177 267.565 123.385 267.281C123.595 266.997 123.88 266.774 124.241 266.612C124.605 266.45 125.017 266.369 125.477 266.369C126.125 266.369 126.633 266.511 127.002 266.795C127.375 267.08 127.639 267.455 127.795 267.92ZM132.173 273.136C131.542 273.136 130.998 272.997 130.54 272.719C130.086 272.438 129.735 272.045 129.488 271.543C129.244 271.037 129.121 270.449 129.121 269.778C129.121 269.108 129.244 268.517 129.488 268.006C129.735 267.491 130.079 267.091 130.519 266.804C130.962 266.514 131.479 266.369 132.07 266.369C132.411 266.369 132.748 266.426 133.08 266.54C133.413 266.653 133.715 266.838 133.988 267.094C134.261 267.347 134.478 267.682 134.64 268.099C134.802 268.517 134.883 269.031 134.883 269.642V270.068H129.837V269.199H133.86C133.86 268.83 133.786 268.5 133.638 268.21C133.494 267.92 133.286 267.692 133.016 267.524C132.749 267.357 132.434 267.273 132.07 267.273C131.67 267.273 131.323 267.372 131.031 267.571C130.741 267.767 130.518 268.023 130.362 268.338C130.205 268.653 130.127 268.991 130.127 269.352V269.932C130.127 270.426 130.212 270.845 130.383 271.189C130.556 271.53 130.796 271.79 131.103 271.969C131.41 272.145 131.766 272.233 132.173 272.233C132.437 272.233 132.675 272.196 132.888 272.122C133.104 272.045 133.29 271.932 133.447 271.781C133.603 271.628 133.724 271.437 133.809 271.21L134.781 271.483C134.678 271.812 134.506 272.102 134.265 272.352C134.023 272.599 133.725 272.793 133.37 272.932C133.015 273.068 132.616 273.136 132.173 273.136ZM139.788 275.455V266.455H140.759V267.494H140.879C140.952 267.381 141.055 267.236 141.185 267.06C141.319 266.881 141.509 266.722 141.756 266.582C142.006 266.44 142.344 266.369 142.771 266.369C143.322 266.369 143.808 266.507 144.228 266.783C144.648 267.058 144.977 267.449 145.212 267.955C145.448 268.46 145.566 269.057 145.566 269.744C145.566 270.438 145.448 271.038 145.212 271.547C144.977 272.053 144.65 272.445 144.232 272.723C143.815 272.999 143.333 273.136 142.788 273.136C142.367 273.136 142.031 273.067 141.778 272.928C141.525 272.786 141.33 272.625 141.194 272.446C141.058 272.264 140.952 272.114 140.879 271.994H140.793V275.455H139.788ZM140.776 269.727C140.776 270.222 140.849 270.658 140.994 271.036C141.138 271.411 141.35 271.705 141.629 271.918C141.907 272.128 142.248 272.233 142.651 272.233C143.072 272.233 143.423 272.122 143.704 271.901C143.988 271.676 144.201 271.375 144.343 270.997C144.488 270.616 144.56 270.193 144.56 269.727C144.56 269.267 144.489 268.852 144.347 268.483C144.208 268.111 143.996 267.817 143.712 267.601C143.431 267.382 143.077 267.273 142.651 267.273C142.242 267.273 141.898 267.376 141.62 267.584C141.342 267.788 141.131 268.075 140.989 268.445C140.847 268.811 140.776 269.239 140.776 269.727ZM147.1 273V266.455H148.072V267.443H148.14C148.259 267.119 148.475 266.857 148.788 266.655C149.1 266.453 149.452 266.352 149.844 266.352C149.918 266.352 150.011 266.354 150.121 266.357C150.232 266.359 150.316 266.364 150.373 266.369V267.392C150.339 267.384 150.261 267.371 150.138 267.354C150.019 267.334 149.893 267.324 149.759 267.324C149.441 267.324 149.157 267.391 148.907 267.524C148.66 267.655 148.464 267.837 148.319 268.07C148.177 268.3 148.106 268.562 148.106 268.858V273H147.1ZM151.565 273V266.455H152.571V273H151.565ZM152.076 265.364C151.88 265.364 151.711 265.297 151.569 265.163C151.43 265.03 151.36 264.869 151.36 264.682C151.36 264.494 151.43 264.334 151.569 264.2C151.711 264.067 151.88 264 152.076 264C152.272 264 152.44 264.067 152.579 264.2C152.721 264.334 152.792 264.494 152.792 264.682C152.792 264.869 152.721 265.03 152.579 265.163C152.44 265.297 152.272 265.364 152.076 265.364ZM157.072 273.136C156.458 273.136 155.93 272.991 155.487 272.702C155.043 272.412 154.702 272.013 154.464 271.504C154.225 270.996 154.106 270.415 154.106 269.761C154.106 269.097 154.228 268.51 154.472 268.001C154.719 267.49 155.063 267.091 155.504 266.804C155.947 266.514 156.464 266.369 157.055 266.369C157.515 266.369 157.93 266.455 158.299 266.625C158.668 266.795 158.971 267.034 159.207 267.341C159.442 267.648 159.589 268.006 159.646 268.415H158.64C158.563 268.116 158.393 267.852 158.129 267.622C157.867 267.389 157.515 267.273 157.072 267.273C156.68 267.273 156.336 267.375 156.04 267.58C155.748 267.781 155.519 268.067 155.354 268.436C155.192 268.803 155.112 269.233 155.112 269.727C155.112 270.233 155.191 270.673 155.35 271.048C155.512 271.423 155.739 271.714 156.032 271.922C156.327 272.129 156.674 272.233 157.072 272.233C157.333 272.233 157.57 272.188 157.783 272.097C157.996 272.006 158.177 271.875 158.325 271.705C158.472 271.534 158.577 271.33 158.64 271.091H159.646C159.589 271.477 159.448 271.825 159.224 272.135C159.002 272.442 158.708 272.686 158.342 272.868C157.978 273.047 157.555 273.136 157.072 273.136ZM163.86 273.136C163.229 273.136 162.685 272.997 162.228 272.719C161.773 272.438 161.423 272.045 161.175 271.543C160.931 271.037 160.809 270.449 160.809 269.778C160.809 269.108 160.931 268.517 161.175 268.006C161.423 267.491 161.766 267.091 162.207 266.804C162.65 266.514 163.167 266.369 163.758 266.369C164.099 266.369 164.435 266.426 164.768 266.54C165.1 266.653 165.403 266.838 165.675 267.094C165.948 267.347 166.165 267.682 166.327 268.099C166.489 268.517 166.57 269.031 166.57 269.642V270.068H161.525V269.199H165.548C165.548 268.83 165.474 268.5 165.326 268.21C165.181 267.92 164.974 267.692 164.704 267.524C164.437 267.357 164.121 267.273 163.758 267.273C163.357 267.273 163.011 267.372 162.718 267.571C162.428 267.767 162.205 268.023 162.049 268.338C161.893 268.653 161.815 268.991 161.815 269.352V269.932C161.815 270.426 161.9 270.845 162.07 271.189C162.244 271.53 162.484 271.79 162.79 271.969C163.097 272.145 163.454 272.233 163.86 272.233C164.124 272.233 164.363 272.196 164.576 272.122C164.792 272.045 164.978 271.932 165.134 271.781C165.29 271.628 165.411 271.437 165.496 271.21L166.468 271.483C166.366 271.812 166.194 272.102 165.952 272.352C165.711 272.599 165.413 272.793 165.058 272.932C164.702 273.068 164.303 273.136 163.86 273.136Z" fill="#066966"/>
<g filter="url(#filter1_d_1694_29731)">
<rect x="36.5" y="289.5" width="217" height="39" rx="19.5" stroke="#00A89D" shape-rendering="crispEdges"/>
<path d="M76.0043 314V303.818H79.8224C80.6046 303.818 81.2609 303.964 81.7912 304.256C82.3248 304.547 82.7275 304.948 82.9993 305.459C83.2744 305.966 83.4119 306.543 83.4119 307.189C83.4119 307.842 83.2744 308.422 82.9993 308.929C82.7242 309.436 82.3182 309.835 81.7812 310.127C81.2443 310.415 80.5831 310.56 79.7976 310.56H77.267V309.043H79.549C80.0064 309.043 80.3809 308.964 80.6726 308.805C80.9643 308.646 81.1797 308.427 81.3189 308.148C81.4614 307.87 81.5327 307.55 81.5327 307.189C81.5327 306.828 81.4614 306.509 81.3189 306.234C81.1797 305.959 80.9626 305.746 80.6676 305.593C80.3759 305.437 79.9998 305.359 79.5391 305.359H77.8487V314H76.0043ZM89.8017 310.788V306.364H91.6014V314H89.8564V312.643H89.7768C89.6045 313.07 89.3211 313.42 88.9267 313.692C88.5356 313.964 88.0533 314.099 87.4799 314.099C86.9795 314.099 86.537 313.988 86.1525 313.766C85.7714 313.541 85.4731 313.214 85.2576 312.787C85.0422 312.356 84.9345 311.836 84.9345 311.226V306.364H86.7342V310.947C86.7342 311.431 86.8668 311.816 87.1319 312.101C87.3971 312.386 87.7451 312.528 88.176 312.528C88.4411 312.528 88.698 312.464 88.9466 312.335C89.1951 312.205 89.399 312.013 89.5581 311.758C89.7205 311.499 89.8017 311.176 89.8017 310.788ZM93.4521 314V306.364H95.1971V307.636H95.2766C95.4158 307.196 95.6545 306.856 95.9925 306.617C96.3339 306.375 96.7234 306.254 97.1609 306.254C97.2603 306.254 97.3713 306.259 97.494 306.269C97.6199 306.276 97.7243 306.287 97.8072 306.304V307.96C97.7309 307.933 97.61 307.91 97.4442 307.89C97.2818 307.867 97.1244 307.855 96.9719 307.855C96.6438 307.855 96.3488 307.926 96.087 308.069C95.8285 308.208 95.6246 308.402 95.4755 308.651C95.3263 308.899 95.2518 309.186 95.2518 309.511V314H93.4521ZM102.019 314.149C101.257 314.149 100.602 313.982 100.056 313.647C99.512 313.312 99.0927 312.85 98.7978 312.26C98.5061 311.667 98.3603 310.984 98.3603 310.212C98.3603 309.436 98.5094 308.752 98.8077 308.158C99.106 307.562 99.5269 307.098 100.07 306.766C100.617 306.432 101.264 306.264 102.009 306.264C102.629 306.264 103.178 306.379 103.655 306.607C104.136 306.833 104.518 307.152 104.803 307.567C105.088 307.978 105.251 308.458 105.291 309.009H103.57C103.501 308.641 103.335 308.334 103.073 308.089C102.815 307.84 102.468 307.716 102.034 307.716C101.666 307.716 101.343 307.815 101.065 308.014C100.786 308.21 100.569 308.491 100.414 308.859C100.261 309.227 100.185 309.668 100.185 310.182C100.185 310.702 100.261 311.15 100.414 311.524C100.566 311.895 100.78 312.182 101.055 312.384C101.333 312.583 101.66 312.683 102.034 312.683C102.299 312.683 102.536 312.633 102.745 312.533C102.957 312.431 103.135 312.283 103.277 312.091C103.42 311.899 103.517 311.665 103.57 311.39H105.291C105.248 311.93 105.088 312.409 104.813 312.827C104.538 313.241 104.164 313.566 103.69 313.801C103.216 314.033 102.659 314.149 102.019 314.149ZM108.568 309.526V314H106.768V303.818H108.528V307.661H108.618C108.797 307.23 109.074 306.891 109.448 306.642C109.826 306.39 110.307 306.264 110.89 306.264C111.42 306.264 111.883 306.375 112.277 306.597C112.671 306.819 112.976 307.144 113.192 307.572C113.411 307.999 113.52 308.521 113.52 309.138V314H111.72V309.416C111.72 308.902 111.588 308.503 111.322 308.218C111.061 307.93 110.693 307.786 110.219 307.786C109.901 307.786 109.616 307.855 109.364 307.994C109.115 308.13 108.92 308.327 108.777 308.586C108.638 308.844 108.568 309.158 108.568 309.526ZM117.552 314.154C117.068 314.154 116.632 314.068 116.244 313.896C115.86 313.72 115.555 313.461 115.33 313.12C115.107 312.779 114.996 312.358 114.996 311.857C114.996 311.426 115.076 311.07 115.235 310.788C115.394 310.507 115.611 310.281 115.886 310.112C116.161 309.943 116.471 309.816 116.816 309.729C117.164 309.64 117.524 309.575 117.895 309.536C118.342 309.489 118.705 309.448 118.984 309.411C119.262 309.371 119.464 309.312 119.59 309.232C119.719 309.149 119.784 309.022 119.784 308.849V308.82C119.784 308.445 119.673 308.155 119.451 307.95C119.229 307.744 118.909 307.641 118.491 307.641C118.051 307.641 117.701 307.737 117.442 307.93C117.187 308.122 117.015 308.349 116.925 308.611L115.245 308.372C115.378 307.908 115.596 307.52 115.901 307.209C116.206 306.894 116.579 306.659 117.02 306.503C117.461 306.344 117.948 306.264 118.482 306.264C118.849 306.264 119.216 306.307 119.58 306.393C119.945 306.48 120.278 306.622 120.58 306.821C120.881 307.017 121.123 307.283 121.305 307.621C121.491 307.96 121.584 308.382 121.584 308.889V314H119.854V312.951H119.794C119.685 313.163 119.531 313.362 119.332 313.548C119.136 313.73 118.889 313.877 118.591 313.99C118.296 314.099 117.95 314.154 117.552 314.154ZM118.019 312.832C118.38 312.832 118.694 312.76 118.959 312.618C119.224 312.472 119.428 312.28 119.57 312.041C119.716 311.803 119.789 311.542 119.789 311.261V310.361C119.733 310.407 119.637 310.45 119.501 310.49C119.368 310.53 119.219 310.565 119.053 310.594C118.888 310.624 118.723 310.651 118.561 310.674C118.399 310.697 118.258 310.717 118.138 310.734C117.87 310.77 117.63 310.83 117.418 310.913C117.205 310.996 117.038 311.112 116.915 311.261C116.793 311.406 116.732 311.595 116.732 311.827C116.732 312.159 116.853 312.409 117.094 312.578C117.336 312.747 117.645 312.832 118.019 312.832ZM129.429 308.382L127.788 308.561C127.742 308.395 127.661 308.24 127.545 308.094C127.432 307.948 127.28 307.83 127.087 307.741C126.895 307.651 126.66 307.607 126.381 307.607C126.007 307.607 125.692 307.688 125.437 307.85C125.185 308.013 125.061 308.223 125.064 308.482C125.061 308.704 125.142 308.884 125.308 309.023C125.477 309.163 125.755 309.277 126.143 309.366L127.445 309.645C128.168 309.801 128.705 310.048 129.056 310.386C129.411 310.724 129.59 311.166 129.593 311.713C129.59 312.194 129.449 312.618 129.17 312.986C128.895 313.35 128.513 313.635 128.022 313.841C127.531 314.046 126.968 314.149 126.332 314.149C125.397 314.149 124.645 313.954 124.075 313.562C123.504 313.168 123.165 312.62 123.055 311.917L124.81 311.748C124.89 312.093 125.059 312.353 125.317 312.528C125.576 312.704 125.912 312.792 126.327 312.792C126.754 312.792 127.097 312.704 127.356 312.528C127.618 312.353 127.749 312.136 127.749 311.877C127.749 311.658 127.664 311.478 127.495 311.335C127.329 311.193 127.071 311.083 126.719 311.007L125.417 310.734C124.684 310.581 124.143 310.324 123.791 309.963C123.44 309.598 123.266 309.138 123.269 308.581C123.266 308.11 123.393 307.703 123.652 307.358C123.914 307.01 124.277 306.741 124.741 306.553C125.208 306.36 125.747 306.264 126.357 306.264C127.251 306.264 127.956 306.455 128.469 306.836C128.987 307.217 129.306 307.732 129.429 308.382ZM134.458 314.149C133.692 314.149 133.031 313.99 132.474 313.672C131.921 313.35 131.495 312.896 131.196 312.31C130.898 311.72 130.749 311.025 130.749 310.227C130.749 309.441 130.898 308.752 131.196 308.158C131.498 307.562 131.919 307.098 132.459 306.766C132.999 306.432 133.634 306.264 134.363 306.264C134.834 306.264 135.278 306.34 135.696 306.493C136.117 306.642 136.488 306.874 136.809 307.189C137.134 307.504 137.389 307.905 137.575 308.392C137.761 308.876 137.853 309.453 137.853 310.122V310.674H131.594V309.461H136.128C136.125 309.116 136.05 308.81 135.904 308.541C135.759 308.269 135.555 308.056 135.293 307.9C135.034 307.744 134.733 307.666 134.388 307.666C134.02 307.666 133.697 307.756 133.419 307.935C133.14 308.11 132.923 308.342 132.767 308.631C132.615 308.916 132.537 309.229 132.534 309.57V310.629C132.534 311.073 132.615 311.455 132.777 311.773C132.94 312.088 133.167 312.33 133.458 312.499C133.75 312.664 134.092 312.747 134.483 312.747C134.744 312.747 134.981 312.711 135.194 312.638C135.406 312.562 135.59 312.451 135.745 312.305C135.901 312.159 136.019 311.978 136.098 311.763L137.779 311.952C137.673 312.396 137.471 312.784 137.172 313.115C136.877 313.443 136.499 313.698 136.039 313.881C135.578 314.06 135.051 314.149 134.458 314.149ZM142.481 305.364V303.818H150.604V305.364H147.457V314H145.628V305.364H142.481ZM154.314 314.149C153.569 314.149 152.922 313.985 152.375 313.657C151.828 313.329 151.404 312.87 151.103 312.28C150.804 311.69 150.655 311 150.655 310.212C150.655 309.423 150.804 308.732 151.103 308.138C151.404 307.545 151.828 307.085 152.375 306.756C152.922 306.428 153.569 306.264 154.314 306.264C155.06 306.264 155.706 306.428 156.253 306.756C156.8 307.085 157.223 307.545 157.521 308.138C157.823 308.732 157.973 309.423 157.973 310.212C157.973 311 157.823 311.69 157.521 312.28C157.223 312.87 156.8 313.329 156.253 313.657C155.706 313.985 155.06 314.149 154.314 314.149ZM154.324 312.707C154.729 312.707 155.067 312.596 155.338 312.374C155.61 312.149 155.812 311.847 155.945 311.469C156.081 311.092 156.149 310.671 156.149 310.207C156.149 309.739 156.081 309.317 155.945 308.939C155.812 308.558 155.61 308.254 155.338 308.029C155.067 307.804 154.729 307.691 154.324 307.691C153.91 307.691 153.565 307.804 153.29 308.029C153.018 308.254 152.815 308.558 152.679 308.939C152.546 309.317 152.48 309.739 152.48 310.207C152.48 310.671 152.546 311.092 152.679 311.469C152.815 311.847 153.018 312.149 153.29 312.374C153.565 312.596 153.91 312.707 154.324 312.707ZM161.142 311.604L161.137 309.431H161.425L164.169 306.364H166.272L162.896 310.122H162.524L161.142 311.604ZM159.501 314V303.818H161.301V314H159.501ZM164.294 314L161.808 310.525L163.021 309.257L166.446 314H164.294ZM170.538 314.149C169.772 314.149 169.111 313.99 168.554 313.672C168.001 313.35 167.575 312.896 167.276 312.31C166.978 311.72 166.829 311.025 166.829 310.227C166.829 309.441 166.978 308.752 167.276 308.158C167.578 307.562 167.999 307.098 168.539 306.766C169.079 306.432 169.714 306.264 170.443 306.264C170.914 306.264 171.358 306.34 171.776 306.493C172.197 306.642 172.568 306.874 172.889 307.189C173.214 307.504 173.469 307.905 173.655 308.392C173.841 308.876 173.933 309.453 173.933 310.122V310.674H167.674V309.461H172.208C172.205 309.116 172.13 308.81 171.985 308.541C171.839 308.269 171.635 308.056 171.373 307.9C171.115 307.744 170.813 307.666 170.468 307.666C170.1 307.666 169.777 307.756 169.499 307.935C169.22 308.11 169.003 308.342 168.847 308.631C168.695 308.916 168.617 309.229 168.614 309.57V310.629C168.614 311.073 168.695 311.455 168.857 311.773C169.02 312.088 169.247 312.33 169.539 312.499C169.83 312.664 170.172 312.747 170.563 312.747C170.825 312.747 171.061 312.711 171.274 312.638C171.486 312.562 171.67 312.451 171.825 312.305C171.981 312.159 172.099 311.978 172.178 311.763L173.859 311.952C173.753 312.396 173.551 312.784 173.252 313.115C172.957 313.443 172.579 313.698 172.119 313.881C171.658 314.06 171.131 314.149 170.538 314.149ZM177.256 309.526V314H175.456V306.364H177.176V307.661H177.266C177.441 307.234 177.721 306.894 178.106 306.642C178.494 306.39 178.973 306.264 179.543 306.264C180.07 306.264 180.529 306.377 180.92 306.602C181.314 306.828 181.619 307.154 181.835 307.582C182.053 308.009 182.161 308.528 182.158 309.138V314H180.358V309.416C180.358 308.906 180.225 308.506 179.96 308.218C179.698 307.93 179.335 307.786 178.871 307.786C178.557 307.786 178.277 307.855 178.031 307.994C177.789 308.13 177.599 308.327 177.46 308.586C177.324 308.844 177.256 309.158 177.256 309.526ZM190.023 308.382L188.382 308.561C188.336 308.395 188.254 308.24 188.138 308.094C188.026 307.948 187.873 307.83 187.681 307.741C187.489 307.651 187.254 307.607 186.975 307.607C186.601 307.607 186.286 307.688 186.031 307.85C185.779 308.013 185.654 308.223 185.658 308.482C185.654 308.704 185.736 308.884 185.901 309.023C186.07 309.163 186.349 309.277 186.737 309.366L188.039 309.645C188.762 309.801 189.299 310.048 189.65 310.386C190.004 310.724 190.183 311.166 190.187 311.713C190.183 312.194 190.043 312.618 189.764 312.986C189.489 313.35 189.106 313.635 188.616 313.841C188.125 314.046 187.562 314.149 186.925 314.149C185.991 314.149 185.238 313.954 184.668 313.562C184.098 313.168 183.759 312.62 183.649 311.917L185.404 311.748C185.484 312.093 185.653 312.353 185.911 312.528C186.17 312.704 186.506 312.792 186.92 312.792C187.348 312.792 187.691 312.704 187.95 312.528C188.211 312.353 188.342 312.136 188.342 311.877C188.342 311.658 188.258 311.478 188.089 311.335C187.923 311.193 187.665 311.083 187.313 311.007L186.011 310.734C185.278 310.581 184.736 310.324 184.385 309.963C184.034 309.598 183.86 309.138 183.863 308.581C183.86 308.11 183.987 307.703 184.246 307.358C184.508 307.01 184.871 306.741 185.335 306.553C185.802 306.36 186.34 306.264 186.95 306.264C187.845 306.264 188.549 306.455 189.063 306.836C189.58 307.217 189.9 307.732 190.023 308.382Z" fill="#00A89D"/>
<path d="M208.62 304.953L212.667 309L208.62 313.046" stroke="#00A89D" stroke-width="1.5" stroke-miterlimit="10" stroke-linecap="round" stroke-linejoin="round"/>
<path d="M201.333 309H212.553" stroke="#00A89D" stroke-width="1.5" stroke-miterlimit="10" stroke-linecap="round" stroke-linejoin="round"/>
</g>
</g>
<rect x="20.5" y="20.5" width="249" height="328" rx="23.5" stroke="#EBF1F4"/>
</g>
<defs>
<filter id="filter0_d_1694_29731" x="0" y="0" width="298" height="377" filterUnits="userSpaceOnUse" color-interpolation-filters="sRGB">
<feFlood flood-opacity="0" result="BackgroundImageFix"/>
<feColorMatrix in="SourceAlpha" type="matrix" values="0 0 0 0 0 0 0 0 0 0 0 0 0 0 0 0 0 0 127 0" result="hardAlpha"/>
<feOffset dx="4" dy="4"/>
<feGaussianBlur stdDeviation="12"/>
<feComposite in2="hardAlpha" operator="out"/>
<feColorMatrix type="matrix" values="0 0 0 0 0 0 0 0 0 0 0 0 0 0 0 0 0 0 0.05 0"/>
<feBlend mode="normal" in2="BackgroundImageFix" result="effect1_dropShadow_1694_29731"/>
<feBlend mode="normal" in="SourceGraphic" in2="effect1_dropShadow_1694_29731" result="shape"/>
</filter>
<filter id="filter1_d_1694_29731" x="18" y="271" width="266" height="88" filterUnits="userSpaceOnUse" color-interpolation-filters="sRGB">
<feFlood flood-opacity="0" result="BackgroundImageFix"/>
<feColorMatrix in="SourceAlpha" type="matrix" values="0 0 0 0 0 0 0 0 0 0 0 0 0 0 0 0 0 0 127 0" result="hardAlpha"/>
<feOffset dx="6" dy="6"/>
<feGaussianBlur stdDeviation="12"/>
<feComposite in2="hardAlpha" operator="out"/>
<feColorMatrix type="matrix" values="0 0 0 0 0 0 0 0 0 0.815686 0 0 0 0 0.74902 0 0 0 0.08 0"/>
<feBlend mode="normal" in2="BackgroundImageFix" result="effect1_dropShadow_1694_29731"/>
<feBlend mode="normal" in="SourceGraphic" in2="effect1_dropShadow_1694_29731" result="shape"/>
</filter>
<clipPath id="clip0_1694_29731">
<rect x="20" y="20" width="250" height="329" rx="24" fill="white"/>
</clipPath>
<clipPath id="clip1_1694_29731">
<rect width="14" height="14" fill="white" transform="translate(44 193)"/>
</clipPath>
</defs>
</svg>
