<svg width="24" height="24" viewBox="0 0 24 24" fill="none" xmlns="http://www.w3.org/2000/svg">
<rect width="24" height="24" rx="12" fill="white"/>
<path d="M11.3797 18.1311L4.98438 11.2131H8.08511L10.5331 14.0295C10.5568 13.9636 11.5507 12.0715 12.9553 10.6264C15.643 7.86154 19.0151 5.86896 19.0151 5.86896C19.0009 5.8801 17.5701 7.0049 15.9226 9.06643C14.4022 10.9689 12.3813 14.0807 11.3868 18.1022L11.3797 18.1311Z" fill="#002425"/>
<path d="M12.9554 10.6265C11.5508 12.0715 10.5569 13.9636 10.5332 14.0296L11.3798 18.1311L11.3869 18.1023C12.3812 14.0807 14.4023 10.9689 15.9226 9.0665C17.5702 7.0049 19.001 5.88 19.0152 5.86896C19.0152 5.86896 15.6431 7.86154 12.9554 10.6265Z" fill="#0A5753"/>
</svg>
